<?xml version="1.0" encoding="UTF-8" standalone="no"?>
<svg 
   width="327.12pt"
   height="234pt"
   viewBox="0 0 327.12 234"
   version="1.1"
   id="svg61"
   xmlns="http://www.w3.org/2000/svg"
   xmlns:svg="http://www.w3.org/2000/svg" content="%3Cmxfile%20host%3D%22app.diagrams.net%22%20modified%3D%222023-11-06T21%3A15%3A28.230Z%22%20agent%3D%22Mozilla%2F5.0%20(Macintosh%3B%20Intel%20Mac%20OS%20X%2010_15_7)%20AppleWebKit%2F537.36%20(KHTML%2C%20like%20Gecko)%20Chrome%2F119.0.0.0%20Safari%2F537.36%22%20etag%3D%22YJllZSk7rDqrahTFSROY%22%20version%3D%2222.0.8%22%20type%3D%22device%22%3E%20%20%20%3Cdiagram%20name%3D%22Pagina-1%22%20id%3D%22E88Y_eGb2Ot6z3okOX56%22%3E%20%20%20%20%20%3CmxGraphModel%20dx%3D%22502%22%20dy%3D%22308%22%20grid%3D%221%22%20gridSize%3D%2210%22%20guides%3D%221%22%20tooltips%3D%221%22%20connect%3D%221%22%20arrows%3D%221%22%20fold%3D%221%22%20page%3D%220%22%20pageScale%3D%221%22%20pageWidth%3D%22827%22%20pageHeight%3D%221169%22%20math%3D%221%22%20shadow%3D%220%22%3E%20%20%20%20%20%20%20%3Croot%3E%20%20%20%20%20%20%20%20%20%3CmxCell%20id%3D%220%22%20%2F%3E%20%20%20%20%20%20%20%20%20%3CmxCell%20id%3D%221%22%20parent%3D%220%22%20%2F%3E%20%20%20%20%20%20%20%20%20%3CmxCell%20id%3D%22gZrddB3QGciaUOXZZaBY-3%22%20value%3D%22%22%20style%3D%22endArrow%3Dclassic%3Bhtml%3D1%3Brounded%3D0%3B%22%20edge%3D%221%22%20parent%3D%221%22%3E%20%20%20%20%20%20%20%20%20%20%20%3CmxGeometry%20width%3D%2250%22%20height%3D%2250%22%20relative%3D%221%22%20as%3D%22geometry%22%3E%20%20%20%20%20%20%20%20%20%20%20%20%20%3CmxPoint%20x%3D%22180%22%20y%3D%22520%22%20as%3D%22sourcePoint%22%20%2F%3E%20%20%20%20%20%20%20%20%20%20%20%20%20%3CmxPoint%20x%3D%22540%22%20y%3D%22520%22%20as%3D%22targetPoint%22%20%2F%3E%20%20%20%20%20%20%20%20%20%20%20%3C%2FmxGeometry%3E%20%20%20%20%20%20%20%20%20%3C%2FmxCell%3E%20%20%20%20%20%20%20%20%20%3CmxCell%20id%3D%22gZrddB3QGciaUOXZZaBY-4%22%20value%3D%22%22%20style%3D%22endArrow%3Dclassic%3Bhtml%3D1%3Brounded%3D0%3B%22%20edge%3D%221%22%20parent%3D%221%22%3E%20%20%20%20%20%20%20%20%20%20%20%3CmxGeometry%20width%3D%2250%22%20height%3D%2250%22%20relative%3D%221%22%20as%3D%22geometry%22%3E%20%20%20%20%20%20%20%20%20%20%20%20%20%3CmxPoint%20x%3D%22320%22%20y%3D%22580%22%20as%3D%22sourcePoint%22%20%2F%3E%20%20%20%20%20%20%20%20%20%20%20%20%20%3CmxPoint%20x%3D%22320%22%20y%3D%22300%22%20as%3D%22targetPoint%22%20%2F%3E%20%20%20%20%20%20%20%20%20%20%20%3C%2FmxGeometry%3E%20%20%20%20%20%20%20%20%20%3C%2FmxCell%3E%20%20%20%20%20%20%20%20%20%3CmxCell%20id%3D%22gZrddB3QGciaUOXZZaBY-5%22%20value%3D%22%22%20style%3D%22endArrow%3Dnone%3Bhtml%3D1%3Brounded%3D0%3B%22%20edge%3D%221%22%20parent%3D%221%22%3E%20%20%20%20%20%20%20%20%20%20%20%3CmxGeometry%20width%3D%2250%22%20height%3D%2250%22%20relative%3D%221%22%20as%3D%22geometry%22%3E%20%20%20%20%20%20%20%20%20%20%20%20%20%3CmxPoint%20x%3D%22260%22%20y%3D%22580%22%20as%3D%22sourcePoint%22%20%2F%3E%20%20%20%20%20%20%20%20%20%20%20%20%20%3CmxPoint%20x%3D%22520%22%20y%3D%22320%22%20as%3D%22targetPoint%22%20%2F%3E%20%20%20%20%20%20%20%20%20%20%20%3C%2FmxGeometry%3E%20%20%20%20%20%20%20%20%20%3C%2FmxCell%3E%20%20%20%20%20%20%20%20%20%3CmxCell%20id%3D%22gZrddB3QGciaUOXZZaBY-8%22%20value%3D%22%22%20style%3D%22endArrow%3Dnone%3Bdashed%3D1%3Bhtml%3D1%3Brounded%3D0%3BedgeStyle%3DorthogonalEdgeStyle%3Bcurved%3D1%3B%22%20edge%3D%221%22%20parent%3D%221%22%3E%20%20%20%20%20%20%20%20%20%20%20%3CmxGeometry%20width%3D%2250%22%20height%3D%2250%22%20relative%3D%221%22%20as%3D%22geometry%22%3E%20%20%20%20%20%20%20%20%20%20%20%20%20%3CmxPoint%20x%3D%22510%22%20y%3D%22510%22%20as%3D%22sourcePoint%22%20%2F%3E%20%20%20%20%20%20%20%20%20%20%20%20%20%3CmxPoint%20x%3D%22250%22%20y%3D%22330%22%20as%3D%22targetPoint%22%20%2F%3E%20%20%20%20%20%20%20%20%20%20%20%20%20%3CArray%20as%3D%22points%22%3E%20%20%20%20%20%20%20%20%20%20%20%20%20%20%20%3CmxPoint%20x%3D%22250%22%20y%3D%22510%22%20%2F%3E%20%20%20%20%20%20%20%20%20%20%20%20%20%3C%2FArray%3E%20%20%20%20%20%20%20%20%20%20%20%3C%2FmxGeometry%3E%20%20%20%20%20%20%20%20%20%3C%2FmxCell%3E%20%20%20%20%20%20%20%20%20%3CmxCell%20id%3D%22gZrddB3QGciaUOXZZaBY-11%22%20value%3D%22%22%20style%3D%22endArrow%3Dnone%3Bdashed%3D1%3Bhtml%3D1%3Brounded%3D0%3BedgeStyle%3DorthogonalEdgeStyle%3Bcurved%3D1%3B%22%20edge%3D%221%22%20parent%3D%221%22%3E%20%20%20%20%20%20%20%20%20%20%20%3CmxGeometry%20width%3D%2250%22%20height%3D%2250%22%20relative%3D%221%22%20as%3D%22geometry%22%3E%20%20%20%20%20%20%20%20%20%20%20%20%20%3CmxPoint%20x%3D%22180%22%20y%3D%22510%22%20as%3D%22sourcePoint%22%20%2F%3E%20%20%20%20%20%20%20%20%20%20%20%20%20%3CmxPoint%20x%3D%22470%22%20y%3D%22330%22%20as%3D%22targetPoint%22%20%2F%3E%20%20%20%20%20%20%20%20%20%20%20%20%20%3CArray%20as%3D%22points%22%3E%20%20%20%20%20%20%20%20%20%20%20%20%20%20%20%3CmxPoint%20x%3D%22470%22%20y%3D%22510%22%20%2F%3E%20%20%20%20%20%20%20%20%20%20%20%20%20%3C%2FArray%3E%20%20%20%20%20%20%20%20%20%20%20%3C%2FmxGeometry%3E%20%20%20%20%20%20%20%20%20%3C%2FmxCell%3E%20%20%20%20%20%20%20%20%20%3CmxCell%20id%3D%22gZrddB3QGciaUOXZZaBY-18%22%20value%3D%22%24%24a%5Ek%20%26amp%3Bgt%3B%201%20%24%24%22%20style%3D%22text%3Bhtml%3D1%3Balign%3Dcenter%3BverticalAlign%3Dmiddle%3Bresizable%3D0%3Bpoints%3D%5B%5D%3Bautosize%3D1%3BstrokeColor%3Dnone%3BfillColor%3Dnone%3B%22%20vertex%3D%221%22%20parent%3D%221%22%3E%20%20%20%20%20%20%20%20%20%20%20%3CmxGeometry%20x%3D%22430%22%20y%3D%22398%22%20width%3D%2290%22%20height%3D%2230%22%20as%3D%22geometry%22%20%2F%3E%20%20%20%20%20%20%20%20%20%3C%2FmxCell%3E%20%20%20%20%20%20%20%20%20%3CmxCell%20id%3D%22gZrddB3QGciaUOXZZaBY-19%22%20value%3D%22%24%240%26amp%3Blt%3B%20a%5Ek%20%26amp%3Blt%3B%3D%201%20%24%24%22%20style%3D%22text%3Bhtml%3D1%3Balign%3Dcenter%3BverticalAlign%3Dmiddle%3Bresizable%3D0%3Bpoints%3D%5B%5D%3Bautosize%3D1%3BstrokeColor%3Dnone%3BfillColor%3Dnone%3B%22%20vertex%3D%221%22%20parent%3D%221%22%3E%20%20%20%20%20%20%20%20%20%20%20%3CmxGeometry%20x%3D%22155%22%20y%3D%22398%22%20width%3D%22120%22%20height%3D%2230%22%20as%3D%22geometry%22%20%2F%3E%20%20%20%20%20%20%20%20%20%3C%2FmxCell%3E%20%20%20%20%20%20%20%20%20%3CmxCell%20id%3D%22gZrddB3QGciaUOXZZaBY-20%22%20value%3D%22%24%24k%20l_%7Bmax%7D%24%24%22%20style%3D%22text%3Bhtml%3D1%3Balign%3Dcenter%3BverticalAlign%3Dmiddle%3Bresizable%3D0%3Bpoints%3D%5B%5D%3Bautosize%3D1%3BstrokeColor%3Dnone%3BfillColor%3Dnone%3B%22%20vertex%3D%221%22%20parent%3D%221%22%3E%20%20%20%20%20%20%20%20%20%20%20%3CmxGeometry%20x%3D%22490%22%20y%3D%22310%22%20width%3D%22100%22%20height%3D%2230%22%20as%3D%22geometry%22%20%2F%3E%20%20%20%20%20%20%20%20%20%3C%2FmxCell%3E%20%20%20%20%20%20%20%20%20%3CmxCell%20id%3D%22gZrddB3QGciaUOXZZaBY-21%22%20value%3D%22%24%24k%24%24%22%20style%3D%22text%3Bhtml%3D1%3Balign%3Dcenter%3BverticalAlign%3Dmiddle%3Bresizable%3D0%3Bpoints%3D%5B%5D%3Bautosize%3D1%3BstrokeColor%3Dnone%3BfillColor%3Dnone%3B%22%20vertex%3D%221%22%20parent%3D%221%22%3E%20%20%20%20%20%20%20%20%20%20%20%3CmxGeometry%20x%3D%22510%22%20y%3D%22518%22%20width%3D%2260%22%20height%3D%2230%22%20as%3D%22geometry%22%20%2F%3E%20%20%20%20%20%20%20%20%20%3C%2FmxCell%3E%20%20%20%20%20%20%20%20%20%3CmxCell%20id%3D%22gZrddB3QGciaUOXZZaBY-22%22%20value%3D%22%24%24a%5Ek%24%24%22%20style%3D%22text%3Bhtml%3D1%3Balign%3Dcenter%3BverticalAlign%3Dmiddle%3Bresizable%3D0%3Bpoints%3D%5B%5D%3Bautosize%3D1%3BstrokeColor%3Dnone%3BfillColor%3Dnone%3B%22%20vertex%3D%221%22%20parent%3D%221%22%3E%20%20%20%20%20%20%20%20%20%20%20%3CmxGeometry%20x%3D%22300%22%20y%3D%22280%22%20width%3D%2270%22%20height%3D%2230%22%20as%3D%22geometry%22%20%2F%3E%20%20%20%20%20%20%20%20%20%3C%2FmxCell%3E%20%20%20%20%20%20%20%3C%2Froot%3E%20%20%20%20%20%3C%2FmxGraphModel%3E%20%20%20%3C%2Fdiagram%3E%20%3C%2Fmxfile%3E%20">
  <defs
     id="defs5">
    <clipPath
       id="clip-0">
      <path
         clip-rule="nonzero"
         d="M 68 19 L 285 19 L 285 232.5 L 68 232.5 Z M 68 19 "
         id="path2" />
    </clipPath>
  </defs>
  <path
     fill="none"
     stroke-width="1"
     stroke-linecap="butt"
     stroke-linejoin="miter"
     stroke="rgb(0%, 0%, 0%)"
     stroke-opacity="1"
     stroke-miterlimit="10"
     d="M 25.000001 240.00001 L 378.630224 240.00001 "
     transform="matrix(0.75, 0, 0, 0.75, 0.375, 0.375)"
     id="path7" />
  <path
     fill-rule="nonzero"
     fill="rgb(0%, 0%, 0%)"
     fill-opacity="1"
     stroke-width="1"
     stroke-linecap="butt"
     stroke-linejoin="miter"
     stroke="rgb(0%, 0%, 0%)"
     stroke-opacity="1"
     stroke-miterlimit="10"
     d="M 383.880224 240.00001 L 376.880224 243.50001 L 378.630224 240.00001 L 376.880224 236.50001 Z M 383.880224 240.00001 "
     transform="matrix(0.75, 0, 0, 0.75, 0.375, 0.375)"
     id="path9" />
  <path
     fill="none"
     stroke-width="1"
     stroke-linecap="butt"
     stroke-linejoin="miter"
     stroke="rgb(0%, 0%, 0%)"
     stroke-opacity="1"
     stroke-miterlimit="10"
     d="M 165.000007 300.000013 L 165.000007 26.369793 "
     transform="matrix(0.75, 0, 0, 0.75, 0.375, 0.375)"
     id="path11" />
  <path
     fill-rule="nonzero"
     fill="rgb(0%, 0%, 0%)"
     fill-opacity="1"
     stroke-width="1"
     stroke-linecap="butt"
     stroke-linejoin="miter"
     stroke="rgb(0%, 0%, 0%)"
     stroke-opacity="1"
     stroke-miterlimit="10"
     d="M 165.000007 21.119793 L 168.500007 28.119793 L 165.000007 26.369793 L 161.500007 28.119793 Z M 165.000007 21.119793 "
     transform="matrix(0.75, 0, 0, 0.75, 0.375, 0.375)"
     id="path13" />
  <g
     clip-path="url(#clip-0)"
     id="g17">
    <path
       fill="none"
       stroke-width="1"
       stroke-linecap="butt"
       stroke-linejoin="miter"
       stroke="#000000"
       stroke-opacity="1"
       stroke-miterlimit="10"
       d="M 105,300.00001 365.00002,40.000002"
       transform="matrix(0.75,0,0,0.75,0.375,0.375)"
       id="path15" />
  </g>
  <path
     fill-rule="nonzero"
     fill="rgb(0%, 0%, 0%)"
     fill-opacity="1"
     d="M 266.625 173.25 L 264.308594 173.246094 L 264.3125 172.496094 L 266.625 172.5 Z M 262.003906 173.230469 L 259.71875 173.207031 L 259.726563 172.457031 L 262.011719 172.480469 Z M 257.441406 173.171875 L 255.179688 173.128906 L 255.195313 172.378906 L 257.453125 172.421875 Z M 252.929688 173.078125 L 250.699219 173.015625 L 250.71875 172.265625 L 252.953125 172.328125 Z M 248.476563 172.945313 L 246.273438 172.863281 L 246.300781 172.113281 L 248.503906 172.195313 Z M 244.078125 172.769531 L 241.828125 172.667969 L 241.863281 171.917969 L 244.113281 172.023438 Z M 239.519531 172.546875 L 237.230469 172.417969 L 237.273438 171.671875 L 239.5625 171.800781 Z M 234.953125 172.28125 L 232.691406 172.128906 L 232.742188 171.378906 L 235 171.53125 Z M 230.445313 171.96875 L 228.21875 171.792969 L 228.277344 171.046875 L 230.503906 171.21875 Z M 226.003906 171.609375 L 223.808594 171.417969 L 223.875 170.667969 L 226.070313 170.863281 Z M 221.621094 171.210938 L 219.363281 170.984375 L 219.4375 170.238281 L 221.699219 170.464844 Z M 217.0625 170.742188 L 214.789063 170.484375 L 214.871094 169.742188 L 217.148438 169.996094 Z M 212.523438 170.21875 L 210.285156 169.9375 L 210.378906 169.191406 L 212.617188 169.472656 Z M 208.058594 169.644531 L 205.855469 169.335938 L 205.957031 168.59375 L 208.160156 168.898438 Z M 203.664063 169.019531 L 201.496094 168.6875 L 201.609375 167.945313 L 203.777344 168.277344 Z M 199.273438 168.335938 L 196.996094 167.953125 L 197.121094 167.214844 L 199.398438 167.59375 Z M 194.734375 167.558594 L 192.496094 167.148438 L 192.632813 166.410156 L 194.867188 166.820313 Z M 190.273438 166.726563 L 188.078125 166.289063 L 188.226563 165.550781 L 190.421875 165.988281 Z M 185.898438 165.835938 L 183.742188 165.371094 L 183.902344 164.636719 L 186.054688 165.101563 Z M 181.605469 164.890625 C 180.851563 164.71875 180.109375 164.542969 179.367188 164.367188 L 179.542969 163.636719 C 180.28125 163.8125 181.023438 163.988281 181.769531 164.160156 Z M 177.128906 163.820313 C 176.386719 163.636719 175.648438 163.449219 174.914063 163.257813 L 175.101563 162.535156 C 175.832031 162.722656 176.570313 162.910156 177.308594 163.09375 Z M 172.722656 162.683594 C 171.996094 162.484375 171.269531 162.289063 170.554688 162.085938 L 170.753906 161.367188 C 171.472656 161.566406 172.191406 161.761719 172.917969 161.957031 Z M 168.410156 161.476563 C 167.699219 161.273438 166.992188 161.0625 166.285156 160.851563 L 166.503906 160.132813 C 167.203125 160.34375 167.910156 160.550781 168.617188 160.757813 Z M 164.1875 160.207031 C 163.457031 159.980469 162.730469 159.75 162.007813 159.515625 L 162.242188 158.800781 C 162.957031 159.035156 163.683594 159.265625 164.410156 159.492188 Z M 159.824219 158.792969 C 159.097656 158.550781 158.378906 158.304688 157.664063 158.054688 L 157.910156 157.34375 C 158.621094 157.59375 159.339844 157.839844 160.0625 158.082031 Z M 155.53125 157.292969 C 154.824219 157.039063 154.121094 156.78125 153.421875 156.515625 L 153.6875 155.816406 C 154.382813 156.078125 155.082031 156.335938 155.785156 156.589844 Z M 151.34375 155.722656 C 150.652344 155.453125 149.96875 155.179688 149.289063 154.90625 L 149.570313 154.210938 C 150.246094 154.484375 150.929688 154.753906 151.617188 155.023438 Z M 147.238281 154.0625 C 146.523438 153.765625 145.816406 153.464844 145.113281 153.160156 L 145.414063 152.46875 C 146.113281 152.773438 146.816406 153.074219 147.527344 153.371094 Z M 143.019531 152.230469 C 142.324219 151.917969 141.636719 151.601563 140.957031 151.285156 L 141.273438 150.605469 C 141.953125 150.921875 142.636719 151.238281 143.328125 151.546875 Z M 138.921875 150.316406 C 138.246094 149.988281 137.578125 149.660156 136.917969 149.328125 L 137.253906 148.65625 C 137.914063 148.988281 138.578125 149.316406 139.25 149.640625 Z M 134.941406 148.316406 C 134.289063 147.976563 133.636719 147.628906 132.992188 147.28125 L 133.347656 146.621094 C 133.988281 146.96875 134.636719 147.3125 135.289063 147.652344 Z M 130.972656 146.171875 C 130.304688 145.796875 129.644531 145.417969 128.988281 145.035156 L 129.363281 144.386719 C 130.015625 144.769531 130.675781 145.144531 131.339844 145.515625 Z M 127.035156 143.878906 C 126.390625 143.488281 125.75 143.09375 125.117188 142.699219 L 125.515625 142.0625 C 126.144531 142.457031 126.78125 142.847656 127.421875 143.238281 Z M 123.230469 141.492188 C 122.609375 141.089844 121.992188 140.679688 121.378906 140.265625 L 121.800781 139.644531 C 122.40625 140.054688 123.019531 140.460938 123.640625 140.863281 Z M 119.535156 138.996094 C 118.90625 138.558594 118.285156 138.113281 117.671875 137.664063 L 118.113281 137.058594 C 118.722656 137.503906 119.339844 137.945313 119.964844 138.382813 Z M 115.84375 136.304688 C 115.242188 135.851563 114.644531 135.386719 114.054688 134.921875 L 114.519531 134.335938 C 115.105469 134.796875 115.699219 135.253906 116.296875 135.707031 Z M 112.300781 133.515625 C 111.722656 133.039063 111.148438 132.5625 110.582031 132.082031 L 111.070313 131.507813 C 111.632813 131.988281 112.203125 132.464844 112.777344 132.933594 Z M 108.902344 130.621094 C 108.335938 130.117188 107.773438 129.609375 107.214844 129.09375 L 107.722656 128.542969 C 108.277344 129.054688 108.835938 129.558594 109.402344 130.058594 Z M 105.558594 127.535156 C 105.015625 127.011719 104.476563 126.484375 103.945313 125.949219 L 104.472656 125.421875 C 105.003906 125.949219 105.539063 126.476563 106.078125 126.996094 Z M 102.367188 124.339844 C 101.847656 123.796875 101.335938 123.25 100.828125 122.699219 L 101.378906 122.191406 C 101.882813 122.738281 102.390625 123.28125 102.90625 123.820313 Z M 99.328125 121.03125 C 98.832031 120.46875 98.339844 119.898438 97.855469 119.324219 L 98.429688 118.839844 C 98.910156 119.410156 99.398438 119.976563 99.890625 120.535156 Z M 96.414063 117.578125 C 95.9375 116.992188 95.472656 116.398438 95.011719 115.804688 L 95.605469 115.34375 C 96.0625 115.9375 96.527344 116.523438 96.996094 117.105469 Z M 93.652344 114.003906 C 93.203125 113.398438 92.761719 112.785156 92.328125 112.171875 L 92.941406 111.742188 C 93.371094 112.351563 93.808594 112.957031 94.253906 113.554688 Z M 91.046875 110.316406 C 90.628906 109.691406 90.214844 109.066406 89.808594 108.433594 L 90.441406 108.027344 C 90.84375 108.65625 91.253906 109.277344 91.671875 109.894531 Z M 88.613281 106.527344 C 88.21875 105.886719 87.835938 105.242188 87.457031 104.59375 L 88.101563 104.214844 C 88.480469 104.859375 88.863281 105.5 89.253906 106.136719 Z M 86.339844 102.632813 C 85.972656 101.972656 85.613281 101.308594 85.261719 100.640625 L 85.925781 100.292969 C 86.273438 100.957031 86.632813 101.613281 86.992188 102.265625 Z M 84.222656 98.625 C 83.886719 97.953125 83.554688 97.273438 83.230469 96.59375 L 83.910156 96.269531 C 84.230469 96.949219 84.558594 97.621094 84.894531 98.289063 Z M 82.292969 94.5625 C 81.984375 93.882813 81.6875 93.195313 81.390625 92.507813 L 82.082031 92.214844 C 82.375 92.898438 82.671875 93.578125 82.976563 94.253906 Z M 80.53125 90.425781 C 80.25 89.726563 79.976563 89.023438 79.707031 88.316406 L 80.40625 88.050781 C 80.675781 88.753906 80.945313 89.449219 81.226563 90.144531 Z M 78.921875 86.179688 C 78.664063 85.464844 78.417969 84.746094 78.175781 84.019531 L 78.886719 83.78125 C 79.125 84.503906 79.375 85.21875 79.628906 85.929688 Z M 77.488281 81.90625 C 77.265625 81.195313 77.050781 80.484375 76.839844 79.769531 L 77.558594 79.558594 C 77.765625 80.269531 77.984375 80.976563 78.203125 81.679688 Z M 76.226563 77.609375 C 76.027344 76.886719 75.835938 76.160156 75.648438 75.425781 L 76.375 75.242188 C 76.558594 75.96875 76.75 76.691406 76.949219 77.410156 Z M 75.105469 73.21875 C 74.929688 72.476563 74.761719 71.734375 74.601563 70.984375 L 75.332031 70.824219 C 75.496094 71.570313 75.664063 72.308594 75.835938 73.046875 Z M 74.136719 68.769531 C 73.992188 68.046875 73.855469 67.320313 73.722656 66.59375 L 74.460938 66.457031 C 74.589844 67.183594 74.730469 67.902344 74.871094 68.621094 Z M 73.335938 64.398438 C 73.214844 63.660156 73.097656 62.921875 72.984375 62.179688 L 73.726563 62.066406 C 73.839844 62.804688 73.957031 63.542969 74.078125 64.273438 Z M 72.667969 59.9375 C 72.566406 59.1875 72.472656 58.429688 72.378906 57.675781 L 73.125 57.585938 C 73.214844 58.339844 73.308594 59.089844 73.410156 59.835938 Z M 72.125 55.386719 C 72.050781 54.644531 71.976563 53.898438 71.910156 53.144531 L 72.65625 53.078125 C 72.722656 53.828125 72.796875 54.570313 72.871094 55.3125 Z M 71.730469 50.945313 C 71.675781 50.207031 71.625 49.46875 71.578125 48.726563 L 72.324219 48.679688 C 72.371094 49.417969 72.421875 50.15625 72.476563 50.890625 Z M 71.453125 46.484375 C 71.417969 45.734375 71.386719 44.980469 71.359375 44.226563 L 72.109375 44.199219 C 72.136719 44.953125 72.167969 45.703125 72.203125 46.449219 Z M 71.292969 41.945313 C 71.277344 41.183594 71.265625 40.417969 71.257813 39.644531 L 72.007813 39.640625 C 72.015625 40.40625 72.027344 41.167969 72.042969 41.929688 Z M 71.292969 41.945313 "
     id="path19" />
  <path
     fill-rule="nonzero"
     fill="rgb(0%, 0%, 0%)"
     fill-opacity="1"
     d="M 19.125 172.5 L 21.441406 172.496094 L 21.441406 173.246094 L 19.125 173.25 Z M 23.742188 172.484375 L 26.03125 172.464844 L 26.039063 173.214844 L 23.746094 173.234375 Z M 28.308594 172.4375 L 30.574219 172.402344 L 30.585938 173.152344 L 28.320313 173.1875 Z M 32.828125 172.363281 L 35.066406 172.3125 L 35.085938 173.0625 L 32.84375 173.113281 Z M 37.292969 172.253906 L 39.511719 172.1875 L 39.53125 172.9375 L 37.316406 173.003906 Z M 41.710938 172.117188 L 43.90625 172.035156 L 43.933594 172.785156 L 41.738281 172.863281 Z M 46.125 171.945313 L 48.433594 171.839844 L 48.46875 172.589844 L 46.15625 172.695313 Z M 50.730469 171.730469 L 53.011719 171.609375 L 53.050781 172.359375 L 50.769531 172.480469 Z M 55.277344 171.480469 L 57.535156 171.34375 L 57.582031 172.089844 L 55.324219 172.230469 Z M 59.773438 171.195313 L 62 171.039063 L 62.050781 171.789063 L 59.824219 171.945313 Z M 64.207031 170.875 L 66.40625 170.703125 L 66.464844 171.449219 L 64.269531 171.625 Z M 68.589844 170.519531 L 70.808594 170.324219 L 70.871094 171.074219 L 68.65625 171.269531 Z M 73.109375 170.113281 L 75.398438 169.890625 L 75.46875 170.636719 L 73.179688 170.859375 Z M 77.664063 169.65625 L 79.921875 169.410156 L 80.003906 170.15625 L 77.746094 170.402344 Z M 82.160156 169.160156 L 84.382813 168.894531 L 84.472656 169.640625 L 82.246094 169.902344 Z M 86.585938 168.621094 L 88.777344 168.335938 L 88.875 169.082031 L 86.683594 169.363281 Z M 90.949219 168.042969 L 93.117188 167.738281 L 93.222656 168.480469 L 91.054688 168.785156 Z M 95.410156 167.402344 L 97.6875 167.054688 L 97.800781 167.796875 L 95.523438 168.144531 Z M 99.941406 166.695313 L 102.179688 166.324219 L 102.300781 167.066406 L 100.0625 167.4375 Z M 104.394531 165.941406 L 106.597656 165.550781 L 106.730469 166.289063 L 104.527344 166.679688 Z M 108.777344 165.144531 L 110.941406 164.726563 L 111.085938 165.464844 L 108.917969 165.882813 Z M 113.085938 164.300781 L 115.285156 163.84375 L 115.4375 164.578125 L 113.238281 165.035156 Z M 117.542969 163.359375 L 119.78125 162.863281 L 119.945313 163.59375 L 117.703125 164.09375 Z M 121.992188 162.351563 L 124.191406 161.828125 L 124.363281 162.558594 L 122.167969 163.082031 Z M 126.359375 161.292969 L 128.515625 160.742188 L 128.699219 161.46875 L 126.546875 162.019531 Z M 130.640625 160.179688 L 132.753906 159.601563 L 132.953125 160.324219 L 130.839844 160.902344 Z M 134.917969 158.988281 C 135.664063 158.773438 136.402344 158.558594 137.132813 158.339844 L 137.347656 159.0625 C 136.613281 159.277344 135.871094 159.496094 135.128906 159.710938 Z M 139.320313 157.679688 C 140.046875 157.457031 140.769531 157.230469 141.484375 157.003906 L 141.710938 157.714844 C 140.992188 157.945313 140.269531 158.171875 139.542969 158.394531 Z M 143.625 156.308594 C 144.335938 156.074219 145.039063 155.839844 145.738281 155.601563 L 145.980469 156.3125 C 145.277344 156.550781 144.570313 156.789063 143.859375 157.023438 Z M 147.832031 154.878906 C 148.523438 154.636719 149.210938 154.390625 149.894531 154.140625 L 150.152344 154.847656 C 149.464844 155.09375 148.773438 155.34375 148.078125 155.585938 Z M 151.964844 153.378906 C 152.6875 153.105469 153.40625 152.832031 154.121094 152.554688 L 154.394531 153.253906 C 153.675781 153.53125 152.953125 153.808594 152.230469 154.078125 Z M 156.25 151.714844 C 156.957031 151.433594 157.65625 151.148438 158.351563 150.859375 L 158.640625 151.550781 C 157.941406 151.839844 157.238281 152.128906 156.53125 152.410156 Z M 160.421875 149.984375 C 161.109375 149.6875 161.792969 149.390625 162.46875 149.09375 L 162.773438 149.777344 C 162.09375 150.078125 161.410156 150.378906 160.71875 150.671875 Z M 164.484375 148.183594 C 165.152344 147.878906 165.8125 147.570313 166.472656 147.257813 L 166.792969 147.933594 C 166.132813 148.25 165.464844 148.558594 164.796875 148.863281 Z M 168.484375 146.289063 C 169.175781 145.949219 169.859375 145.609375 170.539063 145.265625 L 170.878906 145.933594 C 170.195313 146.28125 169.507813 146.621094 168.8125 146.960938 Z M 172.566406 144.21875 C 173.234375 143.871094 173.898438 143.515625 174.558594 143.15625 L 174.914063 143.816406 C 174.253906 144.175781 173.585938 144.53125 172.914063 144.886719 Z M 176.519531 142.074219 C 177.167969 141.710938 177.808594 141.34375 178.449219 140.972656 L 178.824219 141.621094 C 178.183594 141.992188 177.539063 142.363281 176.886719 142.726563 Z M 180.34375 139.851563 C 180.976563 139.46875 181.601563 139.089844 182.21875 138.703125 L 182.617188 139.339844 C 181.992188 139.726563 181.363281 140.113281 180.730469 140.492188 Z M 184.15625 137.472656 C 184.796875 137.0625 185.429688 136.644531 186.058594 136.222656 L 186.476563 136.847656 C 185.84375 137.269531 185.207031 137.6875 184.5625 138.105469 Z M 187.925781 134.953125 C 188.542969 134.523438 189.152344 134.09375 189.753906 133.660156 L 190.191406 134.269531 C 189.585938 134.703125 188.972656 135.136719 188.351563 135.570313 Z M 191.550781 132.34375 C 192.144531 131.902344 192.730469 131.457031 193.308594 131.007813 L 193.769531 131.601563 C 193.183594 132.050781 192.59375 132.5 192 132.945313 Z M 195.046875 129.636719 C 195.640625 129.160156 196.230469 128.679688 196.808594 128.195313 L 197.289063 128.769531 C 196.707031 129.257813 196.113281 129.742188 195.515625 130.222656 Z M 198.535156 126.726563 C 199.101563 126.234375 199.664063 125.738281 200.222656 125.234375 L 200.722656 125.792969 C 200.164063 126.296875 199.597656 126.796875 199.027344 127.292969 Z M 201.871094 123.71875 C 202.414063 123.210938 202.949219 122.699219 203.476563 122.179688 L 204.003906 122.71875 C 203.46875 123.238281 202.929688 123.753906 202.382813 124.265625 Z M 205.050781 120.617188 C 205.574219 120.085938 206.09375 119.546875 206.605469 119.007813 L 207.148438 119.523438 C 206.632813 120.066406 206.113281 120.605469 205.582031 121.144531 Z M 208.140625 117.347656 C 208.644531 116.792969 209.144531 116.230469 209.632813 115.664063 L 210.199219 116.15625 C 209.707031 116.726563 209.203125 117.292969 208.695313 117.851563 Z M 211.085938 113.957031 C 211.566406 113.382813 212.035156 112.804688 212.5 112.222656 L 213.085938 112.691406 C 212.617188 113.277344 212.144531 113.859375 211.664063 114.4375 Z M 213.871094 110.464844 C 214.324219 109.871094 214.765625 109.277344 215.203125 108.675781 L 215.8125 109.117188 C 215.371094 109.722656 214.921875 110.324219 214.46875 110.917969 Z M 216.507813 106.847656 C 216.933594 106.234375 217.355469 105.617188 217.769531 104.992188 L 218.394531 105.40625 C 217.976563 106.035156 217.554688 106.660156 217.125 107.277344 Z M 218.992188 103.113281 C 219.390625 102.480469 219.785156 101.84375 220.167969 101.203125 L 220.8125 101.59375 C 220.421875 102.238281 220.027344 102.878906 219.625 103.511719 Z M 221.304688 99.273438 C 221.679688 98.625 222.042969 97.972656 222.402344 97.3125 L 223.058594 97.671875 C 222.699219 98.335938 222.332031 98.992188 221.957031 99.644531 Z M 223.449219 95.339844 C 223.789063 94.679688 224.125 94.015625 224.453125 93.347656 L 225.125 93.679688 C 224.796875 94.351563 224.460938 95.019531 224.113281 95.6875 Z M 225.414063 91.328125 C 225.730469 90.652344 226.035156 89.972656 226.335938 89.285156 L 227.023438 89.585938 C 226.722656 90.277344 226.410156 90.964844 226.09375 91.644531 Z M 227.21875 87.214844 C 227.503906 86.523438 227.785156 85.824219 228.058594 85.121094 L 228.757813 85.394531 C 228.480469 86.101563 228.199219 86.804688 227.910156 87.503906 Z M 228.851563 83.019531 C 229.101563 82.328125 229.347656 81.628906 229.589844 80.929688 L 230.296875 81.171875 C 230.058594 81.878906 229.808594 82.578125 229.554688 83.273438 Z M 230.289063 78.816406 C 230.515625 78.109375 230.734375 77.398438 230.949219 76.679688 L 231.667969 76.894531 C 231.453125 77.617188 231.230469 78.332031 231.003906 79.046875 Z M 231.570313 74.519531 C 231.773438 73.796875 231.964844 73.066406 232.15625 72.335938 L 232.882813 72.519531 C 232.691406 73.257813 232.496094 73.992188 232.292969 74.71875 Z M 232.699219 70.125 C 232.871094 69.40625 233.035156 68.679688 233.191406 67.957031 L 233.925781 68.113281 C 233.765625 68.84375 233.601563 69.574219 233.429688 70.296875 Z M 233.640625 65.792969 C 233.785156 65.066406 233.921875 64.339844 234.054688 63.609375 L 234.792969 63.742188 C 234.660156 64.476563 234.519531 65.210938 234.375 65.9375 Z M 234.433594 61.402344 C 234.550781 60.660156 234.667969 59.917969 234.773438 59.171875 L 235.515625 59.277344 C 235.40625 60.03125 235.292969 60.777344 235.171875 61.519531 Z M 235.082031 56.917969 C 235.175781 56.164063 235.269531 55.40625 235.351563 54.644531 L 236.097656 54.726563 C 236.011719 55.492188 235.921875 56.253906 235.824219 57.015625 Z M 235.578125 52.445313 C 235.648438 51.71875 235.710938 50.984375 235.769531 50.25 L 236.515625 50.3125 C 236.457031 51.050781 236.394531 51.785156 236.324219 52.515625 Z M 235.929688 48.039063 C 235.976563 47.292969 236.019531 46.550781 236.054688 45.800781 L 236.804688 45.839844 C 236.769531 46.589844 236.726563 47.339844 236.675781 48.085938 Z M 236.152344 43.546875 C 236.179688 42.792969 236.199219 42.035156 236.214844 41.273438 L 236.964844 41.289063 C 236.949219 42.054688 236.929688 42.816406 236.902344 43.574219 Z M 236.246094 38.980469 L 236.25 37.875 L 237 37.875 L 236.996094 38.980469 Z M 236.246094 38.980469 "
     id="path21" />
  <path
     fill-rule="nonzero"
     fill="rgb(0%, 0%, 0%)"
     fill-opacity="1"
     stroke-width="10.785143"
     stroke-linecap="butt"
     stroke-linejoin="miter"
     stroke="rgb(0%, 0%, 0%)"
     stroke-opacity="0.1344"
     stroke-miterlimit="4"
     d="M 32.854052 156.954268 C 32.854052 224.36141 58.412595 288.257763 109.153821 348.994406 C 159.519185 409.731049 216.650047 440.27491 280.170544 440.977067 C 313.998028 440.977067 344.066903 424.82744 370.001307 391.826027 C 380.525413 411.837522 395.935711 422.018809 415.85634 422.018809 C 424.501142 422.018809 432.394221 419.210178 439.159718 413.943995 C 445.549354 408.677812 448.932102 402.007314 448.932102 393.9325 C 448.932102 385.506607 436.528692 332.14262 412.097731 233.840539 C 387.29091 135.889537 374.511638 80.770156 374.135777 68.131317 C 374.135777 51.279531 376.390943 40.396086 380.901274 35.129904 C 385.787466 29.512642 392.552963 26.704011 401.949486 26.001853 C 407.963261 26.704011 414.728758 29.512642 421.870115 35.129904 C 436.152831 48.4709 449.683824 80.419077 462.838957 130.974433 C 466.973427 144.315429 470.356176 151.337007 472.987202 152.039164 C 474.490646 152.741322 477.497533 153.092401 483.135447 153.092401 L 486.894057 153.092401 C 499.673328 153.092401 506.062964 149.932691 506.062964 143.964351 C 506.062964 140.102483 504.183659 130.974433 501.176772 116.931278 C 497.794024 102.888124 491.028527 84.983102 480.880282 62.865134 C 471.107897 41.098244 460.20793 24.246459 448.932102 13.011935 C 440.287301 4.234964 429.763195 -2.786613 416.983923 -8.052796 C 411.72187 -9.457112 403.828791 -10.15927 392.928824 -10.15927 C 370.377168 -10.15927 351.20826 -4.893087 336.173823 4.937121 C 320.763525 15.118408 310.61528 25.299695 306.104949 35.832061 L 300.091174 50.928452 C 299.339452 51.63061 297.836008 51.279531 295.956703 49.875216 C 294.829121 48.821979 293.325677 47.417664 291.822233 46.013348 C 252.732696 8.798989 212.515577 -10.15927 171.922596 -10.15927 C 135.464086 -10.15927 103.140046 3.181727 74.950476 29.863721 C 47.136767 56.545714 32.854052 99.026256 32.854052 156.954268 Z M 350.832399 327.929674 C 350.832399 332.14262 349.328956 339.164198 345.946207 350.047642 C 342.563459 360.580008 335.04624 372.16561 323.01869 385.155528 C 310.991141 397.794367 295.580842 404.464866 277.163657 405.167023 C 253.484418 405.167023 231.308623 394.634658 209.88455 373.921005 C 188.836338 353.207352 171.922596 326.17428 159.895046 293.172867 C 140.726139 240.159959 126.819284 185.742735 118.926205 128.86796 C 118.926205 127.112565 118.926205 123.250698 118.926205 117.984515 C 118.926205 112.718332 118.550344 108.505386 118.174483 106.047834 C 118.174483 75.855051 123.812397 55.492478 135.839947 43.906875 C 147.867496 32.672352 162.150212 26.704011 179.063954 26.001853 C 204.246636 26.001853 229.429319 36.885298 253.860279 59.003266 C 278.667101 81.121234 293.325677 97.97302 297.836008 109.909701 C 299.339452 112.718332 308.360114 148.177297 324.897995 216.988754 C 341.811737 285.800211 350.456538 322.663491 350.832399 327.929674 Z M 350.832399 327.929674 "
     transform="matrix(0.0103928, 0, 0, -0.0111264, 225.752304, 103.804932)"
     id="path23" />
  <path
     fill-rule="nonzero"
     fill="rgb(0%, 0%, 0%)"
     fill-opacity="1"
     stroke-width="15.254799"
     stroke-linecap="butt"
     stroke-linejoin="miter"
     stroke="rgb(0%, 0%, 0%)"
     stroke-opacity="0.095"
     stroke-miterlimit="4"
     d="M 120.771274 646.884601 C 120.771274 653.836658 122.366157 661.28529 125.024297 670.223649 C 127.682437 678.665432 131.403832 683.134612 137.251739 683.134612 C 137.783367 683.134612 161.706624 684.624338 209.021508 688.100367 C 256.336393 691.576395 280.791278 693.562697 281.854533 694.059273 C 289.828952 694.059273 294.081976 691.576395 294.081976 686.114065 C 294.081976 681.14831 277.069882 611.627741 244.108951 477.055783 C 210.616392 344.966702 194.135927 276.439284 194.135927 271.970105 C 206.894997 278.425586 216.464299 284.881068 222.843834 290.839974 C 238.792672 302.757786 262.1843 324.110532 291.955464 353.905061 C 322.258255 384.196166 345.118256 404.555761 362.130349 414.983847 C 388.711745 432.860564 414.229885 441.798923 438.153142 441.798923 C 457.823375 441.798923 473.772212 435.840017 484.936399 422.929054 C 496.100585 410.514667 502.48012 392.141374 503.011748 368.802326 C 503.011748 352.415335 500.885236 338.511221 496.100585 327.089985 C 491.315934 315.668748 484.936399 307.226965 476.96198 301.764635 C 468.987561 296.79888 462.076398 292.826276 456.228491 290.839974 C 449.848956 288.853672 444.001049 287.860521 438.153142 287.860521 C 424.862444 287.860521 414.229885 291.833125 406.255467 298.785182 C 397.74942 306.233814 394.028024 316.165324 394.028024 328.083136 C 394.028024 344.470127 399.344304 358.374241 409.976862 368.802326 C 420.60942 379.726987 431.241979 386.679044 441.874537 390.155072 L 457.823375 393.134525 C 449.848956 401.079733 441.874537 405.052337 433.900118 405.052337 L 430.178723 405.052337 C 408.913606 403.066035 387.648489 394.624251 366.915 380.223562 C 346.181512 365.326297 322.258255 343.973551 294.081976 316.165324 C 265.905696 287.860521 244.108951 267.500926 228.160113 255.086538 C 229.223369 254.093387 234.539649 253.100236 243.045695 252.107085 C 251.551742 250.617359 259.526161 248.631057 266.968952 246.14818 C 274.411742 243.168727 282.917789 240.685849 293.01872 238.202972 C 303.11965 235.223519 312.157325 230.754339 320.131744 223.802282 C 328.106162 217.346801 335.548953 211.387895 341.928488 205.925565 C 348.839651 200.463234 354.15593 192.021451 358.940582 180.103639 C 363.725233 168.185827 365.851745 156.764591 364.788489 146.833081 C 364.788489 135.90842 363.193605 122.004307 360.003838 106.113891 C 356.81407 90.223475 354.687558 76.815937 354.15593 65.891276 C 354.15593 39.572775 363.193605 26.165237 380.737326 26.165237 C 413.166629 26.165237 439.216398 65.891276 458.886631 144.846779 C 460.481514 150.30911 466.861049 152.791987 479.088492 152.791987 L 482.809887 152.791987 C 493.442445 152.791987 498.758725 149.812534 498.758725 143.853628 C 498.758725 140.874175 498.227097 135.90842 496.100585 129.949515 C 468.455933 36.096747 429.115467 -11.077925 378.079187 -11.077925 C 347.776395 -11.077925 323.853139 -2.139566 305.246162 15.240576 C 286.107557 32.124143 277.069882 57.449493 277.069882 90.223475 C 277.069882 102.141287 278.133138 112.569372 280.25965 121.011156 C 281.854533 129.452939 282.917789 137.894722 282.917789 144.846779 C 282.917789 159.744044 278.133138 172.158431 269.095463 183.083092 C 259.526161 193.511177 247.830347 201.456385 234.008021 205.925565 C 220.185695 210.89132 208.48988 214.367348 199.983834 216.850226 C 191.477787 219.829678 185.098252 220.822829 181.908484 219.829678 L 179.781973 219.829678 C 171.807554 192.021451 164.896391 165.206374 159.048484 138.887873 C 153.200577 113.065948 148.415926 93.699504 145.226158 80.788541 C 141.504763 68.374154 138.846623 55.959766 136.188483 44.041955 C 133.530344 32.124143 130.872204 24.178935 128.745693 20.206331 C 127.150809 16.233727 124.492669 11.764548 121.83453 6.798793 C 119.17639 2.329613 115.454995 -0.64984 111.201971 -2.139566 C 102.164297 -8.098472 93.126622 -11.077925 83.025691 -11.077925 C 71.861505 -11.077925 62.82383 -7.601897 56.975923 -1.146415 C 51.128016 5.805642 47.938249 11.267972 47.938249 16.233727 C 47.938249 22.689208 60.165691 75.822786 85.152203 176.131035 C 109.607087 275.942709 134.061972 374.264656 157.985228 471.096877 L 195.199182 616.096921 C 195.73081 624.538704 193.072671 630.001034 187.756392 631.987336 C 182.440112 633.973638 169.681042 635.463365 148.947553 636.953091 L 144.162902 636.953091 C 137.251739 636.953091 132.998716 636.953091 130.872204 636.953091 C 128.745693 636.953091 126.619181 637.946242 123.961041 639.932544 C 121.302902 641.918846 120.239646 644.401724 120.771274 646.884601 Z M 120.771274 646.884601 "
     transform="matrix(0.00734771, 0, 0, -0.00786638, 231.593076, 99.209732)"
     id="path25" />
  <path
     fill-rule="nonzero"
     fill="rgb(0%, 0%, 0%)"
     fill-opacity="1"
     stroke-width="10.785143"
     stroke-linecap="butt"
     stroke-linejoin="miter"
     stroke="rgb(0%, 0%, 0%)"
     stroke-opacity="0.1344"
     stroke-miterlimit="4"
     d="M 84.151488 519.969811 C 84.151488 525.235994 85.279071 529.800019 87.910098 532.959729 C 90.541124 536.470518 93.172151 538.225912 96.179038 538.92807 L 99.185926 539.981306 C 103.696257 539.981306 154.813343 517.16118 252.913047 471.169849 C 351.01275 424.82744 447.98487 379.187188 543.829407 333.898015 L 687.032422 265.086558 C 691.542753 261.575769 694.17378 256.660665 694.17378 249.990167 C 694.17378 243.319668 691.542753 238.404564 687.032422 234.893776 C 685.528978 233.840539 588.180997 187.498129 394.988479 95.866547 L 107.079005 -40.000973 L 101.06523 -40.000973 C 89.03768 -38.596657 83.023906 -31.926159 83.023906 -19.989478 C 83.023906 -19.28732 83.023906 -18.234083 83.023906 -16.829768 C 82.272184 -12.265743 87.158376 -6.99956 98.058343 -1.031219 C 110.837615 5.639279 160.827118 29.512642 248.026854 70.939947 C 299.895663 95.515468 343.495531 115.878042 378.074737 132.027669 L 626.142951 249.990167 L 378.074737 367.952664 C 186.009801 458.53101 88.66182 505.575578 86.030793 509.086366 C 84.527349 511.543918 84.151488 515.405786 84.151488 519.969811 Z M 84.151488 519.969811 "
     transform="matrix(0.0103928, 0, 0, -0.0111264, 238.828555, 103.804932)"
     id="path27" />
  <path
     fill-rule="nonzero"
     fill="rgb(0%, 0%, 0%)"
     fill-opacity="1"
     stroke-width="10.785143"
     stroke-linecap="butt"
     stroke-linejoin="miter"
     stroke="rgb(0%, 0%, 0%)"
     stroke-opacity="0.1344"
     stroke-miterlimit="4"
     d="M 213.067237 577.897823 L 199.912105 572.982719 C 190.515581 569.823009 177.360449 566.312221 160.070846 563.152511 C 142.781243 559.641722 123.236475 557.18417 101.812402 556.130934 L 83.019355 556.130934 L 83.019355 602.122265 L 101.812402 602.122265 C 133.38472 603.175501 162.326012 608.441684 189.012138 616.867577 C 215.698264 625.644548 234.49131 633.719362 245.015416 641.092018 C 255.539523 648.464674 264.936046 655.83733 272.829125 662.858908 C 274.332569 664.965381 278.467039 666.018617 284.856675 666.018617 C 290.87045 666.018617 296.508364 663.912144 302.146278 660.050277 L 302.146278 360.931087 L 302.898 61.109739 C 307.784192 56.194635 311.542801 53.386004 314.92555 51.981689 C 318.308298 50.577373 326.201378 49.173058 338.980649 48.119821 C 351.759921 46.715506 372.432272 46.013348 400.997703 46.013348 L 426.932107 46.013348 L 426.932107 0.0220174 L 416.03214 0.0220174 C 402.125286 2.128491 349.128894 2.830648 257.042966 2.830648 C 166.460482 2.830648 113.839951 2.128491 99.933097 0.0220174 L 87.905547 0.0220174 L 87.905547 46.013348 L 113.839951 46.013348 C 128.498528 46.013348 141.277799 46.013348 152.177766 46.013348 C 162.701872 46.013348 170.970813 46.364427 176.984588 47.066585 C 182.998363 47.768743 188.260416 48.821979 193.146608 49.875216 C 197.656939 51.279531 200.287966 51.981689 201.039687 51.981689 C 201.791409 51.981689 203.670714 53.737083 207.053462 56.896793 C 210.436211 60.407582 212.315515 61.811897 213.067237 61.109739 Z M 213.067237 577.897823 "
     transform="matrix(0.0103928, 0, 0, -0.0111264, 249.801258, 103.804932)"
     id="path29" />
  <path
     fill-rule="nonzero"
     fill="rgb(0%, 0%, 0%)"
     fill-opacity="1"
     stroke-width="11.265144"
     stroke-linecap="butt"
     stroke-linejoin="miter"
     stroke="rgb(0%, 0%, 0%)"
     stroke-opacity="0.1331"
     stroke-miterlimit="4"
     d="M 96.010133 585.033661 C 133.444562 638.939134 184.458147 666.075223 249.050887 666.075223 C 280.980253 666.075223 312.909619 657.274329 344.838985 640.039246 C 377.135355 622.804162 402.825649 592.001035 423.01088 547.996566 C 447.600162 492.624277 460.078305 416.716569 460.078305 319.906739 C 460.078305 216.496238 445.765141 137.654899 417.138813 83.016018 C 403.559657 55.146521 385.209447 32.777583 362.088182 15.909203 C 338.599913 -0.592472 318.414682 -10.860181 301.165484 -14.893924 C 283.549282 -18.927667 266.667089 -21.494595 250.151899 -21.861299 C 232.535698 -21.861299 215.2865 -20.027779 198.037302 -15.994036 C 180.788105 -11.960293 160.235869 -1.32588 137.114604 15.909203 C 113.626335 33.510991 95.276125 55.513225 82.063973 83.016018 C 53.437645 137.654899 39.124481 216.496238 39.124481 319.906739 C 39.124481 436.151876 57.841696 524.160813 96.010133 585.033661 Z M 320.983711 597.134889 C 301.165484 618.403716 277.310211 629.038129 250.151899 629.038129 C 221.892576 629.038129 198.037302 618.403716 177.852071 597.134889 C 161.336882 579.533102 150.326755 555.697348 144.821692 524.89422 C 139.683634 494.457797 137.114604 430.284614 137.114604 333.108079 C 137.114604 227.497355 139.683634 158.190318 144.821692 124.820263 C 150.326755 91.816911 162.437894 65.41423 181.155109 45.978923 C 199.505319 26.176913 222.626584 15.909203 250.151899 15.909203 C 276.576202 15.909203 299.330463 26.176913 318.047677 45.978923 C 337.4989 66.147638 349.243035 94.017135 354.01409 129.954117 C 358.785144 165.8911 361.354174 233.731322 362.088182 333.108079 C 362.088182 429.551206 359.152149 493.357685 354.01409 524.160813 C 348.509027 554.597237 337.4989 579.166398 320.983711 597.134889 Z M 320.983711 597.134889 "
     transform="matrix(0.0106436, 0, 0, -0.0106523, 16.501543, 103.376501)"
     id="path31" />
  <path
     fill-rule="nonzero"
     fill="rgb(0%, 0%, 0%)"
     fill-opacity="1"
     stroke-width="11.265144"
     stroke-linecap="butt"
     stroke-linejoin="miter"
     stroke="rgb(0%, 0%, 0%)"
     stroke-opacity="0.1331"
     stroke-miterlimit="4"
     d="M 694.109075 -10.860181 C 694.109075 -10.860181 694.109075 -13.793813 694.109075 -18.927667 C 694.109075 -24.428226 691.90705 -28.828673 687.870003 -32.862416 C 683.832957 -36.896159 680.529919 -39.463086 677.96089 -39.82979 C 673.189835 -39.82979 622.176251 -17.094148 523.819123 29.110544 C 425.829001 74.948532 329.306894 120.78652 233.885801 165.8911 L 90.020152 234.831433 C 85.249098 238.498472 83.047072 243.265623 83.047072 249.866293 C 83.047072 257.200371 85.616102 262.70093 91.121165 266.001265 C 473.172543 448.619809 668.785785 539.92908 677.96089 539.92908 C 680.162915 539.92908 683.098949 538.095561 687.135995 534.061818 C 691.173041 530.028075 693.375066 524.89422 694.109075 519.026958 C 694.843083 513.159696 692.274054 508.392545 687.135995 505.09221 C 686.401987 504.358802 596.485956 461.454445 417.0209 376.012436 L 150.94285 249.866293 L 417.0209 124.086855 C 596.485956 38.644845 686.401987 -4.259511 687.135995 -4.992919 C 691.540045 -9.026662 694.109075 -13.793813 694.109075 -18.927667 Z M 694.109075 -10.860181 "
     transform="matrix(0.0106436, 0, 0, -0.0106523, 24.780142, 103.376501)"
     id="path33" />
  <path
     fill-rule="nonzero"
     fill="rgb(0%, 0%, 0%)"
     fill-opacity="1"
     stroke-width="11.265144"
     stroke-linecap="butt"
     stroke-linejoin="miter"
     stroke="rgb(0%, 0%, 0%)"
     stroke-opacity="0.1331"
     stroke-miterlimit="4"
     d="M 32.838408 157.090206 C 32.838408 224.19702 58.161698 288.370203 109.175283 348.876347 C 159.821863 409.749195 216.707515 440.185619 279.832238 440.919027 C 313.96363 440.919027 344.057974 424.784055 370.115273 392.147408 C 380.758395 411.949418 396.172572 421.850424 415.990799 421.850424 C 424.7989 421.850424 432.505988 419.283496 439.112064 414.149642 C 445.718139 408.649083 449.021177 402.048413 449.021177 393.980927 C 449.021177 385.180034 436.543034 332.007968 411.953753 234.098026 C 387.364471 135.82138 374.519324 80.815794 374.152319 67.981158 C 374.152319 51.479482 376.354345 40.478365 381.125399 34.977806 C 385.52945 29.843952 392.50253 26.543617 402.044639 26.176913 C 407.916706 26.543617 414.522782 29.843952 421.862866 34.977806 C 436.17603 48.179147 449.755186 80.44909 462.967337 131.054229 C 467.004383 144.255569 470.307421 151.222944 472.876451 151.956351 C 474.344468 152.689759 477.647505 153.056463 483.152568 153.056463 L 486.822611 153.056463 C 499.667758 153.056463 505.906829 150.122832 505.906829 143.888866 C 505.906829 139.855123 504.438812 131.054229 501.135775 117.119481 C 497.832737 102.818028 490.859657 84.849537 480.950543 62.847303 C 471.04143 40.845069 460.398308 24.343393 449.021177 12.975572 C 440.213076 4.174679 429.569954 -2.792696 417.091811 -7.92655 C 411.586748 -9.393366 403.512656 -10.126774 392.869534 -10.126774 C 370.482277 -10.126774 351.398059 -4.992919 335.983882 4.908086 C 320.569705 15.175796 310.660592 25.443505 305.889537 36.077918 L 300.01747 51.112778 C 299.283461 51.846186 298.182449 51.479482 295.980424 50.012666 C 294.512407 48.545851 293.411394 47.445739 291.943377 45.978923 C 252.673927 8.575125 212.670469 -10.126774 171.933002 -10.126774 C 135.232581 -10.126774 102.936211 3.441271 75.043892 29.843952 C 47.151572 56.613337 32.838408 99.150989 32.838408 157.090206 Z M 351.031054 327.974225 C 351.031054 332.007968 349.196033 339.342046 345.892996 349.976459 C 342.589958 360.610872 334.882869 372.345397 323.138735 385.180034 C 311.027596 397.647966 295.613419 404.248636 276.896205 404.982044 C 253.77494 404.982044 231.387683 394.714335 210.101439 374.178916 C 188.815195 353.276794 171.933002 326.507409 159.821863 293.137354 C 140.737645 240.331992 127.158489 185.69311 119.084396 128.854006 C 119.084396 127.020486 119.084396 123.353447 119.084396 117.852888 C 119.084396 112.719034 118.717392 108.685291 117.983384 106.118364 C 117.983384 76.048644 123.855451 55.513225 135.96659 44.145404 C 148.077729 32.777583 162.390893 26.543617 178.906082 26.176913 C 204.229372 26.176913 229.185658 37.17803 254.141944 59.180264 C 278.731226 81.182498 293.411394 98.050878 298.182449 110.152106 C 299.283461 112.719034 308.458567 148.289312 324.973756 216.862942 C 341.488945 285.803276 350.297046 322.84037 351.031054 327.974225 Z M 351.031054 327.974225 "
     transform="matrix(0.0106436, 0, 0, -0.0106523, 36.017668, 103.376501)"
     id="path35" />
  <path
     fill-rule="nonzero"
     fill="rgb(0%, 0%, 0%)"
     fill-opacity="1"
     stroke-width="15.933725"
     stroke-linecap="butt"
     stroke-linejoin="miter"
     stroke="rgb(0%, 0%, 0%)"
     stroke-opacity="0.0941"
     stroke-miterlimit="4"
     d="M 121.033293 646.859301 C 121.033293 653.602088 122.590595 661.382228 125.186099 670.199719 C 127.781602 678.498534 131.415307 683.166617 137.125414 683.166617 C 137.644515 683.166617 161.523146 684.722645 208.761307 687.834701 C 256.518569 691.465432 280.9163 693.540136 281.954502 694.058812 C 289.741012 694.058812 293.893817 691.465432 293.893817 685.759997 C 293.893817 681.091913 277.282596 611.589337 244.060153 477.252267 C 210.83771 344.989901 194.226488 276.524676 194.226488 271.856593 C 206.684904 278.59938 216.547817 284.823491 222.777025 291.047603 C 238.869146 302.977149 262.228676 324.242863 291.817414 353.807392 C 321.925253 383.890597 345.284784 404.118959 361.896005 415.011154 C 388.88924 433.164812 413.806072 441.982303 438.203804 441.982303 C 457.929629 441.982303 473.502649 435.758191 484.922864 422.791293 C 496.343079 410.34307 502.572287 392.189412 503.091388 368.848994 C 503.091388 352.251364 500.495884 338.247114 495.823978 326.836243 C 491.152072 315.425372 484.922864 307.126557 477.136354 301.939797 C 468.830743 296.753038 462.082435 293.122306 455.853227 291.047603 C 450.143119 288.972899 443.913911 287.935547 438.203804 287.935547 C 424.707186 287.935547 413.806072 291.566279 406.019562 298.827742 C 398.233052 306.089205 394.080247 315.944048 394.080247 327.873595 C 394.080247 344.471225 399.271253 358.475475 410.172368 368.848994 C 420.554381 379.741189 431.455495 386.483977 441.837508 390.114708 L 457.929629 393.226764 C 450.143119 401.006903 441.837508 405.156311 434.050998 405.156311 L 429.898193 405.156311 C 408.615065 403.081607 387.851039 394.782792 367.087012 379.741189 C 346.322985 365.218263 321.925253 343.952549 293.893817 315.944048 C 265.862381 287.935547 244.060153 267.707185 227.968032 255.258962 C 229.525334 254.22161 234.19724 253.184259 243.021951 252.146907 C 251.846663 250.590879 259.633173 248.516175 266.900582 245.922795 C 274.167992 243.329416 282.992703 240.736036 292.855616 238.142656 C 303.237629 235.549276 312.062341 230.881193 319.848851 224.138406 C 328.154461 217.395618 335.421871 211.171507 342.17018 205.984748 C 348.918488 200.797988 354.109495 191.980497 358.781401 180.05095 C 363.453307 168.121404 365.52971 157.229209 365.010609 146.85569 C 365.010609 135.444819 363.453307 121.959244 359.819602 105.88029 C 356.704998 89.801336 354.628596 76.834437 354.109495 65.942242 C 354.109495 39.489769 362.934206 26.004195 381.10273 26.004195 C 412.767871 26.004195 439.242005 65.423566 458.967831 144.780986 C 460.525133 150.486421 466.754341 153.079801 479.212757 153.079801 L 482.846462 153.079801 C 493.747576 153.079801 498.938582 149.967745 498.938582 143.743634 C 498.938582 140.631578 497.900381 135.963495 495.823978 130.25806 C 468.830743 35.859038 429.379092 -10.821798 377.988126 -10.821798 C 347.880287 -10.821798 323.482555 -2.522982 304.794931 15.112 C 286.107307 32.228306 276.763495 57.124751 276.763495 89.801336 C 276.763495 102.249559 277.801696 112.104401 279.878099 120.921893 C 281.954502 129.739384 282.992703 137.519523 282.992703 144.780986 C 282.992703 159.822588 278.320797 172.270811 268.976985 183.163006 C 259.633173 193.536525 248.212958 201.316664 234.19724 205.984748 C 220.181522 210.652831 208.761307 214.283563 199.936595 216.876942 C 191.111884 219.470322 185.401777 220.507674 181.768072 219.988998 L 180.21077 219.988998 C 171.905159 191.980497 165.15685 165.009348 158.927642 139.075551 C 153.217535 113.141753 148.545629 93.432067 144.911924 80.983845 C 141.79732 68.535622 138.682716 56.087399 136.087213 44.157853 C 133.491709 32.228306 130.896206 23.929491 128.819803 19.780083 C 126.743401 16.149352 124.666998 11.481268 122.071495 6.813185 C 119.475991 2.145101 115.842287 -0.448279 111.170381 -2.004306 C 102.345669 -8.228418 93.001857 -10.821798 83.138944 -10.821798 C 71.71873 -10.821798 62.894018 -7.709742 57.183911 -0.966955 C 50.954703 5.775833 47.840099 11.481268 47.840099 16.149352 C 47.840099 22.892139 60.298515 75.797085 85.215347 175.901543 C 109.613079 276.006 134.01081 374.55443 157.889441 471.028156 L 194.745589 616.25742 C 195.78379 624.556235 193.188287 629.742995 187.99728 631.817699 C 182.806273 633.892402 169.828756 635.44843 149.06473 637.004458 L 143.873723 637.004458 C 137.125414 637.004458 132.972609 637.004458 130.896206 637.004458 C 128.819803 637.004458 126.743401 638.04181 124.147897 640.116514 C 121.552394 642.191218 120.514193 644.265921 121.033293 646.859301 Z M 121.033293 646.859301 "
     transform="matrix(0.00752503, 0, 0, -0.0075312, 41.999377, 98.977093)"
     id="path37" />
  <path
     fill-rule="nonzero"
     fill="rgb(0%, 0%, 0%)"
     fill-opacity="1"
     stroke-width="11.265144"
     stroke-linecap="butt"
     stroke-linejoin="miter"
     stroke="rgb(0%, 0%, 0%)"
     stroke-opacity="0.1331"
     stroke-miterlimit="4"
     d="M 694.170452 -10.860181 C 694.170452 -10.860181 694.170452 -13.793813 694.170452 -18.927667 C 694.170452 -24.428226 691.968427 -28.828673 687.931381 -32.862416 C 683.894334 -36.896159 680.591297 -39.463086 678.022267 -39.82979 C 673.251212 -39.82979 621.870624 -17.094148 523.880501 29.110544 C 425.890378 74.948532 329.368272 120.78652 233.947178 165.8911 L 90.08153 234.831433 C 85.310475 238.498472 83.10845 243.265623 83.10845 249.866293 C 83.10845 257.200371 85.677479 262.70093 91.182542 266.001265 C 472.866916 448.619809 668.847162 539.92908 678.022267 539.92908 C 679.857288 539.92908 683.160326 538.095561 686.830368 534.061818 C 690.867414 530.028075 693.436444 524.89422 694.170452 519.026958 C 694.537456 513.159696 692.335431 508.392545 686.830368 505.09221 C 686.463364 504.358802 596.180329 461.454445 417.082277 376.012436 L 151.004228 249.866293 L 417.082277 124.086855 C 596.180329 38.644845 686.463364 -4.259511 686.830368 -4.992919 C 691.601423 -9.026662 694.170452 -13.793813 694.170452 -18.927667 Z M 694.170452 -10.860181 "
     transform="matrix(0.0106436, 0, 0, -0.0106523, 49.408395, 103.376501)"
     id="path39" />
  <path
     fill-rule="nonzero"
     fill="rgb(0%, 0%, 0%)"
     fill-opacity="1"
     stroke-width="11.265144"
     stroke-linecap="butt"
     stroke-linejoin="miter"
     stroke="rgb(0%, 0%, 0%)"
     stroke-opacity="0.1331"
     stroke-miterlimit="4"
     d="M 55.998839 347.042828 C 55.998839 355.843721 60.769893 362.444392 69.944998 366.844838 L 707.0643 366.844838 C 716.973413 361.710984 722.111472 355.110313 722.111472 347.042828 C 722.111472 339.70875 717.340417 333.474783 708.165312 327.974225 L 389.972666 326.874113 L 72.147024 326.874113 C 61.503902 330.174448 55.998839 337.141822 55.998839 347.042828 Z M 55.998839 153.056463 C 55.998839 162.957468 61.503902 169.558139 72.147024 172.858474 L 708.165312 172.858474 C 717.340417 166.257804 722.111472 159.657133 722.111472 153.056463 C 722.111472 144.255569 716.973413 137.654899 707.0643 132.887748 L 69.944998 132.887748 C 60.769893 137.654899 55.998839 144.255569 55.998839 153.056463 Z M 55.998839 153.056463 "
     transform="matrix(0.0106436, 0, 0, -0.0106523, 57.689126, 103.376501)"
     id="path41" />
  <path
     fill-rule="nonzero"
     fill="rgb(0%, 0%, 0%)"
     fill-opacity="1"
     stroke-width="11.265144"
     stroke-linecap="butt"
     stroke-linejoin="miter"
     stroke="rgb(0%, 0%, 0%)"
     stroke-opacity="0.1331"
     stroke-miterlimit="4"
     d="M 213.147528 578.066286 L 199.935377 572.932432 C 190.760271 569.632097 177.181116 566.331761 159.931918 563.031426 C 142.68272 559.731091 123.231498 557.164164 101.945254 556.064052 L 82.861035 556.064052 L 82.861035 601.90204 L 101.945254 601.90204 C 133.507615 603.368856 162.500948 608.50271 188.92525 616.9369 C 215.716557 625.737794 234.433772 633.80528 245.076894 641.139358 C 255.720016 648.473436 264.895121 655.807514 272.969213 663.141592 C 274.43723 664.975111 278.474277 666.075223 285.080352 666.075223 C 290.95242 666.075223 296.824487 663.875 301.962546 659.841257 L 301.962546 360.977576 L 303.063558 61.013784 C 307.834613 56.246633 311.504655 53.313002 315.174697 51.846186 C 318.477735 50.746074 326.184823 49.279259 339.02997 48.179147 C 351.508113 46.712331 372.427353 45.978923 401.053681 45.978923 L 427.11098 45.978923 L 427.11098 0.140936 L 416.100854 0.140936 C 402.154694 1.974455 348.939084 3.074567 256.821028 3.074567 C 166.17099 3.074567 114.056392 1.974455 100.110233 0.140936 L 87.999094 0.140936 L 87.999094 45.978923 L 114.056392 45.978923 C 128.736561 45.978923 141.214704 45.978923 151.857826 45.978923 C 162.500948 45.978923 170.942044 46.345627 177.181116 47.079035 C 183.053183 47.812443 188.191242 48.545851 192.962297 50.012666 C 197.733351 51.479482 200.302381 51.846186 201.036389 51.846186 C 201.770398 51.846186 203.605419 53.679705 206.908456 56.980041 C 210.211494 60.280376 212.413519 61.747191 213.147528 61.013784 Z M 213.147528 578.066286 "
     transform="matrix(0.0106436, 0, 0, -0.0106523, 68.926653, 103.376501)"
     id="path43" />
  <path
     fill-rule="nonzero"
     fill="rgb(0%, 0%, 0%)"
     fill-opacity="1"
     stroke-width="11.162144"
     stroke-linecap="butt"
     stroke-linejoin="miter"
     stroke="rgb(0%, 0%, 0%)"
     stroke-opacity="0.1332"
     stroke-miterlimit="4"
     d="M 120.965177 647.047331 C 120.965177 653.702018 122.418581 661.46582 124.962038 669.969031 C 127.505495 678.841948 131.502357 682.908701 136.952622 682.908701 C 137.679324 682.908701 161.660492 684.757225 208.896126 688.084569 C 256.495111 691.411912 280.83963 693.260437 281.929683 693.999846 C 289.923406 693.999846 293.920267 691.411912 293.920267 685.86634 C 293.920267 681.429882 277.20612 611.555666 244.141176 476.983104 C 210.712881 344.998475 193.998734 276.60308 193.998734 272.166622 C 206.71602 278.821309 216.163147 285.106291 223.066816 291.021569 C 239.054262 302.852123 261.945377 323.925299 292.103512 353.871392 C 321.898297 383.817484 345.152763 404.15125 361.86691 414.872691 C 388.754886 432.988228 413.826107 441.861144 438.170626 441.861144 C 458.154933 441.861144 473.779027 435.576162 485.042909 423.006197 C 496.306791 410.436232 502.483759 392.320695 502.84711 369.02929 C 502.84711 352.392572 500.667004 338.343788 495.94344 326.882938 C 491.219877 315.791793 485.042909 307.288582 477.049187 302.112714 C 469.055464 296.567141 462.151794 292.870093 455.974827 291.021569 C 450.16121 289.173044 443.984243 288.06393 438.170626 288.06393 C 424.726638 288.06393 413.826107 291.760978 405.832385 299.155075 C 397.838662 306.179467 393.841801 316.161498 393.841801 327.992053 C 393.841801 344.628771 399.292066 358.30785 409.829246 369.02929 C 420.729777 379.750731 431.266957 386.775123 442.167488 390.102466 L 458.154933 393.060105 C 450.16121 400.823907 442.167488 404.89066 434.173765 404.89066 L 430.176904 404.89066 C 408.739193 403.042136 387.664833 394.538924 366.953825 380.120435 C 346.242816 365.332242 321.898297 343.889361 293.920267 316.161498 C 265.942238 288.06393 244.141176 267.730164 228.153731 255.160199 C 229.243784 254.420789 234.330698 253.311675 243.051123 251.832855 C 251.771548 250.723741 259.765271 248.505512 267.032291 245.917578 C 274.299312 243.329644 283.019736 240.74171 292.830214 238.153776 C 303.004043 235.196137 312.087819 230.759679 320.081542 224.104992 C 328.075264 217.450305 335.342285 211.165323 341.882603 205.989455 C 348.786273 200.813587 354.236538 191.940671 358.960102 180.110116 C 363.683665 167.909856 365.50042 156.818711 365.137069 146.83668 C 365.137069 135.745535 363.320314 122.066456 360.050155 106.169148 C 356.779996 89.902135 354.599889 76.59276 353.873187 65.87132 C 353.873187 39.252571 362.956963 25.943197 381.124515 25.943197 C 413.099405 25.943197 438.897329 65.501615 458.881635 144.988156 C 460.335039 150.164024 466.875358 153.121663 478.865942 153.121663 L 482.862803 153.121663 C 493.763334 153.121663 498.850249 150.164024 498.850249 143.879041 C 498.850249 140.551698 498.123546 136.11524 495.94344 129.830257 C 468.692113 35.925228 429.450202 -11.027287 377.854355 -11.027287 C 348.059571 -11.027287 323.715052 -2.154371 304.820798 14.852052 C 286.289896 32.228179 276.842769 57.368108 276.842769 89.902135 C 276.842769 102.102394 277.932822 112.45413 280.112928 120.957341 C 281.929683 129.830257 283.019736 137.594059 283.019736 144.988156 C 283.019736 159.77635 278.296173 172.346314 268.849046 183.067755 C 259.765271 193.789195 248.138038 201.183292 233.967347 205.989455 C 220.160008 210.795618 208.532775 214.492666 200.175702 217.0806 C 191.455277 219.668534 185.278309 220.777649 182.00815 220.038239 L 179.828044 220.038239 C 171.834321 191.940671 164.930652 164.952217 159.117035 139.072879 C 152.940068 112.823835 148.216504 93.599183 144.946345 81.029218 C 141.676186 68.459254 138.769377 55.889289 135.862569 44.058734 C 133.319112 31.858474 131.139006 24.094673 128.9589 20.027919 C 127.142144 15.961166 124.598687 11.524708 122.05523 7.08825 C 119.511773 2.282087 115.514911 -0.675552 111.154699 -2.154371 C 102.434274 -8.069649 92.987148 -11.027287 83.17667 -11.027287 C 71.549437 -11.027287 62.829012 -7.699944 57.015396 -1.045257 C 50.838428 5.609431 47.93162 11.155003 47.93162 15.961166 C 47.93162 22.615853 60.285555 75.853351 84.993425 176.043363 C 109.701295 275.86367 134.045814 374.205158 158.026982 471.067827 L 195.088787 615.992125 C 195.815489 624.495336 193.272032 630.040909 187.821767 631.889433 C 182.734852 634.107662 169.654215 635.586481 148.943206 637.065301 L 143.856292 637.065301 C 137.315973 637.065301 132.955761 637.065301 131.139006 637.065301 C 128.9589 637.065301 126.778793 638.174415 123.871985 640.022939 C 121.328528 641.871464 120.238475 644.459397 120.965177 647.047331 Z M 120.965177 647.047331 "
     transform="matrix(0.0107506, 0, 0, -0.0105659, 276.754236, 37.332706)"
     id="path45" />
  <path
     fill-rule="nonzero"
     fill="rgb(0%, 0%, 0%)"
     fill-opacity="1"
     stroke-width="11.162144"
     stroke-linecap="butt"
     stroke-linejoin="miter"
     stroke="rgb(0%, 0%, 0%)"
     stroke-opacity="0.1332"
     stroke-miterlimit="4"
     d="M 117.011953 58.846928 C 117.011953 37.034342 125.369027 25.943197 142.083174 25.943197 C 166.791045 25.943197 187.502053 61.065157 204.942903 130.939372 C 208.939764 144.248746 212.209923 151.273138 215.116732 152.012548 C 216.206785 152.751958 219.840295 153.121663 224.927209 153.121663 L 228.924071 153.121663 C 235.101038 153.121663 239.0979 153.121663 240.914655 153.121663 C 243.094761 153.121663 244.548165 152.382253 246.001569 150.903433 C 247.454973 149.794319 248.181675 147.206385 248.181675 143.879041 C 247.454973 140.181993 246.36492 134.63642 244.911516 127.981733 C 243.821463 121.327046 239.824602 108.757081 234.010985 89.902135 C 227.834018 71.416892 221.293699 55.519584 214.026678 42.94962 C 206.759658 30.379655 196.222478 18.179395 183.141841 5.979135 C 169.697853 -5.851419 154.437109 -11.766697 136.99626 -11.027287 C 113.015092 -11.027287 90.487328 -3.63319 70.13967 11.155003 C 49.428662 25.573492 38.528131 50.343716 38.16478 85.095972 C 38.16478 92.859773 38.16478 98.775051 38.891482 102.102394 L 103.931316 360.156374 C 146.080036 529.850896 167.154396 617.840649 167.154396 623.016517 C 167.154396 624.865041 166.791045 626.713565 166.064342 627.82268 C 165.33764 629.301499 163.884236 630.780318 162.067481 631.889433 C 159.887375 633.368252 158.433971 634.107662 156.980567 634.107662 C 155.527163 634.107662 152.983705 634.477367 148.986844 634.847072 C 144.989983 635.586481 142.446525 635.956186 140.993121 635.956186 C 139.539717 635.956186 136.632909 636.325891 131.909346 637.065301 C 127.185782 637.80471 123.915623 637.80471 122.098868 637.065301 C 115.195198 637.065301 110.834986 637.065301 109.018231 637.065301 C 106.838125 637.065301 104.294667 637.435005 101.024508 638.174415 C 97.754349 638.54412 95.574243 639.653234 94.84754 641.132054 C 94.484189 642.241168 94.120838 644.459397 94.120838 647.047331 C 94.120838 648.156446 94.84754 652.962609 95.937594 661.096115 C 99.207753 673.66608 102.841263 680.690472 106.838125 682.169291 C 110.834986 683.278406 135.179505 685.496635 179.14498 688.084569 C 188.955457 688.823978 200.219339 689.193683 212.936625 689.933093 C 225.653911 690.672503 235.82774 691.781617 243.094761 692.890732 C 250.361782 694.369551 253.995292 694.739256 253.995292 693.999846 C 261.989014 693.999846 265.985876 691.411912 265.985876 685.86634 C 265.985876 678.841948 241.641357 578.651936 192.952319 386.035713 C 144.263281 193.41949 119.19206 92.490068 118.102006 82.877743 C 118.102006 81.768628 118.102006 79.180694 118.102006 75.113941 C 118.102006 71.047188 117.738655 67.719844 117.011953 65.13191 Z M 117.011953 58.846928 "
     transform="matrix(0.0107506, 0, 0, -0.0105659, 282.35533, 37.332706)"
     id="path47" />
  <path
     fill-rule="nonzero"
     fill="rgb(0%, 0%, 0%)"
     fill-opacity="1"
     stroke-width="15.788039"
     stroke-linecap="butt"
     stroke-linejoin="miter"
     stroke="rgb(0%, 0%, 0%)"
     stroke-opacity="0.0942"
     stroke-miterlimit="4"
     d="M 21.107379 287.031711 C 21.621313 291.215076 22.64918 296.444282 24.190981 303.24225 C 25.218848 309.517297 29.330316 322.590311 36.011453 340.892532 C 42.692589 359.717673 49.373725 375.40529 56.054861 387.955384 C 62.735997 400.505479 73.528602 413.055573 87.918742 425.082746 C 102.822815 437.10992 117.212954 442.862046 132.117027 441.816205 C 146.507167 441.293284 160.897306 439.201602 174.773512 435.018237 C 189.163652 430.834873 198.928389 425.082746 205.095592 417.238937 C 210.748861 408.872208 216.40213 401.55132 221.027532 394.753352 C 225.652934 388.478305 228.222602 382.203258 229.250469 375.928211 L 230.79227 369.130243 C 230.79227 367.561482 231.306203 367.038561 231.820137 367.038561 L 243.126675 378.019893 C 283.213492 420.899381 329.981446 441.816205 383.944469 441.816205 C 395.251007 441.816205 405.529678 441.293284 414.780482 440.247443 C 424.54522 438.678681 432.768157 436.586999 440.991093 432.926555 C 449.21403 429.789031 455.381233 426.128587 460.006635 422.991064 C 464.632037 419.85354 469.771373 415.670176 474.910708 410.96389 C 480.563977 406.257605 483.647578 402.07424 485.189379 397.890876 C 486.217246 394.230432 488.786914 389.524146 492.898382 384.817861 C 497.009851 380.111576 498.551652 376.451132 497.009851 372.790687 C 495.46805 369.653164 496.495917 366.51564 500.093452 363.901038 C 503.177054 361.286435 504.204921 359.194752 502.149186 357.10307 L 509.85819 367.038561 C 552.000741 417.238937 601.852296 441.816205 658.898921 441.816205 C 694.874269 441.816205 724.168482 432.926555 745.753691 415.147255 C 767.852834 396.845034 779.159372 370.699005 780.187239 336.186246 C 780.187239 302.196408 767.338901 249.381429 742.156156 177.741309 C 716.459479 106.624109 704.125073 63.744621 704.125073 50.148686 C 704.639007 40.736115 706.180808 34.461068 708.750475 30.800624 C 711.834077 27.663101 716.459479 26.094339 724.168482 26.094339 C 742.67009 26.094339 760.143831 36.02983 776.075771 55.900812 C 792.007711 75.771794 804.85605 103.486586 815.134721 137.999344 C 817.190455 145.320232 819.24619 149.503597 820.78799 151.072359 C 822.843724 152.1182 828.496994 153.164041 837.233864 153.164041 C 850.082203 153.164041 856.763339 150.549438 856.763339 144.797312 C 856.763339 144.274391 855.735472 139.568106 853.165804 130.155535 C 847.512535 110.807474 840.317465 91.459412 831.066661 73.157192 C 821.815857 54.33205 806.397851 35.506909 784.812641 17.204689 C 763.741366 -1.620452 740.614356 -10.510102 715.945545 -9.987182 C 684.595598 -9.987182 661.982522 -1.097532 648.106316 17.204689 C 634.23011 34.983989 627.03504 53.80913 627.03504 73.157192 C 627.03504 85.707286 638.855512 125.44925 663.010389 192.906006 C 687.165266 260.362761 699.499671 311.086058 700.013605 345.075896 C 700.013605 384.29494 685.109532 404.165923 655.815319 404.165923 L 651.189917 404.165923 C 593.629359 404.165923 545.319605 370.176085 505.746721 303.24225 L 499.065585 291.215076 L 466.173838 156.824485 C 444.074695 69.496747 431.226356 22.433895 428.142755 16.158848 C 419.405884 -2.143373 405.015745 -11.033023 384.972336 -11.033023 C 376.235466 -11.033023 369.554329 -8.41842 363.90106 -4.235055 C 358.761725 0.47123 355.16419 4.654595 353.108456 7.792118 C 351.052721 11.452562 350.024854 14.590086 350.024854 18.25053 C 350.024854 25.571418 361.331393 73.157192 383.944469 161.00785 L 419.919818 306.902694 C 421.975552 316.838185 423.003419 329.911199 423.003419 345.075896 C 423.003419 384.29494 408.099346 404.165923 378.805133 404.165923 L 374.179731 404.165923 C 316.619173 404.165923 268.309419 370.176085 229.250469 303.24225 L 222.055399 291.215076 L 189.163652 156.824485 C 167.064509 69.496747 154.21617 22.433895 151.132569 16.158848 C 142.395698 -2.143373 128.005559 -11.033023 107.96215 -11.033023 C 99.22528 -11.033023 92.544144 -8.94134 86.890874 -4.757976 C 81.751539 -1.097532 78.154004 3.085833 76.09827 6.746277 C 74.042536 10.929642 73.528602 14.590086 74.042536 17.204689 C 74.042536 25.571418 86.890874 80.47808 112.073619 180.878832 C 137.770296 283.894188 151.132569 337.232088 151.132569 341.938373 C 153.188303 351.873864 154.21617 360.763514 154.21617 369.130243 C 154.21617 393.18459 145.4793 405.211764 129.033426 405.211764 C 114.129353 405.211764 101.794947 395.799193 92.03021 376.974052 C 81.751539 358.148911 74.556469 337.755008 68.9032 315.792344 C 63.763864 293.829679 59.652396 281.802505 57.082728 280.233744 C 55.540928 278.664982 50.401592 278.142061 41.150788 278.142061 L 26.760649 278.142061 C 23.163114 281.802505 21.107379 284.940029 21.107379 287.031711 Z M 21.107379 287.031711 "
     transform="matrix(0.00760069, 0, 0, -0.00747006, 285.913788, 38.917583)"
     id="path49" />
  <path
     fill-rule="nonzero"
     fill="rgb(0%, 0%, 0%)"
     fill-opacity="1"
     stroke-width="15.788039"
     stroke-linecap="butt"
     stroke-linejoin="miter"
     stroke="rgb(0%, 0%, 0%)"
     stroke-opacity="0.0942"
     stroke-miterlimit="4"
     d="M 33.239077 156.824485 C 33.239077 224.281241 58.421821 288.077553 108.787309 349.259261 C 159.666731 409.918049 216.713356 440.247443 279.927183 440.770364 C 313.846797 440.770364 344.168877 424.559826 369.865555 392.138749 C 380.658159 412.009731 396.076166 421.945223 416.119575 421.945223 C 424.856445 421.945223 432.565448 419.33062 439.246585 414.101414 C 445.413787 408.872208 449.011322 402.07424 449.011322 394.230432 C 449.011322 385.340782 436.676917 332.002882 412.008106 234.216732 C 387.339296 135.907662 374.490957 80.47808 373.977023 67.927986 C 373.977023 51.194527 376.546691 40.213195 381.172093 34.983989 C 385.797495 29.754783 392.478631 26.617259 402.243369 26.094339 C 407.896638 26.617259 414.577774 29.754783 421.772844 34.983989 C 436.162983 48.579924 449.525256 80.47808 462.887528 131.201377 C 466.998997 144.274391 470.082598 151.072359 473.166199 152.1182 C 474.194066 152.641121 477.791601 153.164041 482.930937 153.164041 L 487.042405 153.164041 C 499.890744 153.164041 506.057947 150.026518 506.057947 143.751471 C 506.057947 140.091027 504.516146 131.201377 500.918611 117.082521 C 497.83501 102.963665 491.153874 85.184365 480.875203 63.2217 C 471.110465 41.259036 460.31786 24.525577 449.011322 13.021324 C 440.274452 4.131674 429.481847 -2.666293 417.147442 -7.895499 C 411.494173 -9.464261 403.785169 -9.987182 392.992565 -9.987182 C 370.379488 -9.987182 351.363947 -4.757976 335.94594 5.177515 C 320.527934 15.113006 310.763196 25.571418 306.137794 36.02983 L 299.970591 51.194527 C 299.456658 51.717448 297.914857 51.194527 295.859123 50.148686 C 294.831256 48.579924 293.289455 47.534083 291.747655 45.965321 C 252.688704 8.837959 212.601887 -9.987182 172.001136 -9.987182 C 135.511854 -9.987182 103.13404 3.085833 74.867695 29.754783 C 47.115283 56.423733 33.239077 98.7803 33.239077 156.824485 Z M 350.850013 327.819517 C 350.850013 332.002882 349.308213 339.32377 346.224611 349.782182 C 342.627076 360.763514 334.918073 372.267767 323.097601 384.817861 C 310.763196 397.890876 295.859123 404.165923 276.843581 405.211764 C 253.716571 405.211764 231.103495 394.753352 210.032219 373.836529 C 188.44701 353.442626 172.001136 326.250755 160.180665 292.783838 C 140.651189 240.491779 126.774984 185.585118 119.06598 129.109694 C 119.06598 127.018012 119.06598 123.357568 119.06598 118.128362 C 119.06598 112.899156 118.552047 108.715791 118.038113 106.101188 C 118.038113 75.771794 124.205316 55.377892 136.025787 43.873639 C 147.846259 32.892306 162.236399 26.617259 179.196206 26.094339 C 204.37895 26.094339 229.561694 37.075671 254.230505 59.038336 C 278.899316 81.001 293.289455 98.25738 297.914857 109.761633 C 299.456658 112.899156 308.193528 148.457756 325.153336 216.960353 C 341.599209 285.46295 350.33608 322.590311 350.850013 327.819517 Z M 350.850013 327.819517 "
     transform="matrix(0.00760069, 0, 0, -0.00747006, 292.587204, 38.917583)"
     id="path51" />
  <path
     fill-rule="nonzero"
     fill="rgb(0%, 0%, 0%)"
     fill-opacity="1"
     stroke-width="15.788039"
     stroke-linecap="butt"
     stroke-linejoin="miter"
     stroke="rgb(0%, 0%, 0%)"
     stroke-opacity="0.0942"
     stroke-miterlimit="4"
     d="M 52.092556 289.123394 C 56.717958 316.838185 74.705633 349.259261 106.055579 385.863702 C 137.405526 422.468143 175.950543 441.293284 222.204563 441.816205 C 245.331573 441.816205 266.916782 436.064078 285.932323 424.036905 C 305.461799 412.009731 319.851938 396.845034 329.102742 379.065735 C 356.855154 420.899381 390.774769 441.816205 429.833719 441.816205 C 454.502529 441.816205 476.087739 434.495317 494.075413 419.85354 C 512.063087 405.211764 521.313891 385.863702 521.827825 360.763514 C 521.827825 341.415452 517.202423 326.250755 507.951619 314.223582 C 498.700815 302.196408 489.450011 294.87552 481.227074 292.260917 C 472.490204 289.123394 464.7812 288.077553 458.100064 288.077553 C 445.251725 288.077553 434.973054 291.737997 426.750117 299.058885 C 419.041114 306.379773 414.929646 315.792344 414.929646 327.819517 C 414.929646 358.671832 431.889453 379.588655 464.7812 391.092908 C 457.586131 399.459637 444.223858 404.165923 425.208317 404.165923 C 416.471446 404.165923 409.79031 403.120081 406.192775 402.07424 C 380.496098 391.092908 361.99449 369.130243 350.174018 336.186246 C 310.087201 188.722641 290.043792 102.440744 290.043792 77.863477 C 290.043792 59.561256 295.183127 45.965321 305.975732 38.121512 C 316.768337 29.754783 328.588809 26.094339 340.923214 26.094339 C 365.592024 26.094339 389.746901 37.075671 413.901779 59.038336 C 438.056656 81.001 454.502529 108.192871 463.2394 140.091027 C 464.7812 146.888994 466.836935 150.549438 468.892669 151.072359 C 470.948403 151.595279 476.087739 152.1182 484.824609 153.164041 L 488.936078 153.164041 C 499.214749 153.164041 503.840151 150.549438 503.840151 144.797312 C 503.840151 144.274391 503.326217 140.613947 501.784416 133.81598 C 491.505745 96.165697 470.43447 62.175859 440.11239 32.892306 C 409.276377 3.608754 373.814961 -11.033023 333.214211 -11.033023 C 286.446257 -11.033023 250.984842 9.883801 226.829965 52.240368 C 199.591486 10.406721 168.24154 -9.987182 132.780124 -9.987182 L 127.126855 -9.987182 C 94.235108 -9.987182 71.108098 -1.097532 57.231892 16.158848 C 42.841752 33.415227 35.646682 51.717448 35.132749 71.065509 C 35.132749 92.505253 41.299952 109.761633 54.14829 122.834647 C 66.482696 136.430582 81.900702 143.22855 98.86051 143.22855 C 127.640789 143.22855 142.030928 129.109694 142.030928 100.871983 C 142.030928 87.798968 137.91946 75.771794 130.210456 65.836303 C 121.98752 55.900812 114.278516 49.102845 107.083447 45.965321 C 99.888377 42.827798 95.262975 41.259036 94.235108 41.259036 L 91.151506 40.213195 C 91.151506 39.167353 93.207241 38.121512 96.804775 36.02983 C 100.916244 33.938148 106.569513 31.846465 113.250649 29.231862 C 119.417852 26.094339 126.098988 25.571418 131.752257 26.094339 C 155.907134 26.094339 176.464476 41.259036 193.938217 71.065509 C 200.10542 81.523921 207.814423 104.532427 217.065227 139.045185 C 226.316031 173.557944 235.566835 209.639465 244.817639 246.766826 C 254.582377 284.417108 259.721712 306.379773 260.749579 313.177741 C 264.347114 330.957041 265.888915 344.030055 265.888915 351.873864 C 265.888915 370.699005 260.749579 383.77202 250.984842 392.138749 C 241.220104 399.982558 229.913566 404.165923 217.065227 404.165923 C 190.340682 404.165923 165.157938 393.18459 142.030928 371.744846 C 118.903918 350.828023 102.458045 323.113232 93.207241 290.169235 C 91.66544 283.894188 90.123639 280.756664 88.067905 280.233744 C 86.012171 279.187903 80.872835 278.664982 72.135965 278.142061 L 57.745825 278.142061 C 54.14829 281.802505 52.092556 285.46295 52.092556 289.123394 Z M 52.092556 289.123394 "
     transform="matrix(0.00760069, 0, 0, -0.00747006, 296.607967, 38.917583)"
     id="path53" />
  <path
     fill-rule="nonzero"
     fill="rgb(0%, 0%, 0%)"
     fill-opacity="1"
     stroke-width="11.908573"
     stroke-linecap="butt"
     stroke-linejoin="miter"
     stroke="rgb(0%, 0%, 0%)"
     stroke-opacity="0.1227"
     stroke-miterlimit="4"
     d="M 120.947625 646.84652 C 120.947625 653.78627 122.49822 661.134241 124.824113 670.115094 C 127.537655 678.687726 131.801793 683.178152 136.841228 683.178152 C 137.616525 683.178152 161.650754 684.811034 208.943913 688.076799 C 256.237072 691.342564 280.65895 693.383667 281.821896 694.200108 C 289.962522 694.200108 293.839011 691.342564 293.839011 686.035696 C 293.839011 681.137049 277.17011 611.73955 243.832309 477.026759 C 210.494509 345.171511 193.825608 276.590454 193.825608 272.100027 C 206.61802 278.631557 216.309241 285.163086 222.899272 290.878174 C 239.180523 303.124792 262.051805 323.944041 291.900766 354.152364 C 322.137376 383.952467 345.396307 404.363496 362.065208 414.977231 C 388.812978 432.938936 414.010153 441.919789 438.044382 441.919789 C 457.814473 441.919789 473.708076 435.79648 484.949892 423.141642 C 496.191709 410.486804 502.39409 392.525099 503.169388 368.848305 C 503.169388 352.519482 500.843495 338.231761 496.191709 326.801585 C 491.152274 315.77963 484.949892 307.206997 476.809266 301.90013 C 469.056289 296.593262 462.07861 292.919277 455.876229 290.878174 C 450.061496 288.837071 443.859114 288.02063 438.044382 288.02063 C 424.476672 288.02063 414.010153 291.694615 405.869527 299.042586 C 398.11655 306.390556 393.852413 316.18785 393.852413 328.026247 C 393.852413 344.763291 399.279497 358.23457 410.133665 368.848305 C 420.600184 379.870261 431.454351 386.810011 441.92087 390.075775 L 457.814473 392.933319 C 450.061496 401.097731 441.92087 405.179937 434.167893 405.179937 L 429.903756 405.179937 C 408.583069 403.138834 387.650032 394.566202 367.104643 379.870261 C 346.171605 365.17432 322.137376 343.94685 293.839011 316.18785 C 265.928294 288.02063 243.832309 267.609601 227.938707 254.954763 C 229.489302 254.138322 234.141088 253.321881 243.057012 252.097219 C 251.585286 250.464337 259.725912 248.831454 267.09124 245.97391 C 274.456568 243.524587 282.984843 240.667043 293.063713 237.809499 C 303.142583 235.360175 312.058506 230.869749 319.811483 223.929999 C 327.952109 217.39847 335.317437 211.275161 341.907468 205.968293 C 348.497498 200.661426 354.312231 192.088794 358.964017 179.842176 C 363.615803 168.003779 365.554047 156.981824 365.166398 147.18453 C 365.166398 135.754353 363.228154 121.874854 360.126963 105.954251 C 356.638124 90.033648 354.69988 76.562369 353.924582 65.948634 C 353.924582 39.414296 362.840505 25.943017 381.060001 25.943017 C 412.847207 25.943017 438.819679 65.540414 458.977419 145.143427 C 460.140366 150.450294 467.118045 152.899618 479.135159 152.899618 L 483.011648 152.899618 C 493.478167 152.899618 498.905251 150.042074 498.905251 143.918765 C 498.905251 140.653 498.129953 136.162574 496.191709 130.039265 C 468.668641 36.148532 429.516107 -10.796835 377.95881 -10.796835 C 348.109849 -10.796835 323.687972 -2.224203 305.080827 14.921062 C 286.473683 32.474547 277.17011 57.376002 277.17011 90.033648 C 277.17011 101.872045 277.945408 112.48578 279.883652 121.058413 C 281.821896 129.631045 282.984843 137.795456 282.984843 145.143427 C 282.984843 159.839368 278.333057 172.494206 269.029484 183.107941 C 259.725912 193.721676 248.096447 201.477867 234.141088 205.968293 C 220.18573 210.86694 208.556264 214.132705 200.02799 216.990249 C 191.499715 219.847793 185.297333 220.664234 181.808494 219.847793 L 179.87025 219.847793 C 172.117273 192.088794 165.139593 165.146235 158.937212 139.020118 C 153.122479 112.894001 148.470693 93.707634 144.981853 81.052796 C 141.493014 68.397958 138.779472 56.15134 136.06593 43.904723 C 133.352388 32.066326 131.026495 23.901914 129.088251 19.819709 C 127.150006 16.145723 124.824113 11.655297 122.110571 7.164871 C 119.39703 2.266224 115.520541 -0.59132 110.868755 -1.815982 C 102.34048 -7.939291 93.036908 -10.796835 82.958038 -10.796835 C 71.716221 -10.796835 63.187947 -7.53107 56.985565 -0.999541 C 51.170832 5.531988 48.069642 11.247076 48.069642 16.145723 C 48.069642 22.677253 60.474405 76.154149 84.896282 176.168191 C 109.705808 276.182233 134.127686 374.155173 158.161914 470.90345 L 194.988555 615.821756 C 195.763852 624.802609 193.437959 630.109477 188.010875 632.15058 C 182.583792 634.191682 169.79138 635.824565 148.858342 637.049226 L 143.818907 637.049226 C 137.228876 637.049226 132.964739 637.049226 131.026495 637.049226 C 129.088251 637.049226 126.762358 637.865668 124.048816 639.906771 C 121.335274 641.947873 120.172327 644.397197 120.947625 646.84652 Z M 120.947625 646.84652 "
     transform="matrix(0.0100768, 0, 0, -0.00956897, 286.499988, 192.642779)"
     id="path55" />
  <path
     fill-rule="nonzero"
     fill="rgb(0%, 0%, 0%)"
     fill-opacity="1"
     stroke-width="11.246545"
     stroke-linecap="butt"
     stroke-linejoin="miter"
     stroke="rgb(0%, 0%, 0%)"
     stroke-opacity="0.1288"
     stroke-miterlimit="4"
     d="M 32.994779 156.900022 C 32.994779 224.262142 58.526031 288.329375 109.195745 349.101722 C 159.472671 409.507971 216.819789 440.260243 280.058735 440.99244 C 313.838544 440.99244 344.083258 424.518009 370.007297 391.935244 C 380.612586 412.07066 395.931337 421.955319 415.96355 421.955319 C 424.604897 421.955319 432.460666 419.39263 439.13807 413.901153 C 445.815475 408.775774 448.957782 401.819903 448.957782 394.131835 C 448.957782 385.345472 436.781339 331.895094 412.035665 234.146801 C 387.289991 136.032409 374.720759 80.751539 373.935182 67.938092 C 373.935182 51.46366 376.291913 40.480706 381.005375 34.989229 C 385.718837 29.497752 392.789029 26.568964 401.823165 25.836767 C 408.10778 26.568964 414.785184 29.497752 421.855377 34.989229 C 435.995763 48.168774 449.743359 80.38544 463.098168 130.90703 C 467.026053 144.452674 470.168361 151.408545 472.91788 152.140742 C 474.489034 152.50684 477.631342 152.872939 483.13038 152.872939 L 487.058265 152.872939 C 499.627497 152.872939 505.912112 149.944151 505.912112 144.086575 C 505.912112 140.059492 504.340959 130.90703 500.805862 116.995288 C 497.663554 103.083546 490.98615 85.14472 481.166438 63.178812 C 470.953937 40.846805 460.348648 24.372373 448.957782 13.02332 C 440.316436 4.236957 429.711147 -2.718914 417.141915 -7.844293 C 411.642877 -9.308687 403.787107 -10.040884 393.181818 -10.040884 C 370.400086 -10.040884 351.15345 -4.915505 335.834699 4.969154 C 320.515949 14.853813 310.696237 25.470669 305.982775 36.087524 L 300.090948 51.097562 C 299.305371 51.829759 298.127005 51.46366 296.163063 49.999267 C 294.591909 48.534873 293.413543 47.436577 291.842389 45.972183 C 252.563541 8.630139 212.499116 -10.040884 172.041902 -10.040884 C 135.512573 -10.040884 102.911129 3.50476 75.023147 29.86385 C 47.135165 56.589039 32.994779 99.056462 32.994779 156.900022 Z M 351.15345 327.868011 C 351.15345 331.895094 349.189508 339.217064 346.0472 349.833919 C 342.512104 360.816874 335.049122 372.165926 322.87268 384.979373 C 311.089025 397.79282 295.770274 404.382592 276.916427 405.114789 C 253.741907 405.114789 231.352963 394.497934 210.142385 373.996419 C 188.539018 353.494904 172.041902 326.403617 159.865459 293.088655 C 140.618824 240.370475 126.871227 185.821802 119.015457 129.076538 C 119.015457 126.879947 119.015457 123.218962 119.015457 118.093583 C 119.015457 112.602106 118.622669 108.575023 117.837092 106.012334 C 117.837092 75.992258 124.121707 55.490744 135.905362 44.141691 C 148.081805 32.792638 162.22219 26.568964 179.112095 25.836767 C 204.250558 25.836767 229.389021 36.819721 254.134695 59.151728 C 278.487581 81.117637 293.413543 97.958167 298.127005 110.039417 C 299.305371 112.602106 308.339506 148.479757 324.836622 216.940172 C 341.726527 285.766686 350.367873 322.742632 351.15345 327.868011 Z M 351.15345 327.868011 "
     transform="matrix(0.00994492, 0, 0, -0.0106699, 130.499995, 14.892864)"
     id="path57" />
  <path
     fill-rule="nonzero"
     fill="rgb(0%, 0%, 0%)"
     fill-opacity="1"
     stroke-width="15.907419"
     stroke-linecap="butt"
     stroke-linejoin="miter"
     stroke="rgb(0%, 0%, 0%)"
     stroke-opacity="0.091"
     stroke-miterlimit="4"
     d="M 121.229759 646.995592 C 121.229759 653.727248 122.340901 661.494542 125.118754 669.779656 C 127.896608 678.58259 131.785602 683.242966 136.785739 683.242966 C 137.89688 683.242966 161.78642 684.796425 209.009929 687.903343 C 256.233438 691.528081 280.678548 693.081539 281.789689 694.117179 C 290.12325 694.117179 294.012245 691.528081 294.012245 685.832065 C 294.012245 681.171688 277.345124 611.783858 244.010882 477.150754 C 210.676641 345.106749 194.00952 276.754558 194.00952 272.094182 C 206.787646 278.825837 216.232348 285.039672 222.899196 291.253508 C 239.010746 303.163359 261.789144 323.876144 291.789962 353.909683 C 321.790779 383.943221 345.124748 404.138187 361.791869 415.012399 C 388.459262 433.136086 414.015514 441.93902 437.905054 441.93902 C 457.905599 441.93902 473.461578 435.725184 485.128563 422.779693 C 496.239977 410.352022 502.351254 392.228335 502.906825 368.926452 C 502.906825 352.356224 500.684542 338.375094 496.239977 326.983062 C 491.239841 315.59103 485.128563 307.305916 476.795003 302.12772 C 469.017013 296.431704 461.794594 292.806967 456.238887 291.253508 C 450.127609 289.182229 444.016332 288.14659 437.905054 288.14659 C 424.571357 288.14659 414.015514 291.771328 406.237525 299.020802 C 397.903964 306.270277 394.014969 316.10885 394.014969 328.018701 C 394.014969 344.58893 399.570676 358.57006 410.126519 368.926452 C 420.682363 379.800664 431.238206 386.532319 441.794049 390.157057 L 457.905599 392.746155 C 450.127609 401.031269 441.794049 405.173826 434.016059 405.173826 L 430.127064 405.173826 C 408.459807 403.102548 387.903692 394.817434 366.792005 379.800664 C 346.23589 365.301715 321.790779 344.07111 294.012245 316.10885 C 266.23371 288.14659 244.010882 267.433805 227.899332 255.006134 C 229.566044 254.488314 234.566181 253.452675 242.899741 251.899216 C 251.788872 250.863577 259.566862 248.792298 266.789281 246.2032 C 274.56727 243.096282 282.900831 240.507184 292.901103 237.918086 C 302.901376 235.328988 311.790507 230.668611 320.124067 223.936956 C 327.902057 217.205301 335.124476 211.509285 341.791324 205.813269 C 348.458173 200.635073 354.56945 191.832139 359.014016 179.922288 C 363.458581 168.012436 365.680864 157.138224 365.125293 146.781832 C 365.125293 135.907619 363.458581 121.926489 360.125157 105.874081 C 356.791733 89.821672 354.56945 76.876182 354.013879 66.00197 C 354.013879 39.075349 362.903011 26.129858 381.236843 26.129858 C 412.904373 26.129858 439.016195 65.48415 459.01674 145.228373 C 460.127882 150.406569 466.79473 152.995667 479.017285 152.995667 L 482.90628 152.995667 C 493.462123 152.995667 499.01783 149.888749 499.01783 144.192733 C 499.01783 140.567996 497.906689 135.907619 496.239977 130.211604 C 468.461442 35.968431 429.571494 -11.153155 377.903419 -11.153155 C 347.902602 -11.153155 323.457491 -2.350221 305.123658 15.255646 C 286.234255 32.343694 276.789553 57.199036 276.789553 89.821672 C 276.789553 102.249344 277.900695 112.087917 280.122977 120.89085 C 281.789689 129.693784 282.900831 137.461078 282.900831 145.228373 C 282.900831 159.727322 278.456265 172.154993 269.011563 183.029206 C 259.566862 193.903418 247.899877 201.152893 234.01061 205.813269 C 220.121343 210.473646 208.454358 214.098383 200.120798 217.205301 C 191.231667 219.794399 185.120389 220.830038 181.786965 219.794399 L 180.120253 219.794399 C 171.786692 191.832139 165.119844 164.905519 159.008566 139.014537 C 152.897289 113.123556 148.452723 93.44641 145.119299 81.018739 C 141.785875 68.591068 138.452451 56.163397 136.230168 44.253545 C 133.452314 31.825874 131.230032 24.05858 129.007749 19.916023 C 126.785466 15.773466 124.563183 11.630909 121.78533 6.970532 C 119.563047 2.310155 115.674052 -0.796762 111.229487 -1.832402 C 102.340356 -8.046237 92.895654 -11.153155 82.895381 -11.153155 C 71.783968 -11.153155 62.894837 -7.528418 56.783559 -0.796762 C 51.227852 5.417073 47.894428 11.113089 47.894428 15.773466 C 47.894428 22.505121 60.116983 75.840543 85.117664 175.779731 C 109.562775 276.236739 134.007885 374.104648 157.897425 470.936919 L 195.120661 615.926415 C 195.676232 624.729348 193.453949 629.907545 187.898242 631.978823 C 182.898106 634.050102 169.56441 635.603561 149.008294 637.15702 L 144.008158 637.15702 C 137.341309 637.15702 132.896744 637.15702 131.230032 637.15702 C 129.007749 637.15702 126.785466 638.192659 124.007613 639.746118 C 121.229759 641.817396 120.118618 644.406494 121.229759 646.995592 Z M 121.229759 646.995592 "
     transform="matrix(0.00703106, 0, 0, -0.00754365, 136.089033, 10.486177)"
     id="path59" />
</svg>
