<?xml version="1.0" encoding="UTF-8" standalone="no"?>
<svg 
   width="327.12pt"
   height="234pt"
   viewBox="0 0 327.12 234"
   version="1.1"
   id="svg63"
   xmlns="http://www.w3.org/2000/svg"
   xmlns:svg="http://www.w3.org/2000/svg" content="%3Cmxfile%20host%3D%22app.diagrams.net%22%20modified%3D%222023-11-08T09%3A59%3A17.269Z%22%20agent%3D%22Mozilla%2F5.0%20(Macintosh%3B%20Intel%20Mac%20OS%20X%2010_15_7)%20AppleWebKit%2F537.36%20(KHTML%2C%20like%20Gecko)%20Chrome%2F119.0.0.0%20Safari%2F537.36%22%20etag%3D%22l7EMSeWBPRhysTXY8BWw%22%20version%3D%2222.0.8%22%20type%3D%22device%22%3E%20%20%20%3Cdiagram%20name%3D%22Pagina-1%22%20id%3D%22E88Y_eGb2Ot6z3okOX56%22%3E%20%20%20%20%20%3CmxGraphModel%20dx%3D%22477%22%20dy%3D%22293%22%20grid%3D%221%22%20gridSize%3D%2210%22%20guides%3D%221%22%20tooltips%3D%221%22%20connect%3D%221%22%20arrows%3D%221%22%20fold%3D%221%22%20page%3D%220%22%20pageScale%3D%221%22%20pageWidth%3D%22827%22%20pageHeight%3D%221169%22%20math%3D%221%22%20shadow%3D%220%22%3E%20%20%20%20%20%20%20%3Croot%3E%20%20%20%20%20%20%20%20%20%3CmxCell%20id%3D%220%22%20%2F%3E%20%20%20%20%20%20%20%20%20%3CmxCell%20id%3D%221%22%20parent%3D%220%22%20%2F%3E%20%20%20%20%20%20%20%20%20%3CmxCell%20id%3D%22gZrddB3QGciaUOXZZaBY-3%22%20value%3D%22%22%20style%3D%22endArrow%3Dclassic%3Bhtml%3D1%3Brounded%3D0%3B%22%20parent%3D%221%22%20edge%3D%221%22%3E%20%20%20%20%20%20%20%20%20%20%20%3CmxGeometry%20width%3D%2250%22%20height%3D%2250%22%20relative%3D%221%22%20as%3D%22geometry%22%3E%20%20%20%20%20%20%20%20%20%20%20%20%20%3CmxPoint%20x%3D%22180%22%20y%3D%22520%22%20as%3D%22sourcePoint%22%20%2F%3E%20%20%20%20%20%20%20%20%20%20%20%20%20%3CmxPoint%20x%3D%22540%22%20y%3D%22520%22%20as%3D%22targetPoint%22%20%2F%3E%20%20%20%20%20%20%20%20%20%20%20%3C%2FmxGeometry%3E%20%20%20%20%20%20%20%20%20%3C%2FmxCell%3E%20%20%20%20%20%20%20%20%20%3CmxCell%20id%3D%22gZrddB3QGciaUOXZZaBY-4%22%20value%3D%22%22%20style%3D%22endArrow%3Dclassic%3Bhtml%3D1%3Brounded%3D0%3B%22%20parent%3D%221%22%20edge%3D%221%22%3E%20%20%20%20%20%20%20%20%20%20%20%3CmxGeometry%20width%3D%2250%22%20height%3D%2250%22%20relative%3D%221%22%20as%3D%22geometry%22%3E%20%20%20%20%20%20%20%20%20%20%20%20%20%3CmxPoint%20x%3D%22320%22%20y%3D%22580%22%20as%3D%22sourcePoint%22%20%2F%3E%20%20%20%20%20%20%20%20%20%20%20%20%20%3CmxPoint%20x%3D%22320%22%20y%3D%22300%22%20as%3D%22targetPoint%22%20%2F%3E%20%20%20%20%20%20%20%20%20%20%20%3C%2FmxGeometry%3E%20%20%20%20%20%20%20%20%20%3C%2FmxCell%3E%20%20%20%20%20%20%20%20%20%3CmxCell%20id%3D%22gZrddB3QGciaUOXZZaBY-5%22%20value%3D%22%22%20style%3D%22endArrow%3Dnone%3Bhtml%3D1%3Brounded%3D0%3B%22%20parent%3D%221%22%20edge%3D%221%22%3E%20%20%20%20%20%20%20%20%20%20%20%3CmxGeometry%20width%3D%2250%22%20height%3D%2250%22%20relative%3D%221%22%20as%3D%22geometry%22%3E%20%20%20%20%20%20%20%20%20%20%20%20%20%3CmxPoint%20x%3D%22260%22%20y%3D%22580%22%20as%3D%22sourcePoint%22%20%2F%3E%20%20%20%20%20%20%20%20%20%20%20%20%20%3CmxPoint%20x%3D%22520%22%20y%3D%22320%22%20as%3D%22targetPoint%22%20%2F%3E%20%20%20%20%20%20%20%20%20%20%20%3C%2FmxGeometry%3E%20%20%20%20%20%20%20%20%20%3C%2FmxCell%3E%20%20%20%20%20%20%20%20%20%3CmxCell%20id%3D%22gZrddB3QGciaUOXZZaBY-8%22%20value%3D%22%22%20style%3D%22endArrow%3Dnone%3Bdashed%3D1%3Bhtml%3D1%3Brounded%3D0%3BedgeStyle%3DorthogonalEdgeStyle%3Bcurved%3D1%3BfillColor%3D%23d5e8d4%3BstrokeColor%3D%2382b366%3B%22%20parent%3D%221%22%20edge%3D%221%22%3E%20%20%20%20%20%20%20%20%20%20%20%3CmxGeometry%20width%3D%2250%22%20height%3D%2250%22%20relative%3D%221%22%20as%3D%22geometry%22%3E%20%20%20%20%20%20%20%20%20%20%20%20%20%3CmxPoint%20x%3D%22510%22%20y%3D%22503%22%20as%3D%22sourcePoint%22%20%2F%3E%20%20%20%20%20%20%20%20%20%20%20%20%20%3CmxPoint%20x%3D%22250%22%20y%3D%22323%22%20as%3D%22targetPoint%22%20%2F%3E%20%20%20%20%20%20%20%20%20%20%20%20%20%3CArray%20as%3D%22points%22%3E%20%20%20%20%20%20%20%20%20%20%20%20%20%20%20%3CmxPoint%20x%3D%22250%22%20y%3D%22503%22%20%2F%3E%20%20%20%20%20%20%20%20%20%20%20%20%20%3C%2FArray%3E%20%20%20%20%20%20%20%20%20%20%20%3C%2FmxGeometry%3E%20%20%20%20%20%20%20%20%20%3C%2FmxCell%3E%20%20%20%20%20%20%20%20%20%3CmxCell%20id%3D%22gZrddB3QGciaUOXZZaBY-11%22%20value%3D%22%22%20style%3D%22endArrow%3Dnone%3Bdashed%3D1%3Bhtml%3D1%3Brounded%3D0%3BedgeStyle%3DorthogonalEdgeStyle%3Bcurved%3D1%3BfillColor%3D%23f8cecc%3BstrokeColor%3D%23b85450%3B%22%20parent%3D%221%22%20edge%3D%221%22%3E%20%20%20%20%20%20%20%20%20%20%20%3CmxGeometry%20width%3D%2250%22%20height%3D%2250%22%20relative%3D%221%22%20as%3D%22geometry%22%3E%20%20%20%20%20%20%20%20%20%20%20%20%20%3CmxPoint%20x%3D%22200%22%20y%3D%22500%22%20as%3D%22sourcePoint%22%20%2F%3E%20%20%20%20%20%20%20%20%20%20%20%20%20%3CmxPoint%20x%3D%22490%22%20y%3D%22320%22%20as%3D%22targetPoint%22%20%2F%3E%20%20%20%20%20%20%20%20%20%20%20%20%20%3CArray%20as%3D%22points%22%3E%20%20%20%20%20%20%20%20%20%20%20%20%20%20%20%3CmxPoint%20x%3D%22490%22%20y%3D%22500%22%20%2F%3E%20%20%20%20%20%20%20%20%20%20%20%20%20%3C%2FArray%3E%20%20%20%20%20%20%20%20%20%20%20%3C%2FmxGeometry%3E%20%20%20%20%20%20%20%20%20%3C%2FmxCell%3E%20%20%20%20%20%20%20%20%20%3CmxCell%20id%3D%22gZrddB3QGciaUOXZZaBY-18%22%20value%3D%22%24%24M%5Ek%20%26amp%3Bgt%3B%201%20%24%24%22%20style%3D%22text%3Bhtml%3D1%3Balign%3Dcenter%3BverticalAlign%3Dmiddle%3Bresizable%3D0%3Bpoints%3D%5B%5D%3Bautosize%3D1%3BstrokeColor%3Dnone%3BfillColor%3Dnone%3B%22%20parent%3D%221%22%20vertex%3D%221%22%3E%20%20%20%20%20%20%20%20%20%20%20%3CmxGeometry%20x%3D%22450%22%20y%3D%22398%22%20width%3D%22100%22%20height%3D%2230%22%20as%3D%22geometry%22%20%2F%3E%20%20%20%20%20%20%20%20%20%3C%2FmxCell%3E%20%20%20%20%20%20%20%20%20%3CmxCell%20id%3D%22gZrddB3QGciaUOXZZaBY-19%22%20value%3D%22%24%240%26amp%3Blt%3B%20M%5Ek%20%26amp%3Blt%3B%3D%201%20%24%24%22%20style%3D%22text%3Bhtml%3D1%3Balign%3Dcenter%3BverticalAlign%3Dmiddle%3Bresizable%3D0%3Bpoints%3D%5B%5D%3Bautosize%3D1%3BstrokeColor%3Dnone%3BfillColor%3Dnone%3B%22%20parent%3D%221%22%20vertex%3D%221%22%3E%20%20%20%20%20%20%20%20%20%20%20%3CmxGeometry%20x%3D%22155%22%20y%3D%22398%22%20width%3D%22120%22%20height%3D%2230%22%20as%3D%22geometry%22%20%2F%3E%20%20%20%20%20%20%20%20%20%3C%2FmxCell%3E%20%20%20%20%20%20%20%20%20%3CmxCell%20id%3D%22gZrddB3QGciaUOXZZaBY-20%22%20value%3D%22%24%24k%20l_%7Bmax%7D%24%24%22%20style%3D%22text%3Bhtml%3D1%3Balign%3Dcenter%3BverticalAlign%3Dmiddle%3Bresizable%3D0%3Bpoints%3D%5B%5D%3Bautosize%3D1%3BstrokeColor%3Dnone%3BfillColor%3Dnone%3B%22%20parent%3D%221%22%20vertex%3D%221%22%3E%20%20%20%20%20%20%20%20%20%20%20%3CmxGeometry%20x%3D%22490%22%20y%3D%22310%22%20width%3D%22100%22%20height%3D%2230%22%20as%3D%22geometry%22%20%2F%3E%20%20%20%20%20%20%20%20%20%3C%2FmxCell%3E%20%20%20%20%20%20%20%20%20%3CmxCell%20id%3D%22gZrddB3QGciaUOXZZaBY-21%22%20value%3D%22%24%24k%24%24%22%20style%3D%22text%3Bhtml%3D1%3Balign%3Dcenter%3BverticalAlign%3Dmiddle%3Bresizable%3D0%3Bpoints%3D%5B%5D%3Bautosize%3D1%3BstrokeColor%3Dnone%3BfillColor%3Dnone%3B%22%20parent%3D%221%22%20vertex%3D%221%22%3E%20%20%20%20%20%20%20%20%20%20%20%3CmxGeometry%20x%3D%22510%22%20y%3D%22518%22%20width%3D%2260%22%20height%3D%2230%22%20as%3D%22geometry%22%20%2F%3E%20%20%20%20%20%20%20%20%20%3C%2FmxCell%3E%20%20%20%20%20%20%20%20%20%3CmxCell%20id%3D%22gZrddB3QGciaUOXZZaBY-22%22%20value%3D%22%24%24M%5Ek%24%24%22%20style%3D%22text%3Bhtml%3D1%3Balign%3Dcenter%3BverticalAlign%3Dmiddle%3Bresizable%3D0%3Bpoints%3D%5B%5D%3Bautosize%3D1%3BstrokeColor%3Dnone%3BfillColor%3Dnone%3B%22%20parent%3D%221%22%20vertex%3D%221%22%3E%20%20%20%20%20%20%20%20%20%20%20%3CmxGeometry%20x%3D%22300%22%20y%3D%22280%22%20width%3D%2270%22%20height%3D%2230%22%20as%3D%22geometry%22%20%2F%3E%20%20%20%20%20%20%20%20%20%3C%2FmxCell%3E%20%20%20%20%20%20%20%20%20%3CmxCell%20id%3D%22WDS9poYxYpU3px0SZfkZ-2%22%20value%3D%22%24%241%24%24%22%20style%3D%22text%3Bhtml%3D1%3Balign%3Dcenter%3BverticalAlign%3Dmiddle%3Bresizable%3D0%3Bpoints%3D%5B%5D%3Bautosize%3D1%3BstrokeColor%3Dnone%3BfillColor%3Dnone%3B%22%20vertex%3D%221%22%20parent%3D%221%22%3E%20%20%20%20%20%20%20%20%20%20%20%3CmxGeometry%20x%3D%22330%22%20y%3D%22518%22%20width%3D%2260%22%20height%3D%2230%22%20as%3D%22geometry%22%20%2F%3E%20%20%20%20%20%20%20%20%20%3C%2FmxCell%3E%20%20%20%20%20%20%20%3C%2Froot%3E%20%20%20%20%20%3C%2FmxGraphModel%3E%20%20%20%3C%2Fdiagram%3E%20%3C%2Fmxfile%3E%20">
  <defs
     id="defs5">
    <clipPath
       id="clip-0">
      <path
         clip-rule="nonzero"
         d="M 68 19 L 285 19 L 285 232.5 L 68 232.5 Z M 68 19 "
         id="path2" />
    </clipPath>
  </defs>
  <path
     fill="none"
     stroke-width="1"
     stroke-linecap="butt"
     stroke-linejoin="miter"
     stroke="rgb(0%, 0%, 0%)"
     stroke-opacity="1"
     stroke-miterlimit="10"
     d="M 25.000001 240.00001 L 378.630224 240.00001 "
     transform="matrix(0.75, 0, 0, 0.75, 0.375, 0.375)"
     id="path7" />
  <path
     fill-rule="nonzero"
     fill="rgb(0%, 0%, 0%)"
     fill-opacity="1"
     stroke-width="1"
     stroke-linecap="butt"
     stroke-linejoin="miter"
     stroke="rgb(0%, 0%, 0%)"
     stroke-opacity="1"
     stroke-miterlimit="10"
     d="M 383.880224 240.00001 L 376.880224 243.50001 L 378.630224 240.00001 L 376.880224 236.50001 Z M 383.880224 240.00001 "
     transform="matrix(0.75, 0, 0, 0.75, 0.375, 0.375)"
     id="path9" />
  <path
     fill="none"
     stroke-width="1"
     stroke-linecap="butt"
     stroke-linejoin="miter"
     stroke="rgb(0%, 0%, 0%)"
     stroke-opacity="1"
     stroke-miterlimit="10"
     d="M 165.000007 300.000013 L 165.000007 26.369793 "
     transform="matrix(0.75, 0, 0, 0.75, 0.375, 0.375)"
     id="path11" />
  <path
     fill-rule="nonzero"
     fill="rgb(0%, 0%, 0%)"
     fill-opacity="1"
     stroke-width="1"
     stroke-linecap="butt"
     stroke-linejoin="miter"
     stroke="rgb(0%, 0%, 0%)"
     stroke-opacity="1"
     stroke-miterlimit="10"
     d="M 165.000007 21.119793 L 168.500007 28.119793 L 165.000007 26.369793 L 161.500007 28.119793 Z M 165.000007 21.119793 "
     transform="matrix(0.75, 0, 0, 0.75, 0.375, 0.375)"
     id="path13" />
  <g
     clip-path="url(#clip-0)"
     id="g17">
    <path
       fill="none"
       stroke-width="1"
       stroke-linecap="butt"
       stroke-linejoin="miter"
       stroke="#000000"
       stroke-opacity="1"
       stroke-miterlimit="10"
       d="M 105,300.00001 365.00002,40.000002"
       transform="matrix(0.75,0,0,0.75,0.375,0.375)"
       id="path15" />
  </g>
  <path
     fill-rule="nonzero"
     fill="rgb(50.979614%, 70.199585%, 39.99939%)"
     fill-opacity="1"
     d="M 266.625 168 L 264.308594 167.996094 L 264.3125 167.246094 L 266.625 167.25 Z M 262.003906 167.980469 L 259.71875 167.957031 L 259.726563 167.207031 L 262.011719 167.230469 Z M 257.441406 167.921875 L 255.179688 167.878906 L 255.195313 167.128906 L 257.453125 167.171875 Z M 252.929688 167.828125 L 250.699219 167.765625 L 250.71875 167.015625 L 252.953125 167.078125 Z M 248.476563 167.695313 L 246.273438 167.613281 L 246.300781 166.863281 L 248.503906 166.945313 Z M 244.078125 167.519531 L 241.828125 167.417969 L 241.863281 166.667969 L 244.113281 166.773438 Z M 239.519531 167.296875 L 237.230469 167.167969 L 237.273438 166.421875 L 239.5625 166.550781 Z M 234.953125 167.03125 L 232.691406 166.878906 L 232.742188 166.128906 L 235 166.28125 Z M 230.445313 166.71875 L 228.21875 166.542969 L 228.277344 165.796875 L 230.503906 165.96875 Z M 226.003906 166.359375 L 223.808594 166.167969 L 223.875 165.417969 L 226.070313 165.613281 Z M 221.621094 165.960938 L 219.363281 165.734375 L 219.4375 164.988281 L 221.699219 165.214844 Z M 217.0625 165.492188 L 214.789063 165.234375 L 214.871094 164.492188 L 217.148438 164.746094 Z M 212.523438 164.96875 L 210.285156 164.6875 L 210.378906 163.941406 L 212.617188 164.222656 Z M 208.058594 164.394531 L 205.855469 164.085938 L 205.957031 163.34375 L 208.160156 163.648438 Z M 203.664063 163.769531 L 201.496094 163.4375 L 201.609375 162.695313 L 203.777344 163.027344 Z M 199.273438 163.085938 L 196.996094 162.703125 L 197.121094 161.964844 L 199.398438 162.34375 Z M 194.734375 162.308594 L 192.496094 161.898438 L 192.632813 161.160156 L 194.867188 161.570313 Z M 190.273438 161.476563 L 188.078125 161.039063 L 188.226563 160.300781 L 190.421875 160.738281 Z M 185.898438 160.585938 L 183.742188 160.121094 L 183.902344 159.386719 L 186.054688 159.851563 Z M 181.605469 159.640625 C 180.851563 159.46875 180.109375 159.292969 179.367188 159.117188 L 179.542969 158.386719 C 180.28125 158.5625 181.023438 158.738281 181.769531 158.910156 Z M 177.128906 158.570313 C 176.386719 158.386719 175.648438 158.199219 174.914063 158.007813 L 175.101563 157.285156 C 175.832031 157.472656 176.570313 157.660156 177.308594 157.84375 Z M 172.722656 157.433594 C 171.996094 157.234375 171.269531 157.039063 170.554688 156.835938 L 170.753906 156.117188 C 171.472656 156.316406 172.191406 156.511719 172.917969 156.707031 Z M 168.410156 156.226563 C 167.699219 156.023438 166.992188 155.8125 166.285156 155.601563 L 166.503906 154.882813 C 167.203125 155.09375 167.910156 155.300781 168.617188 155.507813 Z M 164.1875 154.957031 C 163.457031 154.730469 162.730469 154.5 162.007813 154.265625 L 162.242188 153.550781 C 162.957031 153.785156 163.683594 154.015625 164.410156 154.242188 Z M 159.824219 153.542969 C 159.097656 153.300781 158.378906 153.054688 157.664063 152.804688 L 157.910156 152.09375 C 158.621094 152.34375 159.339844 152.589844 160.0625 152.832031 Z M 155.53125 152.042969 C 154.824219 151.789063 154.121094 151.53125 153.421875 151.265625 L 153.6875 150.566406 C 154.382813 150.828125 155.082031 151.085938 155.785156 151.339844 Z M 151.34375 150.472656 C 150.652344 150.203125 149.96875 149.929688 149.289063 149.65625 L 149.570313 148.960938 C 150.246094 149.234375 150.929688 149.503906 151.617188 149.773438 Z M 147.238281 148.8125 C 146.523438 148.515625 145.816406 148.214844 145.113281 147.910156 L 145.414063 147.21875 C 146.113281 147.523438 146.816406 147.824219 147.527344 148.121094 Z M 143.019531 146.980469 C 142.324219 146.667969 141.636719 146.351563 140.957031 146.035156 L 141.273438 145.355469 C 141.953125 145.671875 142.636719 145.988281 143.328125 146.296875 Z M 138.921875 145.066406 C 138.246094 144.738281 137.578125 144.410156 136.917969 144.078125 L 137.253906 143.40625 C 137.914063 143.738281 138.578125 144.066406 139.25 144.390625 Z M 134.941406 143.066406 C 134.289063 142.726563 133.636719 142.378906 132.992188 142.03125 L 133.347656 141.371094 C 133.988281 141.71875 134.636719 142.0625 135.289063 142.402344 Z M 130.972656 140.921875 C 130.304688 140.546875 129.644531 140.167969 128.988281 139.785156 L 129.363281 139.136719 C 130.015625 139.519531 130.675781 139.894531 131.339844 140.265625 Z M 127.035156 138.628906 C 126.390625 138.238281 125.75 137.84375 125.117188 137.449219 L 125.515625 136.8125 C 126.144531 137.207031 126.78125 137.597656 127.421875 137.988281 Z M 123.230469 136.242188 C 122.609375 135.839844 121.992188 135.429688 121.378906 135.015625 L 121.800781 134.394531 C 122.40625 134.804688 123.019531 135.210938 123.640625 135.613281 Z M 119.535156 133.746094 C 118.90625 133.308594 118.285156 132.863281 117.671875 132.414063 L 118.113281 131.808594 C 118.722656 132.253906 119.339844 132.695313 119.964844 133.132813 Z M 115.84375 131.054688 C 115.242188 130.601563 114.644531 130.136719 114.054688 129.671875 L 114.519531 129.085938 C 115.105469 129.546875 115.699219 130.003906 116.296875 130.457031 Z M 112.300781 128.265625 C 111.722656 127.789063 111.148438 127.3125 110.582031 126.832031 L 111.070313 126.257813 C 111.632813 126.738281 112.203125 127.214844 112.777344 127.683594 Z M 108.902344 125.371094 C 108.335938 124.867188 107.773438 124.359375 107.214844 123.84375 L 107.722656 123.292969 C 108.277344 123.804688 108.835938 124.308594 109.402344 124.808594 Z M 105.558594 122.285156 C 105.015625 121.761719 104.476563 121.234375 103.945313 120.699219 L 104.472656 120.171875 C 105.003906 120.699219 105.539063 121.226563 106.078125 121.746094 Z M 102.367188 119.089844 C 101.847656 118.546875 101.335938 118 100.828125 117.449219 L 101.378906 116.941406 C 101.882813 117.488281 102.390625 118.03125 102.90625 118.570313 Z M 99.328125 115.78125 C 98.832031 115.21875 98.339844 114.648438 97.855469 114.074219 L 98.429688 113.589844 C 98.910156 114.160156 99.398438 114.726563 99.890625 115.285156 Z M 96.414063 112.328125 C 95.9375 111.742188 95.472656 111.148438 95.011719 110.554688 L 95.605469 110.09375 C 96.0625 110.6875 96.527344 111.273438 96.996094 111.855469 Z M 93.652344 108.753906 C 93.203125 108.148438 92.761719 107.535156 92.328125 106.921875 L 92.941406 106.492188 C 93.371094 107.101563 93.808594 107.707031 94.253906 108.304688 Z M 91.046875 105.066406 C 90.628906 104.441406 90.214844 103.816406 89.808594 103.183594 L 90.441406 102.777344 C 90.84375 103.40625 91.253906 104.027344 91.671875 104.644531 Z M 88.613281 101.277344 C 88.21875 100.636719 87.835938 99.992188 87.457031 99.34375 L 88.101563 98.964844 C 88.480469 99.609375 88.863281 100.25 89.253906 100.886719 Z M 86.339844 97.382813 C 85.972656 96.722656 85.613281 96.058594 85.261719 95.390625 L 85.925781 95.042969 C 86.273438 95.703125 86.628906 96.363281 86.992188 97.015625 Z M 84.222656 93.375 C 83.886719 92.703125 83.554688 92.023438 83.230469 91.34375 L 83.910156 91.019531 C 84.230469 91.699219 84.558594 92.371094 84.894531 93.039063 Z M 82.292969 89.3125 C 81.984375 88.632813 81.6875 87.945313 81.390625 87.257813 L 82.082031 86.964844 C 82.375 87.648438 82.671875 88.328125 82.976563 89.003906 Z M 80.53125 85.175781 C 80.25 84.476563 79.976563 83.773438 79.707031 83.066406 L 80.40625 82.800781 C 80.675781 83.503906 80.945313 84.199219 81.226563 84.894531 Z M 78.921875 80.929688 C 78.664063 80.214844 78.417969 79.496094 78.175781 78.769531 L 78.886719 78.53125 C 79.125 79.253906 79.375 79.96875 79.628906 80.679688 Z M 77.488281 76.65625 C 77.265625 75.945313 77.050781 75.234375 76.839844 74.519531 L 77.558594 74.308594 C 77.765625 75.019531 77.984375 75.726563 78.203125 76.429688 Z M 76.226563 72.359375 C 76.027344 71.636719 75.835938 70.910156 75.648438 70.175781 L 76.375 69.992188 C 76.558594 70.71875 76.75 71.441406 76.949219 72.160156 Z M 75.105469 67.96875 C 74.929688 67.226563 74.761719 66.484375 74.601563 65.734375 L 75.332031 65.574219 C 75.496094 66.320313 75.664063 67.058594 75.835938 67.796875 Z M 74.136719 63.519531 C 73.992188 62.796875 73.855469 62.070313 73.722656 61.34375 L 74.460938 61.207031 C 74.589844 61.933594 74.730469 62.652344 74.871094 63.371094 Z M 73.335938 59.148438 C 73.214844 58.410156 73.097656 57.671875 72.984375 56.929688 L 73.726563 56.816406 C 73.839844 57.554688 73.957031 58.292969 74.078125 59.023438 Z M 72.667969 54.6875 C 72.566406 53.9375 72.472656 53.179688 72.378906 52.425781 L 73.125 52.335938 C 73.214844 53.089844 73.308594 53.839844 73.410156 54.585938 Z M 72.125 50.136719 C 72.050781 49.394531 71.976563 48.648438 71.910156 47.894531 L 72.65625 47.828125 C 72.722656 48.578125 72.796875 49.320313 72.871094 50.0625 Z M 71.730469 45.695313 C 71.675781 44.957031 71.625 44.21875 71.578125 43.476563 L 72.324219 43.429688 C 72.371094 44.167969 72.421875 44.90625 72.476563 45.640625 Z M 71.453125 41.234375 C 71.417969 40.484375 71.386719 39.730469 71.359375 38.976563 L 72.109375 38.949219 C 72.136719 39.703125 72.167969 40.453125 72.203125 41.199219 Z M 71.292969 36.695313 C 71.277344 35.933594 71.265625 35.167969 71.257813 34.394531 L 72.007813 34.390625 C 72.015625 35.15625 72.027344 35.917969 72.042969 36.679688 Z M 71.292969 36.695313 "
     id="path19" />
  <path
     fill-rule="nonzero"
     fill="rgb(72.158813%, 32.939148%, 31.369019%)"
     fill-opacity="1"
     d="M 34.125 165 L 36.441406 164.996094 L 36.441406 165.746094 L 34.125 165.75 Z M 38.742188 164.984375 L 41.03125 164.964844 L 41.039063 165.714844 L 38.746094 165.734375 Z M 43.308594 164.9375 L 45.574219 164.902344 L 45.585938 165.652344 L 43.320313 165.6875 Z M 47.828125 164.863281 L 50.066406 164.8125 L 50.085938 165.5625 L 47.84375 165.613281 Z M 52.292969 164.753906 L 54.511719 164.6875 L 54.53125 165.4375 L 52.316406 165.503906 Z M 56.710938 164.617188 L 58.90625 164.535156 L 58.933594 165.285156 L 56.738281 165.363281 Z M 61.125 164.445313 L 63.433594 164.339844 L 63.46875 165.089844 L 61.15625 165.195313 Z M 65.730469 164.230469 L 68.011719 164.109375 L 68.050781 164.859375 L 65.769531 164.980469 Z M 70.277344 163.980469 L 72.535156 163.84375 L 72.582031 164.589844 L 70.324219 164.730469 Z M 74.773438 163.695313 L 77 163.539063 L 77.050781 164.289063 L 74.824219 164.445313 Z M 79.207031 163.375 L 81.40625 163.203125 L 81.464844 163.949219 L 79.269531 164.125 Z M 83.589844 163.019531 L 85.808594 162.824219 L 85.871094 163.574219 L 83.65625 163.769531 Z M 88.109375 162.613281 L 90.398438 162.390625 L 90.46875 163.136719 L 88.179688 163.359375 Z M 92.664063 162.15625 L 94.921875 161.910156 L 95.003906 162.65625 L 92.746094 162.902344 Z M 97.160156 161.660156 L 99.382813 161.394531 L 99.472656 162.140625 L 97.246094 162.402344 Z M 101.585938 161.121094 L 103.777344 160.835938 L 103.875 161.582031 L 101.683594 161.863281 Z M 105.949219 160.542969 L 108.117188 160.238281 L 108.222656 160.980469 L 106.054688 161.285156 Z M 110.410156 159.902344 L 112.6875 159.554688 L 112.800781 160.296875 L 110.523438 160.644531 Z M 114.941406 159.195313 L 117.179688 158.824219 L 117.300781 159.566406 L 115.0625 159.9375 Z M 119.394531 158.441406 L 121.597656 158.050781 L 121.730469 158.789063 L 119.527344 159.179688 Z M 123.777344 157.644531 L 125.941406 157.226563 L 126.085938 157.964844 L 123.917969 158.382813 Z M 128.085938 156.800781 L 130.285156 156.34375 L 130.4375 157.078125 L 128.238281 157.535156 Z M 132.542969 155.859375 L 134.78125 155.363281 L 134.945313 156.09375 L 132.703125 156.59375 Z M 136.992188 154.851563 L 139.191406 154.328125 L 139.363281 155.058594 L 137.167969 155.582031 Z M 141.359375 153.792969 L 143.515625 153.242188 L 143.699219 153.96875 L 141.546875 154.519531 Z M 145.640625 152.679688 L 147.753906 152.101563 L 147.953125 152.824219 L 145.839844 153.402344 Z M 149.917969 151.488281 C 150.664063 151.273438 151.402344 151.058594 152.132813 150.839844 L 152.347656 151.5625 C 151.613281 151.777344 150.871094 151.996094 150.128906 152.210938 Z M 154.320313 150.179688 C 155.046875 149.957031 155.769531 149.730469 156.484375 149.503906 L 156.710938 150.214844 C 155.992188 150.445313 155.269531 150.671875 154.542969 150.894531 Z M 158.625 148.808594 C 159.335938 148.574219 160.039063 148.339844 160.738281 148.101563 L 160.980469 148.8125 C 160.277344 149.050781 159.570313 149.289063 158.859375 149.523438 Z M 162.832031 147.378906 C 163.523438 147.136719 164.210938 146.890625 164.894531 146.640625 L 165.152344 147.347656 C 164.464844 147.59375 163.773438 147.84375 163.078125 148.085938 Z M 166.964844 145.878906 C 167.6875 145.605469 168.40625 145.332031 169.121094 145.054688 L 169.394531 145.753906 C 168.675781 146.03125 167.953125 146.308594 167.230469 146.578125 Z M 171.25 144.214844 C 171.957031 143.933594 172.65625 143.648438 173.351563 143.359375 L 173.640625 144.050781 C 172.941406 144.339844 172.238281 144.628906 171.53125 144.910156 Z M 175.421875 142.484375 C 176.109375 142.1875 176.792969 141.890625 177.46875 141.59375 L 177.773438 142.277344 C 177.09375 142.578125 176.410156 142.878906 175.71875 143.171875 Z M 179.484375 140.683594 C 180.152344 140.378906 180.8125 140.070313 181.472656 139.757813 L 181.792969 140.433594 C 181.132813 140.75 180.464844 141.058594 179.796875 141.363281 Z M 183.484375 138.789063 C 184.175781 138.449219 184.859375 138.109375 185.539063 137.765625 L 185.878906 138.433594 C 185.195313 138.78125 184.507813 139.121094 183.8125 139.460938 Z M 187.566406 136.71875 C 188.234375 136.371094 188.898438 136.015625 189.558594 135.65625 L 189.914063 136.316406 C 189.253906 136.675781 188.585938 137.03125 187.914063 137.386719 Z M 191.519531 134.574219 C 192.167969 134.210938 192.808594 133.84375 193.449219 133.472656 L 193.824219 134.121094 C 193.183594 134.492188 192.539063 134.863281 191.886719 135.226563 Z M 195.34375 132.351563 C 195.976563 131.96875 196.601563 131.589844 197.21875 131.203125 L 197.617188 131.839844 C 196.992188 132.226563 196.363281 132.609375 195.730469 132.992188 Z M 199.15625 129.972656 C 199.796875 129.5625 200.429688 129.144531 201.058594 128.722656 L 201.476563 129.347656 C 200.84375 129.769531 200.207031 130.1875 199.5625 130.605469 Z M 202.925781 127.453125 C 203.539063 127.023438 204.152344 126.59375 204.753906 126.160156 L 205.191406 126.769531 C 204.585938 127.207031 203.972656 127.640625 203.351563 128.070313 Z M 206.550781 124.84375 C 207.144531 124.402344 207.730469 123.957031 208.308594 123.507813 L 208.769531 124.101563 C 208.183594 124.550781 207.59375 125 207 125.445313 Z M 210.046875 122.136719 C 210.640625 121.660156 211.230469 121.179688 211.808594 120.695313 L 212.289063 121.269531 C 211.707031 121.757813 211.113281 122.242188 210.515625 122.722656 Z M 213.535156 119.226563 C 214.101563 118.734375 214.664063 118.238281 215.222656 117.734375 L 215.722656 118.292969 C 215.164063 118.796875 214.597656 119.296875 214.027344 119.792969 Z M 216.871094 116.21875 C 217.414063 115.710938 217.949219 115.199219 218.476563 114.679688 L 219.003906 115.21875 C 218.46875 115.738281 217.929688 116.253906 217.382813 116.765625 Z M 220.050781 113.117188 C 220.574219 112.585938 221.09375 112.046875 221.605469 111.507813 L 222.148438 112.023438 C 221.632813 112.566406 221.113281 113.105469 220.582031 113.644531 Z M 223.140625 109.847656 C 223.644531 109.292969 224.144531 108.730469 224.632813 108.164063 L 225.199219 108.65625 C 224.707031 109.226563 224.203125 109.792969 223.695313 110.351563 Z M 226.085938 106.457031 C 226.566406 105.882813 227.035156 105.304688 227.5 104.722656 L 228.085938 105.191406 C 227.617188 105.777344 227.144531 106.359375 226.664063 106.9375 Z M 228.871094 102.964844 C 229.324219 102.371094 229.765625 101.777344 230.203125 101.175781 L 230.8125 101.617188 C 230.371094 102.222656 229.921875 102.824219 229.46875 103.417969 Z M 231.507813 99.347656 C 231.933594 98.734375 232.355469 98.117188 232.769531 97.492188 L 233.394531 97.90625 C 232.976563 98.535156 232.554688 99.160156 232.125 99.777344 Z M 233.992188 95.613281 C 234.390625 94.980469 234.785156 94.34375 235.167969 93.703125 L 235.8125 94.09375 C 235.421875 94.738281 235.027344 95.378906 234.625 96.011719 Z M 236.304688 91.773438 C 236.679688 91.125 237.042969 90.472656 237.402344 89.8125 L 238.058594 90.171875 C 237.699219 90.835938 237.332031 91.492188 236.957031 92.144531 Z M 238.449219 87.839844 C 238.789063 87.179688 239.125 86.515625 239.453125 85.847656 L 240.125 86.179688 C 239.796875 86.851563 239.460938 87.519531 239.113281 88.1875 Z M 240.414063 83.828125 C 240.730469 83.152344 241.035156 82.472656 241.335938 81.785156 L 242.023438 82.085938 C 241.722656 82.777344 241.410156 83.464844 241.09375 84.144531 Z M 242.21875 79.714844 C 242.503906 79.023438 242.785156 78.324219 243.058594 77.621094 L 243.757813 77.894531 C 243.480469 78.601563 243.199219 79.304688 242.910156 80.003906 Z M 243.851563 75.519531 C 244.101563 74.828125 244.347656 74.128906 244.589844 73.429688 L 245.296875 73.671875 C 245.058594 74.378906 244.808594 75.078125 244.554688 75.773438 Z M 245.289063 71.316406 C 245.515625 70.609375 245.734375 69.898438 245.949219 69.179688 L 246.667969 69.394531 C 246.453125 70.117188 246.230469 70.832031 246.003906 71.546875 Z M 246.570313 67.019531 C 246.773438 66.296875 246.964844 65.566406 247.15625 64.835938 L 247.882813 65.019531 C 247.691406 65.757813 247.496094 66.492188 247.292969 67.21875 Z M 247.699219 62.625 C 247.871094 61.90625 248.035156 61.179688 248.191406 60.457031 L 248.925781 60.613281 C 248.765625 61.347656 248.601563 62.074219 248.429688 62.796875 Z M 248.640625 58.292969 C 248.785156 57.566406 248.921875 56.839844 249.054688 56.109375 L 249.792969 56.242188 C 249.660156 56.976563 249.519531 57.710938 249.375 58.4375 Z M 249.433594 53.902344 C 249.550781 53.160156 249.667969 52.417969 249.773438 51.671875 L 250.515625 51.777344 C 250.40625 52.53125 250.292969 53.277344 250.171875 54.019531 Z M 250.082031 49.417969 C 250.175781 48.664063 250.269531 47.90625 250.351563 47.144531 L 251.097656 47.226563 C 251.011719 47.992188 250.921875 48.753906 250.824219 49.515625 Z M 250.578125 44.945313 C 250.648438 44.21875 250.710938 43.484375 250.769531 42.75 L 251.515625 42.8125 C 251.457031 43.550781 251.394531 44.285156 251.324219 45.015625 Z M 250.929688 40.539063 C 250.976563 39.792969 251.019531 39.050781 251.054688 38.300781 L 251.804688 38.339844 C 251.769531 39.089844 251.726563 39.839844 251.675781 40.585938 Z M 251.152344 36.046875 C 251.179688 35.292969 251.199219 34.535156 251.214844 33.773438 L 251.964844 33.789063 C 251.949219 34.554688 251.929688 35.316406 251.902344 36.074219 Z M 251.246094 31.480469 L 251.25 30.375 L 252 30.375 L 251.996094 31.480469 Z M 251.246094 31.480469 "
     id="path21" />
  <path
     fill-rule="nonzero"
     fill="rgb(0%, 0%, 0%)"
     fill-opacity="1"
     stroke-width="10.785143"
     stroke-linecap="butt"
     stroke-linejoin="miter"
     stroke="rgb(0%, 0%, 0%)"
     stroke-opacity="0.1344"
     stroke-miterlimit="4"
     d="M 288.9895 629.155337 C 288.9895 633.017204 269.826867 635.825835 231.877338 636.879072 C 216.096346 636.879072 205.575684 637.230151 201.066829 637.932309 C 196.182237 638.634466 193.927809 642.145255 193.927809 648.113596 C 193.927809 648.815753 194.679285 652.326542 196.182237 658.99704 C 196.557974 661.103513 197.30945 663.209987 198.060926 666.018617 C 198.812402 668.827248 198.812402 670.231564 198.812402 670.933722 C 198.812402 671.635879 199.563878 673.391274 201.066829 675.848826 C 202.194043 678.657456 202.945519 679.710693 202.945519 679.008535 C 202.945519 678.306378 204.448471 679.008535 207.078636 681.115008 C 209.708801 682.870403 211.211753 683.572561 211.963229 682.870403 C 212.714705 682.168245 215.34487 682.168245 219.853725 682.870403 C 224.738318 683.572561 228.495697 683.923639 231.877338 683.923639 C 236.010455 683.923639 246.155379 683.923639 261.936371 683.923639 C 278.093101 683.923639 293.122617 683.572561 307.02492 682.870403 C 359.628228 682.870403 390.062998 682.870403 397.953494 682.870403 C 405.843991 682.870403 411.480059 681.466087 414.110225 677.955299 C 414.485963 675.497747 426.885314 581.408612 450.93254 396.038973 L 487.003379 116.931278 L 509.923392 154.145638 C 526.080122 178.019 547.497183 211.371492 574.174575 253.852034 C 600.851966 296.683655 630.159523 343.377144 662.097246 393.9325 C 778.575998 580.004296 837.56685 673.742352 839.069801 675.146668 C 839.821277 675.497747 840.572753 676.550983 842.075705 677.955299 C 843.202918 679.359614 844.70587 680.412851 845.833084 681.115008 L 851.84489 682.870403 L 948.033795 682.870403 C 959.305933 682.870403 972.832498 682.870403 987.862014 682.870403 C 1003.267268 682.870403 1013.036454 683.221482 1017.169571 683.923639 C 1039.713846 683.923639 1050.985983 680.412851 1050.985983 673.040195 C 1050.985983 669.529406 1049.858769 663.912144 1047.98008 655.83733 C 1046.10139 648.113596 1044.974176 643.54957 1044.974176 642.847413 C 1042.344011 638.985545 1029.94466 636.879072 1008.151861 636.879072 C 981.47447 636.176914 964.190526 635.474757 957.051505 634.070441 C 949.536747 632.666126 943.524941 629.155337 939.016086 622.835918 C 937.137396 619.676208 913.09017 525.235994 866.874407 339.866355 C 821.034382 154.496716 797.738631 61.109739 796.987155 59.003266 C 796.987155 56.194635 797.362893 54.79032 798.114369 54.088162 C 798.490107 53.386004 801.120272 51.981689 804.877652 49.875216 C 809.010769 48.119821 814.646837 47.417664 822.161595 48.119821 C 829.300616 48.821979 840.197015 48.119821 854.850794 46.013348 L 886.03704 46.013348 C 890.170157 40.045008 892.048847 36.18314 892.048847 35.129904 C 892.048847 24.246459 889.794419 14.416251 884.909827 4.937121 C 881.528185 1.777412 876.267855 0.0220174 869.128834 0.0220174 C 865.747193 0.0220174 851.84489 0.373096 828.173402 1.075254 C 804.126176 1.777412 773.315667 2.128491 736.117614 2.128491 C 695.162182 2.128491 664.727411 2.128491 644.061826 2.128491 C 623.396241 2.128491 611.748366 1.777412 609.1182 1.075254 C 597.846063 1.075254 591.834256 4.234964 591.834256 10.905462 C 591.834256 12.309778 592.585732 16.873803 594.088684 24.948617 C 596.718849 35.832061 599.349015 41.800402 601.97918 42.853638 C 604.609345 44.257954 612.499841 45.311191 624.899192 46.013348 C 642.934612 46.013348 662.848721 47.066585 685.017258 49.173058 C 694.410706 50.928452 700.79825 55.141399 704.179892 61.109739 C 705.307105 63.567291 718.082194 112.367253 742.129421 207.158546 C 766.176647 301.598759 789.848135 396.038973 813.143886 490.128108 C 836.439636 583.866164 848.087511 630.910731 848.087511 630.910731 L 653.831012 321.961333 C 523.449957 114.122647 456.192871 8.44791 453.186967 4.937121 C 451.684016 4.234964 450.181064 3.532806 449.05385 2.830648 C 445.672209 1.075254 440.411878 0.0220174 432.89712 0.0220174 C 423.127934 0.0220174 417.116128 2.479569 414.8617 7.043595 C 413.734487 9.501147 399.832184 113.069411 373.906268 317.046229 L 334.829525 623.889154 L 266.820964 353.90951 C 222.48389 176.614685 199.939616 84.983102 199.939616 79.014761 C 204.072733 56.896793 228.119959 46.013348 272.081294 46.013348 L 281.85048 46.013348 C 285.983597 42.50256 288.238025 39.693929 288.9895 36.885298 C 289.740976 34.427746 288.613763 28.459405 285.983597 18.980276 C 283.353432 8.44791 280.723266 2.479569 278.093101 1.075254 C 275.462936 0.373096 271.705557 0.0220174 266.820964 0.0220174 C 265.69375 0.0220174 261.560633 0.0220174 255.173088 0.0220174 C 248.409806 0.0220174 237.137669 0.373096 220.980939 1.075254 C 204.824208 1.777412 183.782885 2.128491 157.105494 2.128491 C 136.815647 2.128491 116.150062 1.777412 95.108739 1.075254 C 73.691678 0.373096 61.292327 0.0220174 57.910685 0.0220174 C 48.1415 0.0220174 41.753955 0.724175 39.12379 2.128491 C 36.493625 3.181727 34.990673 6.341437 34.990673 10.905462 C 34.990673 12.309778 36.117887 16.873803 37.996576 24.948617 C 39.875266 33.02343 41.753955 37.938534 42.881169 40.045008 C 44.384121 43.906875 51.523141 46.013348 65.049706 46.013348 C 111.641207 46.013348 141.324502 59.354345 154.099591 86.036338 C 156.729756 89.898206 179.649768 179.423316 222.859628 353.90951 C 266.445226 528.746783 288.238025 620.378365 288.9895 629.155337 Z M 288.9895 629.155337 "
     transform="matrix(0.0103962, 0, 0, -0.0111264, 241.503417, 103.804932)"
     id="path23" />
  <path
     fill-rule="nonzero"
     fill="rgb(0%, 0%, 0%)"
     fill-opacity="1"
     stroke-width="15.254799"
     stroke-linecap="butt"
     stroke-linejoin="miter"
     stroke="rgb(0%, 0%, 0%)"
     stroke-opacity="0.095"
     stroke-miterlimit="4"
     d="M 120.860765 646.884601 C 120.860765 653.836658 122.455127 661.28529 125.112396 670.223649 C 127.769665 678.665432 131.489842 683.134612 136.804381 683.134612 C 137.867289 683.134612 161.782712 684.624338 209.082106 688.100367 C 256.3815 691.576395 280.828377 693.562697 281.891285 694.059273 C 289.863093 694.059273 294.114724 691.576395 294.114724 686.114065 C 294.114724 681.14831 277.1082 611.627741 244.158061 477.055783 C 210.676468 344.966702 194.201398 276.439284 194.201398 271.970105 C 206.424837 278.425586 216.52246 284.881068 222.899906 290.839974 C 238.843522 302.757786 262.227492 324.110532 291.988908 353.905061 C 321.750325 384.196166 345.134294 404.555761 362.140818 414.983847 C 388.713511 432.860564 414.223296 441.798923 438.13872 441.798923 C 457.802513 441.798923 473.746129 435.840017 484.90666 422.929054 C 496.598645 410.514667 502.444637 392.141374 502.976091 368.802326 C 502.976091 352.415335 500.850276 338.511221 496.067191 327.089985 C 491.284106 315.668748 484.90666 307.226965 476.934852 301.764635 C 468.963044 296.79888 462.054144 292.826276 456.208151 290.839974 C 449.830705 288.853672 443.984713 287.860521 438.13872 287.860521 C 424.852374 287.860521 414.223296 291.833125 406.251488 298.785182 C 397.748227 306.233814 394.02805 316.165324 394.02805 328.083136 C 394.02805 344.470127 399.342588 358.374241 409.971665 368.802326 C 420.600743 379.726987 431.22982 386.679044 441.858897 390.155072 L 457.802513 393.134525 C 449.830705 401.079733 441.858897 405.052337 433.887089 405.052337 L 430.166912 405.052337 C 408.908758 403.066035 387.650603 394.624251 366.923903 380.223562 C 346.197202 365.326297 321.750325 343.973551 294.114724 316.165324 C 265.947669 287.860521 244.158061 267.500926 228.214445 255.086538 C 229.277353 254.093387 234.591891 253.100236 243.095153 252.107085 C 251.598415 250.617359 259.570223 248.631057 267.010577 246.14818 C 274.450931 243.168727 282.954193 240.685849 293.051816 238.202972 C 303.149439 235.223519 312.184155 230.754339 320.155963 223.802282 C 328.127771 217.346801 335.568125 211.387895 341.945571 205.925565 C 348.854471 200.463234 354.16901 192.021451 358.952095 180.103639 C 363.73518 168.185827 365.860995 156.764591 364.798087 146.833081 C 364.798087 135.90842 363.203726 122.004307 360.015003 106.113891 C 356.826279 90.223475 354.700464 76.815937 354.16901 65.891276 C 354.16901 39.572775 363.203726 26.165237 380.741703 26.165237 C 413.160389 26.165237 439.201628 65.891276 458.865421 144.846779 C 460.459782 150.30911 466.837229 152.791987 479.060667 152.791987 L 482.780844 152.791987 C 493.409922 152.791987 499.255914 149.812534 499.255914 143.853628 C 499.255914 140.874175 498.193006 135.90842 496.067191 129.949515 C 468.43159 36.096747 429.104004 -11.077925 378.084434 -11.077925 C 347.791564 -11.077925 323.87614 -2.139566 304.743801 15.240576 C 286.142916 32.124143 277.1082 57.449493 277.1082 90.223475 C 277.1082 102.141287 278.171108 112.569372 279.76547 121.011156 C 281.891285 129.452939 282.954193 137.894722 282.954193 144.846779 C 282.954193 159.744044 278.171108 172.158431 269.136392 183.083092 C 259.570223 193.511177 247.878238 201.456385 234.060437 205.925565 C 220.242637 210.89132 208.550652 214.367348 200.04739 216.850226 C 191.544129 219.829678 185.166682 220.822829 181.977959 219.829678 L 179.852144 219.829678 C 171.880336 192.021451 164.971436 165.206374 159.125443 138.887873 C 152.747997 113.065948 148.496366 93.699504 144.776189 80.788541 C 141.587466 68.374154 138.930196 55.959766 135.741473 44.041955 C 133.084204 32.124143 130.958388 24.178935 128.832573 20.206331 C 127.238211 16.233727 124.580942 11.764548 121.923673 6.798793 C 119.266403 2.329613 115.546226 -0.64984 110.763142 -2.139566 C 102.25988 -8.098472 93.225164 -11.077925 83.127541 -11.077925 C 71.435556 -11.077925 62.932294 -7.601897 57.086302 -1.146415 C 51.240309 5.805642 48.051586 11.267972 48.051586 16.233727 C 48.051586 22.689208 60.275025 75.822786 85.253356 176.131035 C 109.700234 275.942709 134.147112 374.264656 158.062535 471.096877 L 195.264306 616.096921 C 195.795759 624.538704 193.13849 630.001034 187.823952 631.987336 C 182.509413 633.973638 169.75452 635.463365 149.02782 636.953091 L 144.244735 636.953091 C 137.335835 636.953091 133.084204 636.953091 130.958388 636.953091 C 128.832573 636.953091 126.706758 637.946242 124.049488 639.932544 C 121.392219 641.918846 120.329311 644.401724 120.860765 646.884601 Z M 120.860765 646.884601 "
     transform="matrix(0.00735012, 0, 0, -0.00786638, 253.334315, 99.209732)"
     id="path25" />
  <path
     fill-rule="nonzero"
     fill="rgb(0%, 0%, 0%)"
     fill-opacity="1"
     stroke-width="10.785143"
     stroke-linecap="butt"
     stroke-linejoin="miter"
     stroke="rgb(0%, 0%, 0%)"
     stroke-opacity="0.1344"
     stroke-miterlimit="4"
     d="M 83.989628 519.969811 C 83.989628 525.235994 85.492579 529.800019 88.122745 532.959729 C 90.75291 536.470518 93.383075 538.225912 96.013241 538.92807 L 99.019144 539.981306 C 103.527999 539.981306 155.004093 517.16118 253.071687 471.169849 C 351.139282 424.82744 448.079663 379.187188 543.89283 333.898015 L 687.048974 265.086558 C 691.557829 261.575769 693.812256 256.660665 693.812256 249.990167 C 693.812256 243.319668 691.557829 238.404564 687.048974 234.893776 C 685.546022 233.840539 588.229904 187.498129 395.100618 95.866547 L 106.90964 -40.000973 L 100.897834 -40.000973 C 88.87422 -38.596657 82.862414 -31.926159 82.862414 -19.989478 C 82.862414 -19.28732 82.862414 -18.234083 82.862414 -16.829768 C 82.486676 -12.265743 87.371269 -6.99956 97.89193 -1.031219 C 110.667019 5.639279 160.640161 29.512642 248.187095 70.939947 C 300.038926 95.515468 343.248786 115.878042 377.816674 132.027669 L 626.179433 249.990167 L 377.816674 367.952664 C 185.814601 458.53101 88.498483 505.575578 85.868317 509.086366 C 84.741103 511.543918 83.989628 515.405786 83.989628 519.969811 Z M 83.989628 519.969811 "
     transform="matrix(0.0103962, 0, 0, -0.0111264, 260.572139, 103.804932)"
     id="path27" />
  <path
     fill-rule="nonzero"
     fill="rgb(0%, 0%, 0%)"
     fill-opacity="1"
     stroke-width="10.785143"
     stroke-linecap="butt"
     stroke-linejoin="miter"
     stroke="rgb(0%, 0%, 0%)"
     stroke-opacity="0.1344"
     stroke-miterlimit="4"
     d="M 212.889408 577.897823 L 200.114319 572.982719 C 190.720871 569.823009 177.194306 566.312221 159.910362 563.152511 C 142.626419 559.641722 123.463785 557.18417 102.046724 556.130934 L 82.884091 556.130934 L 82.884091 602.122265 L 102.046724 602.122265 C 133.232971 603.175501 162.16479 608.441684 188.842182 616.867577 C 215.519573 625.644548 234.306469 633.719362 244.82713 641.092018 C 255.72353 648.464674 265.116977 655.83733 273.007474 662.858908 C 274.510425 664.965381 278.267804 666.018617 285.031087 666.018617 C 291.042893 666.018617 296.678962 663.912144 301.939293 660.050277 L 301.939293 360.931087 L 303.066506 61.109739 C 307.575361 56.194635 311.708478 53.386004 315.09012 51.981689 C 318.471761 50.577373 326.362257 49.173058 339.137346 48.119821 C 351.536697 46.715506 372.202282 46.013348 401.134101 46.013348 L 427.060017 46.013348 L 427.060017 0.0220174 L 416.163617 0.0220174 C 401.885577 2.128491 348.906531 2.830648 256.850743 2.830648 C 166.297907 2.830648 114.070337 2.128491 100.168035 0.0220174 L 88.144422 0.0220174 L 88.144422 46.013348 L 114.070337 46.013348 C 128.724116 46.013348 141.499205 46.013348 152.019866 46.013348 C 162.540528 46.013348 171.1825 46.364427 176.818568 47.066585 C 182.830375 47.768743 188.466444 48.821979 192.975299 49.875216 C 197.484154 51.279531 200.490057 51.981689 200.865795 51.981689 C 201.617271 51.981689 203.49596 53.737083 206.877601 56.896793 C 210.259242 60.407582 212.51367 61.811897 212.889408 61.109739 Z M 212.889408 577.897823 "
     transform="matrix(0.0103962, 0, 0, -0.0111264, 271.548476, 103.804932)"
     id="path29" />
  <path
     fill-rule="nonzero"
     fill="rgb(0%, 0%, 0%)"
     fill-opacity="1"
     stroke-width="11.265144"
     stroke-linecap="butt"
     stroke-linejoin="miter"
     stroke="rgb(0%, 0%, 0%)"
     stroke-opacity="0.133"
     stroke-miterlimit="4"
     d="M 95.840368 585.033661 C 133.352196 638.939134 184.471254 666.075223 248.829781 666.075223 C 280.825163 666.075223 312.820545 657.274329 345.18369 640.039246 C 377.179072 622.804162 402.922483 592.001035 423.149448 547.996566 C 447.78957 492.624277 459.925749 416.716569 459.925749 319.906739 C 459.925749 216.496238 445.582992 137.654899 416.897477 83.016018 C 403.658009 55.146521 385.269858 32.777583 362.100788 15.909203 C 338.563956 -0.592472 318.33699 -10.860181 301.052129 -14.893924 C 283.767267 -18.927667 266.850169 -21.494595 249.93307 -21.861299 C 232.648209 -21.861299 215.363347 -20.027779 198.078485 -15.994036 C 180.793624 -11.960293 160.198895 -1.32588 137.029826 15.909203 C 113.492993 33.510991 95.472605 55.513225 81.865374 83.016018 C 53.179859 137.654899 38.837102 216.496238 38.837102 319.906739 C 38.837102 436.151876 57.960778 524.160813 95.840368 585.033661 Z M 320.911331 597.134889 C 301.052129 618.403716 277.515296 629.038129 249.93307 629.038129 C 221.983081 629.038129 198.078485 618.403716 177.85152 597.134889 C 161.302184 579.533102 150.269294 555.697348 145.120612 524.89422 C 139.604167 494.457797 137.029826 430.284614 137.029826 333.108079 C 137.029826 227.497355 139.604167 158.190318 145.120612 124.820263 C 150.269294 91.816911 162.405473 65.41423 181.161387 45.978923 C 199.549538 26.176913 222.718607 15.909203 249.93307 15.909203 C 276.77977 15.909203 299.213314 26.176913 317.969227 45.978923 C 337.460667 66.147638 349.229083 94.017135 354.010002 129.954117 C 358.790921 165.8911 361.365262 233.731322 362.100788 333.108079 C 362.100788 429.551206 359.158684 493.357685 354.010002 524.160813 C 348.493557 554.597237 337.82843 579.166398 320.911331 597.134889 Z M 320.911331 597.134889 "
     transform="matrix(0.0106217, 0, 0, -0.0106523, 13.501548, 103.376501)"
     id="path31" />
  <path
     fill-rule="nonzero"
     fill="rgb(0%, 0%, 0%)"
     fill-opacity="1"
     stroke-width="11.265144"
     stroke-linecap="butt"
     stroke-linejoin="miter"
     stroke="rgb(0%, 0%, 0%)"
     stroke-opacity="0.133"
     stroke-miterlimit="4"
     d="M 693.841656 -10.860181 C 693.841656 -10.860181 693.841656 -13.793813 693.841656 -18.927667 C 693.841656 -24.428226 692.002841 -28.828673 687.957447 -32.862416 C 683.912054 -36.896159 680.602187 -39.463086 678.027846 -39.82979 C 673.246927 -39.82979 622.127868 -17.094148 523.935144 29.110544 C 426.110184 74.948532 329.388512 120.78652 234.137892 165.8911 L 89.974791 234.831433 C 85.193872 238.498472 82.987294 243.265623 82.987294 249.866293 C 82.987294 257.200371 85.561635 262.70093 91.07808 266.001265 C 473.183849 448.619809 668.833771 539.92908 678.027846 539.92908 C 679.866661 539.92908 683.176528 538.095561 686.854158 534.061818 C 690.899551 530.028075 693.473893 524.89422 693.841656 519.026958 C 694.577182 513.159696 692.370604 508.392545 686.854158 505.09221 C 686.486395 504.358802 596.384458 461.454445 416.916108 376.012436 L 151.023451 249.866293 L 416.916108 124.086855 C 596.384458 38.644845 686.486395 -4.259511 686.854158 -4.992919 C 691.635077 -9.026662 693.841656 -13.793813 693.841656 -18.927667 Z M 693.841656 -10.860181 "
     transform="matrix(0.0106217, 0, 0, -0.0106523, 21.763069, 103.376501)"
     id="path33" />
  <path
     fill-rule="nonzero"
     fill="rgb(0%, 0%, 0%)"
     fill-opacity="1"
     stroke-width="11.265144"
     stroke-linecap="butt"
     stroke-linejoin="miter"
     stroke="rgb(0%, 0%, 0%)"
     stroke-opacity="0.133"
     stroke-miterlimit="4"
     d="M 288.982563 629.038129 C 288.982563 633.071872 269.858887 635.638799 231.979297 637.105615 C 216.165487 637.105615 205.50036 637.472319 201.087204 637.839022 C 196.306284 638.57243 194.099706 641.872765 194.099706 648.106732 C 194.099706 648.84014 194.835232 652.507179 195.938521 659.107849 C 196.674048 660.941368 197.409574 663.508296 198.1451 666.075223 C 198.512863 668.64215 198.880626 670.47567 198.880626 670.842374 C 198.880626 671.575782 199.616152 673.409301 201.087204 675.976228 C 202.190493 678.543156 202.926019 679.643267 202.926019 678.90986 C 202.926019 678.176452 204.397071 678.90986 206.971412 681.110083 C 209.545753 682.943603 211.384568 683.67701 212.120094 682.943603 C 212.487857 682.210195 215.429961 682.210195 219.843117 682.943603 C 224.624036 683.67701 228.669429 684.043714 231.979297 684.043714 C 236.02469 684.043714 245.954291 684.043714 262.135863 684.043714 C 277.949673 684.043714 293.027956 683.67701 307.002951 682.943603 C 359.593061 682.943603 390.117391 682.943603 397.840415 682.943603 C 405.931201 682.943603 411.447646 681.476787 414.021987 678.176452 C 414.757513 675.242821 426.893692 581.366621 451.166051 396.181151 L 486.839063 117.119481 L 510.008133 154.156575 C 525.821942 177.992328 547.152197 211.362384 573.998897 253.900036 C 600.845597 296.804393 629.898875 343.375789 661.894256 393.980927 C 778.842894 579.899806 837.684976 673.776005 839.156028 674.876117 C 839.523791 675.609524 840.62708 676.709636 842.098132 678.176452 C 843.201421 679.276564 844.672473 680.376675 846.143525 681.110083 L 852.027733 682.943603 L 948.013879 682.943603 C 959.414532 682.943603 972.654001 682.943603 988.100047 682.943603 C 1003.178331 682.943603 1013.107932 683.310306 1017.153325 684.043714 C 1039.586869 684.043714 1050.987522 680.376675 1050.987522 673.042597 C 1050.987522 669.742262 1049.884233 663.875 1048.045418 656.174218 C 1045.83884 648.106732 1045.103314 643.706285 1045.103314 642.972877 C 1042.16121 638.939134 1030.025031 637.105615 1007.95925 637.105615 C 981.480313 636.372207 964.195452 635.272095 956.840191 634.171983 C 949.484931 632.705168 943.600723 629.038129 938.819804 623.170866 C 936.980989 619.503827 913.076393 525.260924 867.106017 340.075453 C 821.13564 154.523279 797.598808 61.013784 796.863282 59.180264 C 796.863282 56.246633 797.231045 54.779817 797.966571 54.046409 C 798.702097 53.313002 800.908675 51.846186 804.954068 50.012666 C 808.999461 48.179147 814.515906 47.445739 821.871166 48.179147 C 829.226426 48.545851 840.259317 48.179147 854.969837 45.978923 L 885.86193 45.978923 C 889.907323 40.111661 892.113901 36.444622 892.113901 34.977806 C 892.113901 24.343393 889.53956 14.442388 885.126404 4.908086 C 881.816537 1.607751 876.300092 0.140936 868.944832 0.140936 C 865.634965 0.140936 852.027733 0.50764 828.123137 0.874343 C 803.850779 1.607751 773.326449 1.974455 736.182385 1.974455 C 695.36069 1.974455 664.836361 1.974455 643.873869 1.974455 C 623.27914 1.974455 611.510724 1.607751 608.936383 0.874343 C 597.53573 0.874343 592.019284 4.174679 592.019284 11.142053 C 592.019284 12.242164 592.75481 17.009315 593.858099 25.076801 C 596.800204 35.711214 599.374545 41.578477 601.948886 43.045292 C 604.523227 44.512108 612.24625 45.245516 625.117955 45.978923 C 643.138343 45.978923 662.997546 47.079035 685.063326 48.912555 C 694.257401 51.112778 700.509373 55.146521 703.81924 61.013784 C 705.290292 63.580711 718.161997 112.35233 742.066593 206.961937 C 765.971189 301.571544 789.508021 396.181151 813.044854 490.05735 C 836.213924 583.933549 847.98234 630.871648 847.98234 630.871648 L 654.171233 322.106962 C 523.247601 113.819145 456.314733 8.208422 453.004866 4.908086 C 451.533814 4.174679 450.430525 3.807975 448.959473 3.074567 C 445.649606 0.874343 440.500924 0.140936 433.145664 0.140936 C 422.848299 0.140936 416.964091 2.341159 415.125276 7.10831 C 413.654224 9.675237 400.046993 113.085738 373.935819 316.973108 L 334.95294 623.904274 L 266.916783 354.010202 C 222.417458 176.525513 199.983915 84.849537 199.983915 78.982275 C 204.029308 56.980041 227.933903 45.978923 272.065465 45.978923 L 281.995066 45.978923 C 286.040459 42.678588 288.247037 39.744957 288.982563 37.17803 C 289.718089 34.244399 288.6148 28.377136 286.040459 18.842835 C 283.466118 8.208422 280.524014 2.341159 277.949673 0.874343 C 275.375332 0.50764 271.697702 0.140936 266.916783 0.140936 C 265.813494 0.140936 261.7681 0.140936 255.148366 0.140936 C 248.160869 0.140936 237.127979 0.50764 220.946406 0.874343 C 205.132597 1.607751 183.802342 1.974455 156.955642 1.974455 C 137.09644 1.974455 116.501711 1.607751 95.171456 0.874343 C 73.841202 0.50764 61.337259 0.140936 58.027392 0.140936 C 48.097791 0.140936 41.84582 0.50764 38.903716 1.974455 C 36.329375 3.441271 34.858323 6.374902 34.858323 11.142053 C 34.858323 12.242164 35.961612 17.009315 38.16819 25.076801 C 40.007005 33.144287 41.84582 37.911438 42.949109 40.111661 C 44.420161 44.145404 51.775421 45.978923 65.01489 45.978923 C 111.720792 45.978923 141.509596 59.180264 154.013538 85.949649 C 156.587879 89.983392 179.756949 179.459144 223.152984 354.010202 C 266.181257 528.561259 288.247037 620.237235 288.982563 629.038129 Z M 288.982563 629.038129 "
     transform="matrix(0.0106217, 0, 0, -0.0106523, 32.977403, 103.376501)"
     id="path35" />
  <path
     fill-rule="nonzero"
     fill="rgb(0%, 0%, 0%)"
     fill-opacity="1"
     stroke-width="15.933725"
     stroke-linecap="butt"
     stroke-linejoin="miter"
     stroke="rgb(0%, 0%, 0%)"
     stroke-opacity="0.094"
     stroke-miterlimit="4"
     d="M 120.888443 646.859301 C 120.888443 653.602088 122.448965 661.382228 125.049835 670.199719 C 127.650705 678.498534 131.812097 683.166617 137.013837 683.166617 C 137.534011 683.166617 161.462016 684.722645 208.79785 687.834701 C 256.133685 691.465432 280.581863 693.540136 282.142385 694.058812 C 289.944995 694.058812 294.106387 691.465432 294.106387 685.759997 C 294.106387 681.091913 277.460819 611.589337 244.169683 477.252267 C 210.878546 344.989901 194.232978 276.524676 194.232978 271.856593 C 206.717154 278.59938 216.080286 284.823491 222.842548 291.047603 C 238.967943 302.977149 261.855599 324.242863 292.025691 353.807392 C 322.195784 383.890597 345.08344 404.118959 362.249182 415.011154 C 388.778057 433.164812 413.746409 441.982303 438.194588 441.982303 C 457.9612 441.982303 473.56642 435.758191 485.010248 422.791293 C 496.454076 410.34307 502.17599 392.189412 503.216338 368.848994 C 503.216338 352.251364 500.615468 338.247114 495.933902 326.836243 C 491.252336 315.425372 485.010248 307.126557 477.207638 301.939797 C 468.884854 296.753038 462.122592 293.122306 455.880504 291.047603 C 450.15859 288.972899 443.916502 287.935547 438.194588 287.935547 C 424.670063 287.935547 413.746409 291.566279 405.943799 298.827742 C 398.141189 306.089205 393.979797 315.944048 393.979797 327.873595 C 393.979797 344.471225 399.181537 358.475475 410.105191 368.848994 C 420.508671 379.741189 431.432325 386.483977 441.835806 390.114708 L 457.9612 393.226764 C 450.15859 401.006903 441.835806 405.156311 434.033195 405.156311 L 429.871803 405.156311 C 408.544669 403.081607 387.737709 394.782792 366.930749 379.741189 C 346.123788 365.218263 322.195784 343.952549 294.106387 315.944048 C 266.016991 287.935547 244.169683 267.707185 228.044289 255.258962 C 229.084637 254.22161 234.286377 253.184259 243.129335 252.146907 C 251.452119 250.590879 259.774903 248.516175 267.057339 245.922795 C 274.339775 243.329416 283.182733 240.736036 293.066039 238.142656 C 302.949346 235.549276 311.792304 230.881193 320.115088 224.138406 C 327.917698 217.395618 335.200134 211.171507 341.962396 205.984748 C 348.724658 200.797988 354.446572 191.980497 359.128138 180.05095 C 363.809704 168.121404 365.890401 157.229209 364.850053 146.85569 C 364.850053 135.444819 363.28953 121.959244 360.168486 105.88029 C 356.527268 89.801336 354.446572 76.834437 353.926398 65.942242 C 353.926398 39.489769 362.769356 26.004195 380.975447 26.004195 C 413.226235 26.004195 439.234936 65.423566 459.001548 144.780986 C 460.56207 150.486421 466.804158 153.079801 478.76816 153.079801 L 482.929552 153.079801 C 493.853206 153.079801 499.054946 149.967745 499.054946 143.743634 C 499.054946 140.631578 498.014598 135.963495 495.933902 130.25806 C 468.884854 35.859038 429.351629 -10.821798 377.854403 -10.821798 C 348.204484 -10.821798 323.756306 -2.522982 305.030042 15.112 C 286.303777 32.228306 276.940645 57.124751 276.940645 89.801336 C 276.940645 102.249559 277.980993 112.104401 280.061689 120.921893 C 282.142385 129.739384 283.182733 137.519523 283.182733 144.780986 C 283.182733 159.822588 278.501167 172.270811 269.138035 183.163006 C 259.774903 193.536525 247.810901 201.316664 233.766203 205.984748 C 220.241678 210.652831 208.79785 214.283563 199.954892 216.876942 C 191.111934 219.470322 185.39002 220.507674 181.748802 219.988998 L 180.18828 219.988998 C 171.865496 191.980497 165.103234 165.009348 158.861146 139.075551 C 153.139231 113.141753 148.457665 93.432067 144.816447 80.983845 C 141.695403 68.535622 138.574359 56.087399 135.973489 44.157853 C 133.372619 32.228306 130.771749 23.929491 129.211227 19.780083 C 127.130531 16.149352 124.529661 11.481268 121.928791 6.813185 C 119.327921 2.145101 115.686703 -0.448279 111.005137 -2.004306 C 102.162179 -8.228418 92.799047 -10.821798 82.91574 -10.821798 C 71.471912 -10.821798 63.149128 -7.709742 56.90704 -0.966955 C 51.185126 5.775833 48.064082 11.481268 48.064082 16.149352 C 48.064082 22.892139 60.548258 75.797085 84.996437 175.901543 C 109.444615 276.006 133.892793 374.55443 157.820798 471.028156 L 194.753152 616.25742 C 195.7935 624.556235 193.19263 629.742995 187.99089 631.817699 C 182.78915 633.892402 169.7848 635.44843 148.977839 637.004458 L 143.776099 637.004458 C 137.534011 637.004458 132.852445 637.004458 130.771749 637.004458 C 129.211227 637.004458 126.610357 638.04181 124.009487 640.116514 C 121.408617 642.191218 120.368269 644.265921 120.888443 646.859301 Z M 120.888443 646.859301 "
     transform="matrix(0.00750951, 0, 0, -0.0075312, 45.064844, 98.977093)"
     id="path37" />
  <path
     fill-rule="nonzero"
     fill="rgb(0%, 0%, 0%)"
     fill-opacity="1"
     stroke-width="11.265144"
     stroke-linecap="butt"
     stroke-linejoin="miter"
     stroke="rgb(0%, 0%, 0%)"
     stroke-opacity="0.133"
     stroke-miterlimit="4"
     d="M 694.091465 -10.860181 C 694.091465 -10.860181 694.091465 -13.793813 694.091465 -18.927667 C 694.091465 -24.428226 691.884887 -28.828673 687.839494 -32.862416 C 684.161864 -36.896159 680.484234 -39.463086 677.909893 -39.82979 C 673.496736 -39.82979 622.009915 -17.094148 523.817191 29.110544 C 425.99223 74.948532 329.270558 120.78652 234.019938 165.8911 L 89.856838 234.831433 C 85.443682 238.498472 82.869341 243.265623 82.869341 249.866293 C 82.869341 257.200371 85.811445 262.70093 90.960127 266.001265 C 473.065895 448.619809 668.715817 539.92908 677.909893 539.92908 C 680.116471 539.92908 683.058575 538.095561 687.103968 534.061818 C 691.149361 530.028075 693.355939 524.89422 694.091465 519.026958 C 694.826991 513.159696 692.25265 508.392545 687.103968 505.09221 C 686.368442 504.358802 596.266504 461.454445 417.165918 376.012436 L 150.905498 249.866293 L 417.165918 124.086855 C 596.266504 38.644845 686.368442 -4.259511 687.103968 -4.992919 C 691.517124 -9.026662 694.091465 -13.793813 694.091465 -18.927667 Z M 694.091465 -10.860181 "
     transform="matrix(0.0106217, 0, 0, -0.0106523, 52.459635, 103.376501)"
     id="path39" />
  <path
     fill-rule="nonzero"
     fill="rgb(0%, 0%, 0%)"
     fill-opacity="1"
     stroke-width="11.265144"
     stroke-linecap="butt"
     stroke-linejoin="miter"
     stroke="rgb(0%, 0%, 0%)"
     stroke-opacity="0.133"
     stroke-miterlimit="4"
     d="M 55.840964 347.042828 C 55.840964 355.843721 60.621883 362.444392 70.183722 366.844838 L 707.149257 366.844838 C 717.078858 361.710984 721.859777 355.110313 721.859777 347.042828 C 721.859777 339.70875 717.446621 333.474783 707.884783 327.974225 L 390.137541 326.874113 L 72.022537 326.874113 C 61.357409 330.174448 55.840964 337.141822 55.840964 347.042828 Z M 55.840964 153.056463 C 55.840964 162.957468 61.357409 169.558139 72.022537 172.858474 L 707.884783 172.858474 C 717.446621 166.257804 721.859777 159.657133 721.859777 153.056463 C 721.859777 144.255569 717.078858 137.654899 707.149257 132.887748 L 70.183722 132.887748 C 60.621883 137.654899 55.840964 144.255569 55.840964 153.056463 Z M 55.840964 153.056463 "
     transform="matrix(0.0106217, 0, 0, -0.0106523, 60.723283, 103.376501)"
     id="path41" />
  <path
     fill-rule="nonzero"
     fill="rgb(0%, 0%, 0%)"
     fill-opacity="1"
     stroke-width="11.265144"
     stroke-linecap="butt"
     stroke-linejoin="miter"
     stroke="rgb(0%, 0%, 0%)"
     stroke-opacity="0.133"
     stroke-miterlimit="4"
     d="M 212.923165 578.066286 L 200.05146 572.932432 C 190.489622 569.632097 177.250153 566.331761 159.965292 563.031426 C 142.68043 559.731091 123.188991 557.164164 101.858736 556.064052 L 83.102822 556.064052 L 83.102822 601.90204 L 101.858736 601.90204 C 133.486355 603.368856 162.17187 608.50271 189.01857 616.9369 C 215.497506 625.737794 234.25342 633.80528 244.918547 641.139358 C 255.583675 648.473436 265.145513 655.807514 272.868536 663.141592 C 274.339588 664.975111 278.384981 666.075223 285.004716 666.075223 C 290.888924 666.075223 296.773132 663.875 301.921814 659.841257 L 301.921814 360.977576 L 303.025103 61.013784 C 307.806022 56.246633 311.483652 53.313002 315.161282 51.846186 C 318.47115 50.746074 326.194173 49.279259 339.065878 48.179147 C 351.569821 46.712331 372.164549 45.978923 400.850064 45.978923 L 426.961238 45.978923 L 426.961238 0.140936 L 415.928347 0.140936 C 401.953353 1.974455 348.995479 3.074567 257.054727 3.074567 C 166.217263 3.074567 113.994915 1.974455 100.019921 0.140936 L 87.883742 0.140936 L 87.883742 45.978923 L 113.994915 45.978923 C 128.705436 45.978923 141.209378 45.978923 151.874506 45.978923 C 162.539633 45.978923 170.998182 46.345627 176.88239 47.079035 C 183.134361 47.812443 188.283044 48.545851 193.063963 50.012666 C 197.844882 51.479482 200.419223 51.846186 201.154749 51.846186 C 201.522512 51.846186 203.72909 53.679705 207.038957 56.980041 C 210.348824 60.280376 212.187639 61.747191 212.923165 61.013784 Z M 212.923165 578.066286 "
     transform="matrix(0.0106217, 0, 0, -0.0106523, 71.937623, 103.376501)"
     id="path43" />
  <path
     fill-rule="nonzero"
     fill="rgb(0%, 0%, 0%)"
     fill-opacity="1"
     stroke-width="11.162144"
     stroke-linecap="butt"
     stroke-linejoin="miter"
     stroke="rgb(0%, 0%, 0%)"
     stroke-opacity="0.1332"
     stroke-miterlimit="4"
     d="M 120.965177 647.047331 C 120.965177 653.702018 122.418581 661.46582 124.962038 669.969031 C 127.505495 678.841948 131.502357 682.908701 136.952622 682.908701 C 137.679324 682.908701 161.660492 684.757225 208.896126 688.084569 C 256.495111 691.411912 280.83963 693.260437 281.929683 693.999846 C 289.923406 693.999846 293.920267 691.411912 293.920267 685.86634 C 293.920267 681.429882 277.20612 611.555666 244.141176 476.983104 C 210.712881 344.998475 193.998734 276.60308 193.998734 272.166622 C 206.71602 278.821309 216.163147 285.106291 223.066816 291.021569 C 239.054262 302.852123 261.945377 323.925299 292.103512 353.871392 C 321.898297 383.817484 345.152763 404.15125 361.86691 414.872691 C 388.754886 432.988228 413.826107 441.861144 438.170626 441.861144 C 458.154933 441.861144 473.779027 435.576162 485.042909 423.006197 C 496.306791 410.436232 502.483759 392.320695 502.84711 369.02929 C 502.84711 352.392572 500.667004 338.343788 495.94344 326.882938 C 491.219877 315.791793 485.042909 307.288582 477.049187 302.112714 C 469.055464 296.567141 462.151794 292.870093 455.974827 291.021569 C 450.16121 289.173044 443.984243 288.06393 438.170626 288.06393 C 424.726638 288.06393 413.826107 291.760978 405.832385 299.155075 C 397.838662 306.179467 393.841801 316.161498 393.841801 327.992053 C 393.841801 344.628771 399.292066 358.30785 409.829246 369.02929 C 420.729777 379.750731 431.266957 386.775123 442.167488 390.102466 L 458.154933 393.060105 C 450.16121 400.823907 442.167488 404.89066 434.173765 404.89066 L 430.176904 404.89066 C 408.739193 403.042136 387.664833 394.538924 366.953825 380.120435 C 346.242816 365.332242 321.898297 343.889361 293.920267 316.161498 C 265.942238 288.06393 244.141176 267.730164 228.153731 255.160199 C 229.243784 254.420789 234.330698 253.311675 243.051123 251.832855 C 251.771548 250.723741 259.765271 248.505512 267.032291 245.917578 C 274.299312 243.329644 283.019736 240.74171 292.830214 238.153776 C 303.004043 235.196137 312.087819 230.759679 320.081542 224.104992 C 328.075264 217.450305 335.342285 211.165323 341.882603 205.989455 C 348.786273 200.813587 354.236538 191.940671 358.960102 180.110116 C 363.683665 167.909856 365.50042 156.818711 365.137069 146.83668 C 365.137069 135.745535 363.320314 122.066456 360.050155 106.169148 C 356.779996 89.902135 354.599889 76.59276 353.873187 65.87132 C 353.873187 39.252571 362.956963 25.943197 381.124515 25.943197 C 413.099405 25.943197 438.897329 65.501615 458.881635 144.988156 C 460.335039 150.164024 466.875358 153.121663 478.865942 153.121663 L 482.862803 153.121663 C 493.763334 153.121663 498.850249 150.164024 498.850249 143.879041 C 498.850249 140.551698 498.123546 136.11524 495.94344 129.830257 C 468.692113 35.925228 429.450202 -11.027287 377.854355 -11.027287 C 348.059571 -11.027287 323.715052 -2.154371 304.820798 14.852052 C 286.289896 32.228179 276.842769 57.368108 276.842769 89.902135 C 276.842769 102.102394 277.932822 112.45413 280.112928 120.957341 C 281.929683 129.830257 283.019736 137.594059 283.019736 144.988156 C 283.019736 159.77635 278.296173 172.346314 268.849046 183.067755 C 259.765271 193.789195 248.138038 201.183292 233.967347 205.989455 C 220.160008 210.795618 208.532775 214.492666 200.175702 217.0806 C 191.455277 219.668534 185.278309 220.777649 182.00815 220.038239 L 179.828044 220.038239 C 171.834321 191.940671 164.930652 164.952217 159.117035 139.072879 C 152.940068 112.823835 148.216504 93.599183 144.946345 81.029218 C 141.676186 68.459254 138.769377 55.889289 135.862569 44.058734 C 133.319112 31.858474 131.139006 24.094673 128.9589 20.027919 C 127.142144 15.961166 124.598687 11.524708 122.05523 7.08825 C 119.511773 2.282087 115.514911 -0.675552 111.154699 -2.154371 C 102.434274 -8.069649 92.987148 -11.027287 83.17667 -11.027287 C 71.549437 -11.027287 62.829012 -7.699944 57.015396 -1.045257 C 50.838428 5.609431 47.93162 11.155003 47.93162 15.961166 C 47.93162 22.615853 60.285555 75.853351 84.993425 176.043363 C 109.701295 275.86367 134.045814 374.205158 158.026982 471.067827 L 195.088787 615.992125 C 195.815489 624.495336 193.272032 630.040909 187.821767 631.889433 C 182.734852 634.107662 169.654215 635.586481 148.943206 637.065301 L 143.856292 637.065301 C 137.315973 637.065301 132.955761 637.065301 131.139006 637.065301 C 128.9589 637.065301 126.778793 638.174415 123.871985 640.022939 C 121.328528 641.871464 120.238475 644.459397 120.965177 647.047331 Z M 120.965177 647.047331 "
     transform="matrix(0.0107506, 0, 0, -0.0105659, 276.754236, 37.332706)"
     id="path45" />
  <path
     fill-rule="nonzero"
     fill="rgb(0%, 0%, 0%)"
     fill-opacity="1"
     stroke-width="11.162144"
     stroke-linecap="butt"
     stroke-linejoin="miter"
     stroke="rgb(0%, 0%, 0%)"
     stroke-opacity="0.1332"
     stroke-miterlimit="4"
     d="M 117.011953 58.846928 C 117.011953 37.034342 125.369027 25.943197 142.083174 25.943197 C 166.791045 25.943197 187.502053 61.065157 204.942903 130.939372 C 208.939764 144.248746 212.209923 151.273138 215.116732 152.012548 C 216.206785 152.751958 219.840295 153.121663 224.927209 153.121663 L 228.924071 153.121663 C 235.101038 153.121663 239.0979 153.121663 240.914655 153.121663 C 243.094761 153.121663 244.548165 152.382253 246.001569 150.903433 C 247.454973 149.794319 248.181675 147.206385 248.181675 143.879041 C 247.454973 140.181993 246.36492 134.63642 244.911516 127.981733 C 243.821463 121.327046 239.824602 108.757081 234.010985 89.902135 C 227.834018 71.416892 221.293699 55.519584 214.026678 42.94962 C 206.759658 30.379655 196.222478 18.179395 183.141841 5.979135 C 169.697853 -5.851419 154.437109 -11.766697 136.99626 -11.027287 C 113.015092 -11.027287 90.487328 -3.63319 70.13967 11.155003 C 49.428662 25.573492 38.528131 50.343716 38.16478 85.095972 C 38.16478 92.859773 38.16478 98.775051 38.891482 102.102394 L 103.931316 360.156374 C 146.080036 529.850896 167.154396 617.840649 167.154396 623.016517 C 167.154396 624.865041 166.791045 626.713565 166.064342 627.82268 C 165.33764 629.301499 163.884236 630.780318 162.067481 631.889433 C 159.887375 633.368252 158.433971 634.107662 156.980567 634.107662 C 155.527163 634.107662 152.983705 634.477367 148.986844 634.847072 C 144.989983 635.586481 142.446525 635.956186 140.993121 635.956186 C 139.539717 635.956186 136.632909 636.325891 131.909346 637.065301 C 127.185782 637.80471 123.915623 637.80471 122.098868 637.065301 C 115.195198 637.065301 110.834986 637.065301 109.018231 637.065301 C 106.838125 637.065301 104.294667 637.435005 101.024508 638.174415 C 97.754349 638.54412 95.574243 639.653234 94.84754 641.132054 C 94.484189 642.241168 94.120838 644.459397 94.120838 647.047331 C 94.120838 648.156446 94.84754 652.962609 95.937594 661.096115 C 99.207753 673.66608 102.841263 680.690472 106.838125 682.169291 C 110.834986 683.278406 135.179505 685.496635 179.14498 688.084569 C 188.955457 688.823978 200.219339 689.193683 212.936625 689.933093 C 225.653911 690.672503 235.82774 691.781617 243.094761 692.890732 C 250.361782 694.369551 253.995292 694.739256 253.995292 693.999846 C 261.989014 693.999846 265.985876 691.411912 265.985876 685.86634 C 265.985876 678.841948 241.641357 578.651936 192.952319 386.035713 C 144.263281 193.41949 119.19206 92.490068 118.102006 82.877743 C 118.102006 81.768628 118.102006 79.180694 118.102006 75.113941 C 118.102006 71.047188 117.738655 67.719844 117.011953 65.13191 Z M 117.011953 58.846928 "
     transform="matrix(0.0107506, 0, 0, -0.0105659, 282.35533, 37.332706)"
     id="path47" />
  <path
     fill-rule="nonzero"
     fill="rgb(0%, 0%, 0%)"
     fill-opacity="1"
     stroke-width="15.788039"
     stroke-linecap="butt"
     stroke-linejoin="miter"
     stroke="rgb(0%, 0%, 0%)"
     stroke-opacity="0.0942"
     stroke-miterlimit="4"
     d="M 21.107379 287.031711 C 21.621313 291.215076 22.64918 296.444282 24.190981 303.24225 C 25.218848 309.517297 29.330316 322.590311 36.011453 340.892532 C 42.692589 359.717673 49.373725 375.40529 56.054861 387.955384 C 62.735997 400.505479 73.528602 413.055573 87.918742 425.082746 C 102.822815 437.10992 117.212954 442.862046 132.117027 441.816205 C 146.507167 441.293284 160.897306 439.201602 174.773512 435.018237 C 189.163652 430.834873 198.928389 425.082746 205.095592 417.238937 C 210.748861 408.872208 216.40213 401.55132 221.027532 394.753352 C 225.652934 388.478305 228.222602 382.203258 229.250469 375.928211 L 230.79227 369.130243 C 230.79227 367.561482 231.306203 367.038561 231.820137 367.038561 L 243.126675 378.019893 C 283.213492 420.899381 329.981446 441.816205 383.944469 441.816205 C 395.251007 441.816205 405.529678 441.293284 414.780482 440.247443 C 424.54522 438.678681 432.768157 436.586999 440.991093 432.926555 C 449.21403 429.789031 455.381233 426.128587 460.006635 422.991064 C 464.632037 419.85354 469.771373 415.670176 474.910708 410.96389 C 480.563977 406.257605 483.647578 402.07424 485.189379 397.890876 C 486.217246 394.230432 488.786914 389.524146 492.898382 384.817861 C 497.009851 380.111576 498.551652 376.451132 497.009851 372.790687 C 495.46805 369.653164 496.495917 366.51564 500.093452 363.901038 C 503.177054 361.286435 504.204921 359.194752 502.149186 357.10307 L 509.85819 367.038561 C 552.000741 417.238937 601.852296 441.816205 658.898921 441.816205 C 694.874269 441.816205 724.168482 432.926555 745.753691 415.147255 C 767.852834 396.845034 779.159372 370.699005 780.187239 336.186246 C 780.187239 302.196408 767.338901 249.381429 742.156156 177.741309 C 716.459479 106.624109 704.125073 63.744621 704.125073 50.148686 C 704.639007 40.736115 706.180808 34.461068 708.750475 30.800624 C 711.834077 27.663101 716.459479 26.094339 724.168482 26.094339 C 742.67009 26.094339 760.143831 36.02983 776.075771 55.900812 C 792.007711 75.771794 804.85605 103.486586 815.134721 137.999344 C 817.190455 145.320232 819.24619 149.503597 820.78799 151.072359 C 822.843724 152.1182 828.496994 153.164041 837.233864 153.164041 C 850.082203 153.164041 856.763339 150.549438 856.763339 144.797312 C 856.763339 144.274391 855.735472 139.568106 853.165804 130.155535 C 847.512535 110.807474 840.317465 91.459412 831.066661 73.157192 C 821.815857 54.33205 806.397851 35.506909 784.812641 17.204689 C 763.741366 -1.620452 740.614356 -10.510102 715.945545 -9.987182 C 684.595598 -9.987182 661.982522 -1.097532 648.106316 17.204689 C 634.23011 34.983989 627.03504 53.80913 627.03504 73.157192 C 627.03504 85.707286 638.855512 125.44925 663.010389 192.906006 C 687.165266 260.362761 699.499671 311.086058 700.013605 345.075896 C 700.013605 384.29494 685.109532 404.165923 655.815319 404.165923 L 651.189917 404.165923 C 593.629359 404.165923 545.319605 370.176085 505.746721 303.24225 L 499.065585 291.215076 L 466.173838 156.824485 C 444.074695 69.496747 431.226356 22.433895 428.142755 16.158848 C 419.405884 -2.143373 405.015745 -11.033023 384.972336 -11.033023 C 376.235466 -11.033023 369.554329 -8.41842 363.90106 -4.235055 C 358.761725 0.47123 355.16419 4.654595 353.108456 7.792118 C 351.052721 11.452562 350.024854 14.590086 350.024854 18.25053 C 350.024854 25.571418 361.331393 73.157192 383.944469 161.00785 L 419.919818 306.902694 C 421.975552 316.838185 423.003419 329.911199 423.003419 345.075896 C 423.003419 384.29494 408.099346 404.165923 378.805133 404.165923 L 374.179731 404.165923 C 316.619173 404.165923 268.309419 370.176085 229.250469 303.24225 L 222.055399 291.215076 L 189.163652 156.824485 C 167.064509 69.496747 154.21617 22.433895 151.132569 16.158848 C 142.395698 -2.143373 128.005559 -11.033023 107.96215 -11.033023 C 99.22528 -11.033023 92.544144 -8.94134 86.890874 -4.757976 C 81.751539 -1.097532 78.154004 3.085833 76.09827 6.746277 C 74.042536 10.929642 73.528602 14.590086 74.042536 17.204689 C 74.042536 25.571418 86.890874 80.47808 112.073619 180.878832 C 137.770296 283.894188 151.132569 337.232088 151.132569 341.938373 C 153.188303 351.873864 154.21617 360.763514 154.21617 369.130243 C 154.21617 393.18459 145.4793 405.211764 129.033426 405.211764 C 114.129353 405.211764 101.794947 395.799193 92.03021 376.974052 C 81.751539 358.148911 74.556469 337.755008 68.9032 315.792344 C 63.763864 293.829679 59.652396 281.802505 57.082728 280.233744 C 55.540928 278.664982 50.401592 278.142061 41.150788 278.142061 L 26.760649 278.142061 C 23.163114 281.802505 21.107379 284.940029 21.107379 287.031711 Z M 21.107379 287.031711 "
     transform="matrix(0.00760069, 0, 0, -0.00747006, 285.913788, 38.917583)"
     id="path49" />
  <path
     fill-rule="nonzero"
     fill="rgb(0%, 0%, 0%)"
     fill-opacity="1"
     stroke-width="15.788039"
     stroke-linecap="butt"
     stroke-linejoin="miter"
     stroke="rgb(0%, 0%, 0%)"
     stroke-opacity="0.0942"
     stroke-miterlimit="4"
     d="M 33.239077 156.824485 C 33.239077 224.281241 58.421821 288.077553 108.787309 349.259261 C 159.666731 409.918049 216.713356 440.247443 279.927183 440.770364 C 313.846797 440.770364 344.168877 424.559826 369.865555 392.138749 C 380.658159 412.009731 396.076166 421.945223 416.119575 421.945223 C 424.856445 421.945223 432.565448 419.33062 439.246585 414.101414 C 445.413787 408.872208 449.011322 402.07424 449.011322 394.230432 C 449.011322 385.340782 436.676917 332.002882 412.008106 234.216732 C 387.339296 135.907662 374.490957 80.47808 373.977023 67.927986 C 373.977023 51.194527 376.546691 40.213195 381.172093 34.983989 C 385.797495 29.754783 392.478631 26.617259 402.243369 26.094339 C 407.896638 26.617259 414.577774 29.754783 421.772844 34.983989 C 436.162983 48.579924 449.525256 80.47808 462.887528 131.201377 C 466.998997 144.274391 470.082598 151.072359 473.166199 152.1182 C 474.194066 152.641121 477.791601 153.164041 482.930937 153.164041 L 487.042405 153.164041 C 499.890744 153.164041 506.057947 150.026518 506.057947 143.751471 C 506.057947 140.091027 504.516146 131.201377 500.918611 117.082521 C 497.83501 102.963665 491.153874 85.184365 480.875203 63.2217 C 471.110465 41.259036 460.31786 24.525577 449.011322 13.021324 C 440.274452 4.131674 429.481847 -2.666293 417.147442 -7.895499 C 411.494173 -9.464261 403.785169 -9.987182 392.992565 -9.987182 C 370.379488 -9.987182 351.363947 -4.757976 335.94594 5.177515 C 320.527934 15.113006 310.763196 25.571418 306.137794 36.02983 L 299.970591 51.194527 C 299.456658 51.717448 297.914857 51.194527 295.859123 50.148686 C 294.831256 48.579924 293.289455 47.534083 291.747655 45.965321 C 252.688704 8.837959 212.601887 -9.987182 172.001136 -9.987182 C 135.511854 -9.987182 103.13404 3.085833 74.867695 29.754783 C 47.115283 56.423733 33.239077 98.7803 33.239077 156.824485 Z M 350.850013 327.819517 C 350.850013 332.002882 349.308213 339.32377 346.224611 349.782182 C 342.627076 360.763514 334.918073 372.267767 323.097601 384.817861 C 310.763196 397.890876 295.859123 404.165923 276.843581 405.211764 C 253.716571 405.211764 231.103495 394.753352 210.032219 373.836529 C 188.44701 353.442626 172.001136 326.250755 160.180665 292.783838 C 140.651189 240.491779 126.774984 185.585118 119.06598 129.109694 C 119.06598 127.018012 119.06598 123.357568 119.06598 118.128362 C 119.06598 112.899156 118.552047 108.715791 118.038113 106.101188 C 118.038113 75.771794 124.205316 55.377892 136.025787 43.873639 C 147.846259 32.892306 162.236399 26.617259 179.196206 26.094339 C 204.37895 26.094339 229.561694 37.075671 254.230505 59.038336 C 278.899316 81.001 293.289455 98.25738 297.914857 109.761633 C 299.456658 112.899156 308.193528 148.457756 325.153336 216.960353 C 341.599209 285.46295 350.33608 322.590311 350.850013 327.819517 Z M 350.850013 327.819517 "
     transform="matrix(0.00760069, 0, 0, -0.00747006, 292.587204, 38.917583)"
     id="path51" />
  <path
     fill-rule="nonzero"
     fill="rgb(0%, 0%, 0%)"
     fill-opacity="1"
     stroke-width="15.788039"
     stroke-linecap="butt"
     stroke-linejoin="miter"
     stroke="rgb(0%, 0%, 0%)"
     stroke-opacity="0.0942"
     stroke-miterlimit="4"
     d="M 52.092556 289.123394 C 56.717958 316.838185 74.705633 349.259261 106.055579 385.863702 C 137.405526 422.468143 175.950543 441.293284 222.204563 441.816205 C 245.331573 441.816205 266.916782 436.064078 285.932323 424.036905 C 305.461799 412.009731 319.851938 396.845034 329.102742 379.065735 C 356.855154 420.899381 390.774769 441.816205 429.833719 441.816205 C 454.502529 441.816205 476.087739 434.495317 494.075413 419.85354 C 512.063087 405.211764 521.313891 385.863702 521.827825 360.763514 C 521.827825 341.415452 517.202423 326.250755 507.951619 314.223582 C 498.700815 302.196408 489.450011 294.87552 481.227074 292.260917 C 472.490204 289.123394 464.7812 288.077553 458.100064 288.077553 C 445.251725 288.077553 434.973054 291.737997 426.750117 299.058885 C 419.041114 306.379773 414.929646 315.792344 414.929646 327.819517 C 414.929646 358.671832 431.889453 379.588655 464.7812 391.092908 C 457.586131 399.459637 444.223858 404.165923 425.208317 404.165923 C 416.471446 404.165923 409.79031 403.120081 406.192775 402.07424 C 380.496098 391.092908 361.99449 369.130243 350.174018 336.186246 C 310.087201 188.722641 290.043792 102.440744 290.043792 77.863477 C 290.043792 59.561256 295.183127 45.965321 305.975732 38.121512 C 316.768337 29.754783 328.588809 26.094339 340.923214 26.094339 C 365.592024 26.094339 389.746901 37.075671 413.901779 59.038336 C 438.056656 81.001 454.502529 108.192871 463.2394 140.091027 C 464.7812 146.888994 466.836935 150.549438 468.892669 151.072359 C 470.948403 151.595279 476.087739 152.1182 484.824609 153.164041 L 488.936078 153.164041 C 499.214749 153.164041 503.840151 150.549438 503.840151 144.797312 C 503.840151 144.274391 503.326217 140.613947 501.784416 133.81598 C 491.505745 96.165697 470.43447 62.175859 440.11239 32.892306 C 409.276377 3.608754 373.814961 -11.033023 333.214211 -11.033023 C 286.446257 -11.033023 250.984842 9.883801 226.829965 52.240368 C 199.591486 10.406721 168.24154 -9.987182 132.780124 -9.987182 L 127.126855 -9.987182 C 94.235108 -9.987182 71.108098 -1.097532 57.231892 16.158848 C 42.841752 33.415227 35.646682 51.717448 35.132749 71.065509 C 35.132749 92.505253 41.299952 109.761633 54.14829 122.834647 C 66.482696 136.430582 81.900702 143.22855 98.86051 143.22855 C 127.640789 143.22855 142.030928 129.109694 142.030928 100.871983 C 142.030928 87.798968 137.91946 75.771794 130.210456 65.836303 C 121.98752 55.900812 114.278516 49.102845 107.083447 45.965321 C 99.888377 42.827798 95.262975 41.259036 94.235108 41.259036 L 91.151506 40.213195 C 91.151506 39.167353 93.207241 38.121512 96.804775 36.02983 C 100.916244 33.938148 106.569513 31.846465 113.250649 29.231862 C 119.417852 26.094339 126.098988 25.571418 131.752257 26.094339 C 155.907134 26.094339 176.464476 41.259036 193.938217 71.065509 C 200.10542 81.523921 207.814423 104.532427 217.065227 139.045185 C 226.316031 173.557944 235.566835 209.639465 244.817639 246.766826 C 254.582377 284.417108 259.721712 306.379773 260.749579 313.177741 C 264.347114 330.957041 265.888915 344.030055 265.888915 351.873864 C 265.888915 370.699005 260.749579 383.77202 250.984842 392.138749 C 241.220104 399.982558 229.913566 404.165923 217.065227 404.165923 C 190.340682 404.165923 165.157938 393.18459 142.030928 371.744846 C 118.903918 350.828023 102.458045 323.113232 93.207241 290.169235 C 91.66544 283.894188 90.123639 280.756664 88.067905 280.233744 C 86.012171 279.187903 80.872835 278.664982 72.135965 278.142061 L 57.745825 278.142061 C 54.14829 281.802505 52.092556 285.46295 52.092556 289.123394 Z M 52.092556 289.123394 "
     transform="matrix(0.00760069, 0, 0, -0.00747006, 296.607967, 38.917583)"
     id="path53" />
  <path
     fill-rule="nonzero"
     fill="rgb(0%, 0%, 0%)"
     fill-opacity="1"
     stroke-width="11.908573"
     stroke-linecap="butt"
     stroke-linejoin="miter"
     stroke="rgb(0%, 0%, 0%)"
     stroke-opacity="0.1227"
     stroke-miterlimit="4"
     d="M 120.947625 646.84652 C 120.947625 653.78627 122.49822 661.134241 124.824113 670.115094 C 127.537655 678.687726 131.801793 683.178152 136.841228 683.178152 C 137.616525 683.178152 161.650754 684.811034 208.943913 688.076799 C 256.237072 691.342564 280.65895 693.383667 281.821896 694.200108 C 289.962522 694.200108 293.839011 691.342564 293.839011 686.035696 C 293.839011 681.137049 277.17011 611.73955 243.832309 477.026759 C 210.494509 345.171511 193.825608 276.590454 193.825608 272.100027 C 206.61802 278.631557 216.309241 285.163086 222.899272 290.878174 C 239.180523 303.124792 262.051805 323.944041 291.900766 354.152364 C 322.137376 383.952467 345.396307 404.363496 362.065208 414.977231 C 388.812978 432.938936 414.010153 441.919789 438.044382 441.919789 C 457.814473 441.919789 473.708076 435.79648 484.949892 423.141642 C 496.191709 410.486804 502.39409 392.525099 503.169388 368.848305 C 503.169388 352.519482 500.843495 338.231761 496.191709 326.801585 C 491.152274 315.77963 484.949892 307.206997 476.809266 301.90013 C 469.056289 296.593262 462.07861 292.919277 455.876229 290.878174 C 450.061496 288.837071 443.859114 288.02063 438.044382 288.02063 C 424.476672 288.02063 414.010153 291.694615 405.869527 299.042586 C 398.11655 306.390556 393.852413 316.18785 393.852413 328.026247 C 393.852413 344.763291 399.279497 358.23457 410.133665 368.848305 C 420.600184 379.870261 431.454351 386.810011 441.92087 390.075775 L 457.814473 392.933319 C 450.061496 401.097731 441.92087 405.179937 434.167893 405.179937 L 429.903756 405.179937 C 408.583069 403.138834 387.650032 394.566202 367.104643 379.870261 C 346.171605 365.17432 322.137376 343.94685 293.839011 316.18785 C 265.928294 288.02063 243.832309 267.609601 227.938707 254.954763 C 229.489302 254.138322 234.141088 253.321881 243.057012 252.097219 C 251.585286 250.464337 259.725912 248.831454 267.09124 245.97391 C 274.456568 243.524587 282.984843 240.667043 293.063713 237.809499 C 303.142583 235.360175 312.058506 230.869749 319.811483 223.929999 C 327.952109 217.39847 335.317437 211.275161 341.907468 205.968293 C 348.497498 200.661426 354.312231 192.088794 358.964017 179.842176 C 363.615803 168.003779 365.554047 156.981824 365.166398 147.18453 C 365.166398 135.754353 363.228154 121.874854 360.126963 105.954251 C 356.638124 90.033648 354.69988 76.562369 353.924582 65.948634 C 353.924582 39.414296 362.840505 25.943017 381.060001 25.943017 C 412.847207 25.943017 438.819679 65.540414 458.977419 145.143427 C 460.140366 150.450294 467.118045 152.899618 479.135159 152.899618 L 483.011648 152.899618 C 493.478167 152.899618 498.905251 150.042074 498.905251 143.918765 C 498.905251 140.653 498.129953 136.162574 496.191709 130.039265 C 468.668641 36.148532 429.516107 -10.796835 377.95881 -10.796835 C 348.109849 -10.796835 323.687972 -2.224203 305.080827 14.921062 C 286.473683 32.474547 277.17011 57.376002 277.17011 90.033648 C 277.17011 101.872045 277.945408 112.48578 279.883652 121.058413 C 281.821896 129.631045 282.984843 137.795456 282.984843 145.143427 C 282.984843 159.839368 278.333057 172.494206 269.029484 183.107941 C 259.725912 193.721676 248.096447 201.477867 234.141088 205.968293 C 220.18573 210.86694 208.556264 214.132705 200.02799 216.990249 C 191.499715 219.847793 185.297333 220.664234 181.808494 219.847793 L 179.87025 219.847793 C 172.117273 192.088794 165.139593 165.146235 158.937212 139.020118 C 153.122479 112.894001 148.470693 93.707634 144.981853 81.052796 C 141.493014 68.397958 138.779472 56.15134 136.06593 43.904723 C 133.352388 32.066326 131.026495 23.901914 129.088251 19.819709 C 127.150006 16.145723 124.824113 11.655297 122.110571 7.164871 C 119.39703 2.266224 115.520541 -0.59132 110.868755 -1.815982 C 102.34048 -7.939291 93.036908 -10.796835 82.958038 -10.796835 C 71.716221 -10.796835 63.187947 -7.53107 56.985565 -0.999541 C 51.170832 5.531988 48.069642 11.247076 48.069642 16.145723 C 48.069642 22.677253 60.474405 76.154149 84.896282 176.168191 C 109.705808 276.182233 134.127686 374.155173 158.161914 470.90345 L 194.988555 615.821756 C 195.763852 624.802609 193.437959 630.109477 188.010875 632.15058 C 182.583792 634.191682 169.79138 635.824565 148.858342 637.049226 L 143.818907 637.049226 C 137.228876 637.049226 132.964739 637.049226 131.026495 637.049226 C 129.088251 637.049226 126.762358 637.865668 124.048816 639.906771 C 121.335274 641.947873 120.172327 644.397197 120.947625 646.84652 Z M 120.947625 646.84652 "
     transform="matrix(0.0100768, 0, 0, -0.00956897, 286.499988, 192.642779)"
     id="path55" />
  <path
     fill-rule="nonzero"
     fill="rgb(0%, 0%, 0%)"
     fill-opacity="1"
     stroke-width="11.122494"
     stroke-linecap="butt"
     stroke-linejoin="miter"
     stroke="rgb(0%, 0%, 0%)"
     stroke-opacity="0.1306"
     stroke-miterlimit="4"
     d="M 289.142035 628.897393 C 289.142035 632.880056 269.840198 635.776539 232.008599 636.86272 C 216.181093 636.86272 205.758101 637.224781 201.125661 637.948901 C 196.49322 638.673022 194.177 641.931565 194.177 648.086591 C 194.177 648.810711 194.563036 652.431315 196.107183 658.948401 C 196.49322 661.120763 197.265293 663.293125 198.037367 665.827547 C 198.80944 668.72403 198.80944 670.172271 198.80944 670.896392 C 198.80944 671.620513 199.581514 673.430814 201.125661 675.965237 C 202.283771 678.499659 203.055844 679.58584 203.055844 678.861719 C 203.055844 678.499659 204.213955 678.861719 206.916212 681.034081 C 209.618469 682.844383 211.162616 683.568504 211.934689 682.844383 C 212.706763 682.482323 215.40902 682.482323 220.04146 682.844383 C 224.673901 683.568504 228.534268 683.930564 232.008599 683.930564 C 235.868966 683.930564 245.905921 683.930564 262.119464 683.930564 C 277.94697 683.930564 293.002402 683.568504 306.899724 682.844383 C 359.786756 682.844383 389.897621 682.844383 398.004392 682.844383 C 406.111164 682.844383 411.515678 681.396142 413.831898 678.137599 C 414.603972 675.241116 426.957147 581.467488 450.891424 396.092595 L 487.178877 116.944074 L 509.955044 153.874229 C 526.168586 178.132272 547.400607 211.441823 574.037141 254.164943 C 600.673675 296.526002 630.012467 343.231786 662.053515 393.920233 C 778.636607 580.019247 837.700227 673.792875 838.858337 674.879056 C 839.63041 675.603176 840.78852 676.689357 841.946631 678.137599 C 843.490778 679.22378 844.648888 680.309961 845.806998 681.034081 L 851.983586 682.844383 L 948.106731 682.844383 C 959.301796 682.844383 972.813082 682.844383 987.868514 682.844383 C 1003.309983 682.844383 1012.960902 683.206443 1016.821269 683.930564 C 1039.597436 683.930564 1051.178538 680.309961 1051.178538 673.068754 C 1051.178538 669.810211 1050.020428 664.017246 1048.090244 656.051918 C 1046.16006 648.086591 1045.00195 643.741867 1045.00195 643.017746 C 1042.299693 639.035082 1029.946518 636.86272 1007.942424 636.86272 C 981.30589 636.50066 964.320274 635.414479 956.985576 633.966237 C 949.650878 632.517996 943.47429 628.897393 938.84185 623.104427 C 936.911666 619.845884 912.977389 525.348136 867.039018 339.973243 C 821.100647 154.59835 797.552407 60.824722 797.16637 59.01442 C 797.16637 56.479998 797.16637 54.669696 797.938444 53.945576 C 798.710517 53.221455 801.026737 52.135274 804.887105 49.962912 C 809.133509 48.15261 814.538023 47.428489 821.872721 48.15261 C 829.207419 48.51467 840.402484 48.15261 855.071879 45.980248 L 885.954818 45.980248 C 889.815185 39.825222 892.131405 36.204619 892.131405 35.118438 C 892.131405 24.256628 889.815185 14.480999 885.182744 5.06743 C 881.708414 1.808887 876.3039 -0.00141487 868.969202 -0.00141487 C 865.494871 -0.00141487 851.983586 0.360645 828.049308 1.084766 C 804.115031 1.808887 773.232093 2.170947 736.172567 2.170947 C 695.252674 2.170947 664.755772 2.170947 643.909789 2.170947 C 623.449842 2.170947 611.482704 1.808887 609.166483 1.084766 C 597.585381 1.084766 592.180867 4.343309 592.180867 10.860395 C 592.180867 12.308637 592.566904 17.015421 594.111051 24.980748 C 596.813308 35.842559 599.515565 41.635524 601.831785 43.083765 C 604.534042 44.169946 612.254777 45.256127 624.993989 45.980248 C 643.137715 45.980248 662.825588 47.066429 684.829682 48.876731 C 694.4806 51.049093 700.657188 55.031757 704.131518 60.824722 C 705.289629 63.721205 718.028841 112.23729 741.963118 207.097099 C 765.897395 301.594847 789.831672 396.092595 812.993876 489.866223 C 836.15608 584.001911 848.123218 631.069755 848.123218 631.069755 L 653.946744 321.870226 C 523.466329 114.047592 456.295939 8.325973 452.821608 5.06743 C 451.663498 4.343309 450.505388 3.619189 448.961241 2.895068 C 445.48691 1.084766 440.468433 -0.00141487 433.133735 -0.00141487 C 423.09678 -0.00141487 416.920192 2.170947 414.990009 6.877732 C 413.831898 9.774214 399.934576 112.961411 374.070115 317.163441 L 335.080406 623.828548 L 267.137941 354.093596 C 222.357681 176.68403 199.967551 85.082765 199.967551 78.927739 C 203.827918 56.842058 228.148232 45.980248 272.156419 45.980248 L 281.807337 45.980248 C 286.053741 42.721705 288.369961 39.825222 289.142035 36.92874 C 289.528072 34.394317 288.755998 28.239292 286.053741 18.825723 C 283.351484 8.325973 280.649227 2.170947 277.94697 1.084766 C 275.244713 0.360645 271.770382 -0.00141487 267.137941 -0.00141487 C 265.593794 -0.00141487 261.733427 -0.00141487 255.170803 -0.00141487 C 248.222142 -0.00141487 237.027077 0.360645 220.813534 1.084766 C 204.986028 1.808887 183.754008 2.170947 157.117474 2.170947 C 137.043564 2.170947 116.19758 1.808887 94.96556 1.084766 C 73.73354 0.360645 61.380365 -0.00141487 57.906034 -0.00141487 C 47.869079 -0.00141487 41.692492 0.722706 38.990235 2.170947 C 36.287978 3.257128 35.129867 6.153611 35.129867 10.860395 C 35.129867 12.308637 35.901941 17.015421 37.832124 24.980748 C 40.148345 32.946076 41.692492 38.014921 42.850602 39.825222 C 44.394749 44.169946 51.729447 45.980248 64.854695 45.980248 C 111.56514 45.980248 141.289968 59.376481 154.02918 86.168946 C 156.731437 90.151609 179.507604 179.218453 223.129754 354.093596 C 266.365868 528.606679 288.369961 620.207945 289.142035 628.897393 Z M 289.142035 628.897393 "
     transform="matrix(0.0101189, 0, 0, -0.0107889, 127.499995, 14.999985)"
     id="path57" />
  <path
     fill-rule="nonzero"
     fill="rgb(0%, 0%, 0%)"
     fill-opacity="1"
     stroke-width="15.731958"
     stroke-linecap="butt"
     stroke-linejoin="miter"
     stroke="rgb(0%, 0%, 0%)"
     stroke-opacity="0.0923"
     stroke-miterlimit="4"
     d="M 121.267113 646.947262 C 121.267113 653.604666 122.359155 661.286286 125.089259 669.992122 C 127.819363 678.697958 131.641509 682.794822 137.101717 682.794822 C 137.647738 682.794822 161.672655 684.843254 209.176467 687.915902 C 256.134259 691.500658 280.705196 693.54909 281.797238 694.061198 C 289.98755 694.061198 293.809696 691.500658 293.809696 685.86747 C 293.809696 681.258498 277.429071 611.61181 244.1218 476.927406 C 210.814529 344.803541 193.887884 276.693177 193.887884 272.084205 C 206.446363 278.741609 216.274738 284.886905 222.826988 291.032201 C 239.207613 302.810685 262.140488 323.807113 292.171634 354.021485 C 322.202779 384.235857 345.135654 404.20807 362.0623 414.962338 C 388.817321 432.886118 413.934279 442.104062 437.959196 442.104062 C 458.161967 442.104062 473.45055 435.446658 484.916988 423.156066 C 496.383425 410.353366 502.389654 392.429585 502.935675 368.872617 C 502.935675 352.485161 500.751592 338.146137 495.837404 326.879761 C 491.469238 315.613385 484.916988 307.419657 477.272696 301.786469 C 469.082384 296.665389 461.984113 293.080633 455.977884 291.032201 C 449.971654 288.983769 443.965425 287.959553 437.959196 287.959553 C 424.854696 287.959553 413.934279 291.544309 405.743967 299.225929 C 398.099675 306.395441 393.731509 316.125493 393.731509 327.903977 C 393.731509 344.803541 399.191717 358.118349 410.112134 368.872617 C 420.486529 379.626885 431.406946 386.796397 441.781342 389.869045 L 458.161967 392.941693 C 449.971654 401.135422 441.781342 405.232286 434.13705 405.232286 L 429.768884 405.232286 C 408.474071 403.183854 387.725279 394.478017 366.976488 380.138993 C 346.227696 365.287861 322.202779 343.779325 293.809696 316.125493 C 265.962634 287.959553 244.1218 267.475233 227.741175 255.184641 C 229.379238 254.160425 234.293425 253.136209 243.029759 252.111993 C 251.766092 250.575669 259.410384 248.527237 267.054675 245.966697 C 274.152946 243.406157 282.889279 240.845617 293.263675 237.772969 C 303.09205 235.212429 311.828384 230.603457 320.018696 223.946053 C 328.209009 217.288649 335.307279 211.143353 341.859529 206.022273 C 348.411779 200.901193 354.418009 192.195357 358.786175 179.904765 C 363.700363 168.126281 365.884446 156.859905 364.792404 147.129853 C 364.792404 135.863477 363.154342 122.036561 359.878217 106.161213 C 356.602092 89.773757 354.418009 76.458949 353.871988 66.216789 C 353.871988 39.587172 363.154342 25.760256 381.173029 25.760256 C 412.842238 25.760256 439.051238 65.704681 459.254009 145.081421 C 460.34605 150.202501 466.8983 152.763041 478.910759 152.763041 L 482.732904 152.763041 C 493.653321 152.763041 499.113529 150.202501 499.113529 144.057205 C 499.113529 140.472449 498.021488 135.863477 495.837404 130.230289 C 468.536363 36.002416 429.222863 -11.11152 377.896904 -11.11152 C 347.865759 -11.11152 323.840842 -2.405684 304.730113 15.005988 C 286.165404 32.41766 276.88305 57.510952 276.88305 89.773757 C 276.88305 102.064349 277.975092 112.306509 280.159175 121.012345 C 281.797238 129.718181 282.889279 137.911909 282.889279 145.081421 C 282.889279 159.420445 278.521113 172.223145 269.238759 182.977413 C 259.410384 193.731681 247.943946 201.413301 233.747404 206.022273 C 220.096884 210.631245 208.630446 214.216001 199.894113 216.776541 C 191.15778 219.849189 185.15155 220.873405 181.875425 219.849189 L 180.237363 219.849189 C 172.04705 192.195357 164.94878 165.053633 158.94255 138.936125 C 152.936321 112.818617 148.568155 93.870621 144.746009 81.067921 C 141.469884 68.265221 138.73978 55.974628 136.009675 44.196144 C 133.279571 31.905552 131.095488 24.223932 128.911405 20.127068 C 126.727321 16.030204 124.543238 11.421232 121.813134 6.81226 C 119.08303 2.203288 115.806905 -0.86936 110.892717 -1.893576 C 102.156384 -8.038872 92.87403 -11.11152 83.045655 -11.11152 C 71.579217 -11.11152 62.842884 -7.526764 56.836655 -0.86936 C 50.830425 5.788044 48.100321 11.421232 48.100321 16.030204 C 48.100321 22.687608 60.11278 75.946841 85.229738 175.807901 C 109.800675 276.181069 133.825592 374.505805 157.850509 470.78211 L 194.979925 616.220782 C 195.525946 624.41451 193.341863 630.047698 187.881655 632.09613 C 182.421446 634.144562 169.862967 635.680886 149.114175 637.21721 L 144.199988 637.21721 C 137.101717 637.21721 132.73355 637.21721 131.095488 637.21721 C 128.911405 637.21721 126.727321 638.241426 123.997217 639.77775 C 121.267113 641.826182 120.175071 644.386722 121.267113 646.947262 Z M 121.267113 646.947262 "
     transform="matrix(0.00715403, 0, 0, -0.00762779, 139.015264, 10.54415)"
     id="path59" />
  <path
     fill-rule="nonzero"
     fill="rgb(0%, 0%, 0%)"
     fill-opacity="1"
     stroke-width="11.428571"
     stroke-linecap="butt"
     stroke-linejoin="miter"
     stroke="rgb(0%, 0%, 0%)"
     stroke-opacity="0.1289"
     stroke-miterlimit="4"
     d="M 213.170238 577.984373 L 200.149405 572.968941 C 190.84881 569.496718 177.455954 566.410298 159.970835 562.938075 C 142.485716 559.851655 123.512503 557.151038 101.935122 555.99363 L 82.961908 555.99363 L 82.961908 601.904129 L 101.935122 601.904129 C 133.185121 603.447339 162.202978 608.462772 188.988691 616.950427 C 215.774405 625.823885 234.375595 633.539935 245.164285 640.870183 C 255.580951 648.200431 264.881546 655.530678 273.06607 662.860926 C 274.182141 665.175741 278.274403 665.947346 284.970832 665.947346 C 290.923212 665.947346 296.503569 664.018334 302.083926 660.160308 L 302.083926 361.163361 L 302.827974 61.009006 C 307.664283 56.379376 311.756545 53.292956 315.104759 52.135548 C 318.452974 50.592338 326.265473 49.434931 338.914283 47.891721 C 351.563092 46.734313 372.396425 45.962708 401.042257 45.962708 L 427.083923 45.962708 L 427.083923 0.0522093 L 415.923209 0.0522093 C 402.158328 1.981222 348.958925 3.138629 257.069047 3.138629 C 166.29524 3.138629 113.839884 1.981222 100.075003 0.0522093 L 88.170242 0.0522093 L 88.170242 45.962708 L 113.839884 45.962708 C 128.720836 45.962708 141.369645 45.962708 152.158335 45.962708 C 162.575002 45.962708 171.131549 46.348511 177.08393 47.120116 C 183.036311 47.505918 188.244644 48.663326 193.080953 49.820733 C 197.545239 51.363943 200.149405 52.135548 200.893453 52.135548 C 201.637501 52.135548 203.49762 53.678759 206.845834 57.150981 C 210.194048 60.237401 212.426191 61.780611 213.170238 61.009006 Z M 213.170238 577.984373 "
     transform="matrix(0.0105, 0, 0, -0.010125, 151.499994, 192.746622)"
     id="path61" />
</svg>
